<svg xmlns="http://www.w3.org/2000/svg" width="136" height="128" viewBox="0 0 136 128">
    <g fill="none" fill-rule="evenodd">
        <path fill="#FFF" d="M0 0h136v128H0z" opacity=".01"/>
        <path fill="#E0D5C0" d="M23.132 83.887c.383-1.717-.384-3.05-.948-4.382-.563-1.332-1.319-3.624-1.319-3.624-.947-.192-17.663-3.433-14.344 7.33 1.43 4.655 3.702 6.575 5.411 6.575 1.709 0 10.816-4.183 11.2-5.9zM119.232 76.951c-4.574-.326-9.63-7.97-14.18-7.348-5.667.797-6.435 2.019-7.411 3.706-1.47 2.595-10.81 4.818-12.903 4.818-2.092 0-13.466.78-14.994 1-1.529.221-1.523 2.479-3.04 5.144-1.517 2.664-3.987 4.957-9.497 5.335-5.51.378-18.418 2.665-20.888 2.478a19.026 19.026 0 0 0-4.748.285c-2.279 1.333-10.73 5.906-9.968 8.006.413 1.164-7.12 6.162 4.603 13.272 6.207 3.764 25.276 7.685 31.577 5.312 2.278-.862.284-2.857-3.418-4.288a56.208 56.208 0 0 1-7.404-3.433c-1.325-1.746-1.994-5.347.697-8.605S72.156 85.48 73.475 84.527c1.32-.955 7.404-4.766 9.299-5.144 1.895-.378 8.828.477 16.047 2.764 2.447.785 4.475 1.548 6.155 2.094 1.04.46 2.249.908 3.528 1.339 3.987 1.332 4.934 1.163 6.648 3.81 1.715 2.648.384 4.19-1.162 8.193-1.546 4.002-8.137 9.338-8.137 9.338s-9.217 6.982-13.82 11.252c.12.164.209.35.261.547.384 1.332 4.068 1.716 8.073 1.164 1.255-.18 7.823-2.973 10.066-4.003 9.13-4.19 7.405-8.378 9.13-15.628 1.727-7.25 7.027-8.378 9.69-12.218 2.661-3.84-3.07-10.59-10.02-11.084z"/>
        <path fill="#C6C6C6" d="M30.06 82.263c-2.657 1.903-9.69 7.622-14.054 9.338-4.365 1.717-4.934.582-5.696 4.003-.76 3.421-1.708 4.19 1.523 4.765 3.232.576 4.749-1.332 7.974-3.624 3.226-2.293 8.718-5.528 11.583-7.436a31.116 31.116 0 0 0 4.371-3.433l-.947-2.286-4.755-1.327z"/>
        <path fill="#EF7E70" d="M24.556 77.69c-.384 2.287-.762 5.72.947 5.906 1.709.186 2.47-1.164 3.61-1.717 1.138-.552 0 0 3.608.582 3.61.582 2.848-.582 2.848 1.716 0 2.299 1.9 2.479.384 3.811-1.517 1.333-2.656 2.665 1.33 2.287 3.988-.378 22.981-4.003 24.306-4.957 1.326-.954 3.232-3.049 3.796-5.143.563-2.095 1.947-5.05 1.377-5.237-.57-.186-3.278 1.286-3.278 1.286s-1.563 1.332-4.987 1.716c-3.423.384-9.212 1.565-13.367 2.13-4.156.564-7.265.093-10.113-.285a71.887 71.887 0 0 1-8.346-1.903 10.027 10.027 0 0 0-2.115-.192z"/>
        <path fill="#C6C6C6" d="M100.518 45.65a7.63 7.63 0 0 0-2.982-.716 1.701 1.701 0 0 1-.58-.146c-.739-.581-9.27-2.152-12.404-2.856-3.132-.704-14.669-.716-18.801.43-4.133 1.146-5.696-.43-7.69 1.286-1.993 1.716-2.55 1-2.266 2.572.075.403.204.794.383 1.163-1.301.442-1.639.11-2.661 1.397-1.163 1.43-1.854 1.43-1.564 2.571.29 1.14-.145 1.856 1.564 2.287 1.063.256 2.14.45 3.225.582.448 2.478.221 4.392.622 6.4a8.477 8.477 0 0 0 1.285 3.264c.58 2.001-.855 1.716 1.854 2.856 2.708 1.14 5.126 1.001 6.393 3.142 1.267 2.141 0 3.718.994 5.289.993 1.57 3.417 1.856 10.252 1.431 6.835-.425 15.524-3.287 17.093-5.72 1.57-2.431 1.162-12.415 1.993-15.842a18.84 18.84 0 0 0 .657-3.898c2.645-1.338 4.475-2.752 4.475-3.677 0-.925-.988-1.39-1.842-1.816zM54.8 49.651s1.04-.919 1.744-1.652l.15.21c0 1.832-.377 3.042-.185 4.654a8.09 8.09 0 0 1-1.564-.448c-1.22-.477-.145-2.764-.145-2.764zm18.226 1.286c-8.45-.907-13.106-1.856-14.1-2.571-.709-.507-1.633-2.392-2.057-2.328-.168-.523 0-.948 1.203-1.222 2.563-.581 12.537-2.14 18.372-1.856 5.835.286 10.961-.488 14.803.827 2.72.913 4.3 1.46 5.091 1.81 0 .127.145.26.581.337l.07.715.052.35c-1.726.61-16.39 4.782-24.02 3.932l.005.006zm27.49-3.002a6.587 6.587 0 0 1-2.876 1.286c0-.087-.058-.175-.087-.262l.104-1.1s-.33-.36.146-1.309c1.244.262 1.424.1 1.424.1.86.581 2.423.284 1.284 1.285h.006z"/>
        <path fill="#91C020" d="M61.775 73.501c-.383-1.902-1.301-1.786-1.778-3.124-.477-1.338-1.331-1.048-3.232-.762-1.9.285-2.045-.553-2.993.401-.947.954-4.498.582-5.085-.064-1.302-1.46-1.163-1.111-1.628-1.31-.807-.342-3.202.495-4.347.583a1.04 1.04 0 0 0-.726.314 2.906 2.906 0 0 1 1.825 1.164c.714.93.912 3.211.75 3.24a9.913 9.913 0 0 1-2.43.652c-2.906.198-4.58.582-4.841-.687-.11-.168-.46-2.67-.651-2.816a1.423 1.423 0 0 0-2.087.297 2.246 2.246 0 0 0-.215.338l.535-.379c.432.05.839.232 1.162.524l-.145.076c.203.157.279.168.314.145.26.53.26 1.151 0 1.682-.262.39 0 0-.523 0s-.895-.379-1.529-.64c0 0-.854-1.164-.86-1.164a2.27 2.27 0 0 1-1.058 1.745c-.581.379-.465 1.112-1.51.92-1.047-.192-1.332-.477-2.372-.093-1.04.384-1.163 1.233-1.163 2.193 0 .192 2.47.762 4.069 1.524 1.598.763 4.068.955 6.457.955 2.389 0 9.212-.478 11.112-.955 1.22-.308 5.58-1.163 8.236-1.163a5.847 5.847 0 0 0 1.93-.21c-.326-.134-.646-.366-1.087-.547-.646-.261-.128-1.163-.128-1.163l1.418-1.164s1.406.582 1.807 1.292c.1.18.161.377.18.582a2.847 2.847 0 0 0 .593-2.386zm-19.929 4.34c-.261.39-1.04 0-1.546 0-.505 0-.9-.39-1.546-.645-.645-.256-.128-1.164-.128-1.164l1.418-1.164s1.407.582 1.808 1.292c.26.53.26 1.151 0 1.681h-.006zm10.63-3.845c-.261.39-1.04 0-1.546 0-.505 0-.9-.39-1.546-.646-.645-.256-.128-1.164-.128-1.164l1.419-1.163s1.406.581 1.807 1.291c.26.53.26 1.151 0 1.682h-.006z"/>
        <path fill="#F49849" d="M52.47 72.355c-.76-.762-.854-.954-2.086-.384-1.232.57-1.808.954-.854 1.524.953.57 1.232.582 1.993.384.508-.143.99-.369 1.424-.669l-.477-.855zM41.079 75.119c-1.04.093-1.424.285-1.808.86-.383.577-.383 1.24.093 1.333.477.093.582.285 1.163.093.436-.172.85-.396 1.232-.669l.093-.762-.366-.861h-.39l-.017.006zM35.988 72.489c-.663-.861-.192-1.81-1.04-1.432a4.37 4.37 0 0 0-1.239.768l-.383 1.81 1.162.762 1.424-.477.076-1.431zM59.282 74.473l-1.04.86s-.384.67.093.862c.476.192.761.477 1.162.477.401 0 .947.285 1.162 0a1.41 1.41 0 0 0 0-1.24 3.557 3.557 0 0 0-1.377-.96z"/>
        <path fill="#C6C6C6" d="M93.573 90.84c.476-.583 2.086-2.194 1.04-1.81-1.046.384-3.04 1.431-3.04 1.431s-5.51 4.573-6.358 5.428c-.849.856-1.523 1.24-1.232 1.903.29.663 1.424 1.047 2.371.67.948-.38 5.231-4.86 5.231-4.86l1.988-2.763zM86.273 99.8c-.477-.763-.762-1.24-1.523-.955-.761.285-.581-.192-2.185 1.164-1.604 1.355-4.173 2.38-4.749 3.81-.575 1.432-.854 1.164-.854 2.857 0 1.693.285 2.38.581 2.857.297.477-.093 2.572 1.523.582 1.616-1.99 4.068-5.714 4.65-6.19a29.734 29.734 0 0 0 2.37-3.142l.187-.984z"/>
        <path fill="#E0D5C0" d="M102.988 89.018c-1.616-.093-1.523-.86-3.127-.093a6.023 6.023 0 0 0-3.04 2.479c-1.04 1.43-1.33 1.524-1.232 2.856.1 1.333.477 1.24-.383 2.38s-8.927 11.34-9.88 12.672c-.954 1.332-1.901 1.903-.663 2.572s1.616 1.163 3.127-.285c1.51-1.45 4.934-3.625 6.172-5.819 1.238-2.193 3.702-6.766 5.696-7.907 1.993-1.14 5.033-2.763 6.358-4.48 1.325-1.716 1.232-2.286.477-2.763-.756-.477-3.505-1.612-3.505-1.612z"/>
        <path fill="#91C020" d="M68.61 96.844c-.58-.763-2.086-.67-2.848-.192-.761.477-.854.477-.947 1.239-.093.762-.285 1.716-.285 1.716l-1.424 1.333s-1.424.285-2.086-.093c-.663-.379-.477-1.048-1.709-.384-1.232.663-1.993.954-2.185 1.716-.192.762-1.232 1.332-.384 1.955.849.622 1.808 1.286 2.848 1.094a12.458 12.458 0 0 0 2.563-.955l1.232.67 1.616 1.047s2.656-1.047 2.755-1.333c.099-.285.285-1.43.285-1.43s.093-1.048.191-1.432c.1-.384-.662.669.285-.762.948-1.432.948-1.81.948-1.81l-.855-2.38z"/>
        <path fill="#F49849" d="M75.829 94.08c-.855-.192-1.331-.762-2.279-.285a1.42 1.42 0 0 0-.807 1.431 1.019 1.019 0 0 0 .046 1.431c.663.862.581 1.164 1.377 1.164.797 0 1.564-1.164 1.564-1.164l.099-2.577zM80.008 95.604c-1.523.093-1.71.285-1.994.67-.285.383.71 2.38.71 2.38s1.47.284 2.132-.385c.663-.669 1.232-.861 1.232-1.431a1.164 1.164 0 0 0-.523-.908l-1.557-.326zM77.16 90.461c-.384-.192-1.232-.669-1.71-.192a1.99 1.99 0 0 0-.662 1.431c0 .477.477.861 1.04 1.048a5.6 5.6 0 0 1 1.163.581s.947.763 1.331.67c.384-.094 1.424-.286 1.424-.286l.663-.86.284-1.048-1.07-.68-1.127-.379-.761.192-.575-.477zM81.716 85.888a1.842 1.842 0 0 0-1.615-.861c-.663 0-.948-.192-1.331.477a2.388 2.388 0 0 0-.093 1.617l.947 1.048.854.808.994.716s1.947.384 1.744.762c-.204.378-1.424.861-1.424 1.618 0 .756.285 2.856 1.523 2.664a3.679 3.679 0 0 0 2.086-1.332s.093-.762.093-1.24a4.688 4.688 0 0 0-.285-1.238s.384-.862.855-.955l1.522-.285 1.232-1.524a5.862 5.862 0 0 0-.662-1.431 3.811 3.811 0 0 0-1.523-.763c-.476-.093-.854 1.048-.854 1.048l-1.424.093c-.24-.199-.544-.3-.854-.285h-.948l-.837-.937z"/>
        <path fill="#FBDF95" d="M113.182 88.937c-2.563-1.717-21.789-6.72-23.073-7.15-1.285-.431-3.848-1.002-3.848-1.002-4.272.286-11.112 5.72-11.112 5.72S59.195 96.937 57.074 98.368c-2.122 1.431-3.703 2.426-5.411 4.148-1.71 1.723-1.854 1.001-1.994 2.717-.14 1.717-.43 1.856 0 3.433.43 1.577-1.424 2.141 2.278 3.433 3.703 1.292 25.213 11.718 29.484 10.007 4.272-1.71 22.086-17.152 22.086-17.152s9.677-8.582 10.398-10.583c.72-2.002 1.842-3.724-.733-5.434zM74.3 90.507c.145-1 2.278-.86 2.278-.86.783.157 1.547.397 2.279.715.598.288 1.218.527 1.854.716l.854-1.286c-.253-.331-.6-.58-.994-.716a9.084 9.084 0 0 1-1.424-.581L77.88 86.79c.353-.687.74-1.355 1.163-2.002.58-.86 1.563.285 1.563.285l1.564.582a2.248 2.248 0 0 0 1.854.861c1.284 0 .58.861 1.284.285.703-.576.43-1 1.709-1.163 1.278-.163 1.162.285 2.133 1.286l-.146 1.163-.145.43a8.072 8.072 0 0 0-.285 1.432c-.128.861-.58.43-1.697.861-1.116.43-1.162.716-1.162.716L86 92.812a9.174 9.174 0 0 1-.71 1.57c-.43.716-.993 0-2.132.146-1.14.145-1.442-2.6-1.727-2.019-.284.582-.145 1.164-.993 1.431-.887.25-1.8.394-2.72.43a1.249 1.249 0 0 1-1.424-1.163 5.094 5.094 0 0 1-1.564-.582c-.703-.43-.58-1.163-.418-2.14l-.012.023zm8.137 6.72a2.45 2.45 0 0 1-.994 1.572c-.581.424-1.284 0-2.708-.146-1.424-.145-.71-1.716-.71-1.716s.71-.861 1.163-1.432c.453-.57.994-.581 2.418.431 0 0 .866.861.866 1.292h-.035zm-13.949 5.72s.146 1.286.146 2.001c0 .716-1.71 1.164-2.564 1.717-.854.552-2.133-.716-2.133-.716s-1.162-1-1.854-.861a7.92 7.92 0 0 1-2.847.285c-1.285-.145-1.854-.861-2.848-1.431-.994-.57-.285-1.431-.146-2.287.14-.855.855-1.163 1.564-1.716.709-.553 2.708 0 3.417 0a3.363 3.363 0 0 0 2.279-1c.43-.583-.146-1.287 0-2.002.145-.716 1.487-1.693 1.68-1.833-.065.064-.076.285 2.446.413 2.993.146 1.424 1.431 1.424 1.431l.692 2.717a7.605 7.605 0 0 1-1.564 2.287l.308.995zm6.975-5.428a3.165 3.165 0 0 1-1.285.285c-.709 0-1.563-2.141-1.424-2.572.14-.43 1.163-.716 1.163-.716a1.161 1.161 0 0 1 1.708.285l-.162 2.718zm4.44 13.026s-2.087.384-3.325-.581c-1.237-.966-.662-1.81.192-4.288.855-2.479 3.487-3.811 3.487-3.811s3.435-2.578 3.807-3.253c.372-.675-.761-.192-.662-1.163.099-.972.947-1.525 3.324-3.526 2.377-2.002 7.881-5.906 9.3-6.284l.383-.093c.21.628.063 1.321-.384 1.81-.761.954-4.748 5.719-6.079 6.481-1.331.762-10.031 14.708-10.031 14.708h-.012zM107.725 93.3c-.762 1.048-5.318 4.003-5.318 4.003a39.582 39.582 0 0 0-3.702 2.194c-.663.582-1.424 3.24-3.313 5.335-1.89 2.095-3.61 3.718-4.749 5.05-1.139 1.333-1.04 2.194-3.487 3.334-2.447 1.14-3.04-.192-3.324-2.001-.285-1.81.581-1.525 3.04-4.288 2.458-2.764 4.463-5.05 5.695-7.151 1.232-2.1 1.709-2.857 2.087-4.381.377-1.524 0-1.81 1.04-3.334a19.37 19.37 0 0 1 4.173-4.189c1.792.096 3.571.35 5.318.762a8.75 8.75 0 0 1 3.127 1.717s.197 1.902-.581 2.95h-.006z"/>
        <path fill="#FBDF95" d="M99.762 91.299c.446-.584.932-1.136 1.453-1.652-1.127-.635-5.23 3.525-4.696 3.84.535.314 3.063-1.833 3.243-2.188zM101.872 91.578l1.331-1.355.052-.367c-1.162-.419-5.655 3.49-4.585 4.3 1.07.808 3.202-2.578 3.202-2.578zM101.669 92.847s-1.796 1.949-1.581 2.164c.215.215 1.215-.198 1.215-.198l.15-.128 3.046-2.961.657-1.106v-.227c-1.081-.238-3.487 2.456-3.487 2.456z"/>
        <path fill="#C6C6C6" d="M69.447 46.889c-.64.314-.505.669.07.494.575-.174 3.632-.756 4.742-.628 1.11.128.675.262 1.884.756 1.208.495 1.412.937 2.423.314a6.562 6.562 0 0 1 3.964-.849c1.162.221 3.534.18 4.574.716 1.04.535 1.744 1.024 1.616.314a.82.82 0 0 0-.872-.67s-5.62-1.116-6.76-.89c-1.139.227-2.051 1.118-3.062 1.118-1.012 0-1.21-.315-1.982-.67a7.02 7.02 0 0 0-3.232-.523 18.08 18.08 0 0 0-2.522.355l-.843.163z"/>
        <path fill="#C6C6C6" d="M84.756 48.326a1.407 1.407 0 0 0-.64-.524c-1.162.297-1.377 1.251-.185 1.31 1.191.057.982-.455.825-.786zm-.262.262c0 .21-.209.18-.494.21-.284.028-.459 0-.482-.263-.023-.262.087-.32.628-.366 0 0 .354.22.354.43l-.006-.011zM74.881 47.936a1.37 1.37 0 0 0-.866-.355c-.709.116-.47 1.106-.47 1.106.825.71 1.162.669 1.418.116.255-.553.145-.547-.082-.867zm-.395.937c-.273.116-.47-.041-.581-.314-.11-.274-.233-.524.198-.629 0 0 .47.117.552.396.081.28.122.436-.151.553l-.018-.006zM65.547 46.301c-.168.18-.046.582-.046.582.261.471.895.262.895.262.308-.582.198-.838-.262-.966-.459-.128-.412-.047-.587.122zm.738.21a.245.245 0 0 1-.08.418c-.17.1-.309.192-.495-.098 0 0 0-.326.151-.396a.302.302 0 0 1 .419.07l.005.006zM91.742 46.545a1.197 1.197 0 0 0-.738-.296c-.581.099-.401.919-.401.919.703.582 1.005.582 1.203.099.197-.483.133-.466-.064-.722zm-.331.757a.372.372 0 0 1-.506-.262c-.105-.233-.203-.425.169-.524 0 0 .4.1.47.326.07.227.1.36-.133.46zM81.577 48.396c.064-.262-.215-.64-.215-.64-.401-.373-.837.128-.837.128 0 .75.186.942.581.878.395-.064.407-.105.47-.366zm-.686.104a.309.309 0 0 1-.14-.413l.035-.052c.1-.175.175-.332.442-.116 0 0 .157.32.04.47-.116.152-.185.234-.383.117l.006-.006z"/>
        <path fill="#E0D5C0" d="M44.293 72.995a5.335 5.335 0 0 0-1.744-2.409 16.103 16.103 0 0 0-2.37-1.53 6.2 6.2 0 0 1-1.884-1.164 24.616 24.616 0 0 1-1.959-2.327l-5.672-4.974s-2.133-2.328-2.645-2.735c-.511-.407-1.702-.995-2.103.151-.401 1.146-.675 1.385-.28 2.141.326.677.615 1.37.867 2.077a8.178 8.178 0 0 1 2.743 2.02c1.598 1.623 3.034 2.094 3.911 3.025.878.93 2.563 2.443 3.174 3.34.61.895.482 1.477.993 2.397.512.919-.58 1.786.785 1.42 1.366-.367 1.093-.868 2.418-.676 1.325.192 1.11.89 2.162.495 1.052-.396 1.674-.105 1.5-.745-.175-.64.127-.494.127-.494"/>
        <path fill="#1A1A1A" d="M68.174 72.727a2.597 2.597 0 0 1-.215-.663 3.972 3.972 0 0 0-.128-.524 2.544 2.544 0 0 0-.459-.919c-.162-.192-.348-.366-.5-.582a7.036 7.036 0 0 0-.93-.919 3.928 3.928 0 0 0-1.319-.785c-.128-.047-.244-.1-.366-.152a6.725 6.725 0 0 0-.936-.326l-2.01-.546c-.669-.18-1.773-.425-2.453-.582l-.965-.221a24.455 24.455 0 0 0-3.33-.477c-.785-.047-1.564-.041-2.325-.059-.536.004-1.071-.019-1.604-.07a4.72 4.72 0 0 0-.855-.034 2.642 2.642 0 0 1-.354 0c-.477-.035-1.04.075-1.523.035-.279 0-.534.15-.813.122a7.861 7.861 0 0 0-1.54.128h-1.29c-.687.035-2.68.343-3.366.39-.523.029-.744.058-1.261.098l-.581.053c-.01.235.04.47.145.68.308-.034.622-.063.936-.07.313-.005.43-.04.784-.07.227 0 .442-.069.669-.08.226-.012.447 0 .674 0 .581 0 2.493-.326 3.086-.361a2.41 2.41 0 0 1 .668.04c.262.059.442-.14.704-.122.447.035.668-.174 1.115-.14.291 0 .454-.07.744-.046.291.023.523 0 .739 0 .347 0 .694.02 1.04.058.261 0 .523.035.784.053a30.29 30.29 0 0 0 1.779.075c.555 0 1.11.03 1.662.093.18 0 .372 0 .581.047.864.092 1.721.231 2.57.419.522.116 1.04.21 1.586.29.556.091 1.105.217 1.645.379.366.11.744.186 1.116.29.523.146 1.04.286 1.563.449a9.95 9.95 0 0 1 1.04.407c.228.102.444.227.645.372.43.309.843.64 1.268.96l.32.239c.38.284.645.698.743 1.164a.262.262 0 0 1 0 .157.524.524 0 0 0 0 .419.215.215 0 0 1-.035.15c-.15.245-.296.49-.453.728-.112.161-.24.31-.384.442-.275.234-.58.43-.906.582l-1.04.495-.111.046c-.671.338-1.37.62-2.087.844l-.738.238-1.964.582a6.478 6.478 0 0 1-.581.134.226.226 0 0 1-.152-.029.157.157 0 0 1 0-.11.14.14 0 0 0-.11-.146l-.523-.163c-.14-.046-.279-.087-.407-.145a.186.186 0 0 1-.093-.297c.06-.1.129-.195.204-.285a.349.349 0 0 1 .075-.07c.208-.13.38-.31.5-.524a.5.5 0 0 1 .668-.21c.178.047.359.08.54.1a.21.21 0 0 1 .164.11c.142.316.325.612.546.879.066.083.126.17.18.262a.11.11 0 0 0 .157 0 .221.221 0 0 0 0-.192.582.582 0 0 0-.087-.175 4.52 4.52 0 0 0-.314-.355.838.838 0 0 1-.198-.29c0-.065-.052-.123-.075-.181a.523.523 0 0 0-.39-.308h-.04l-.785-.14a.65.65 0 0 0-.523.105 4.61 4.61 0 0 0-.796.71c-.174.216-.279.48-.302.756a.582.582 0 0 0 0 .227c.06.212.2.394.389.506a.982.982 0 0 1 .163.11c.029.026.047.061.052.1a.116.116 0 0 1-.093.116c-.14.04-.279.087-.418.116l-1.314.268-1.744.331c-.482.088-1.278.216-1.743.274-.465.058-.977.145-1.47.215-.68.093-1.355.204-2.035.285-.68.082-1.43.204-2.144.309-.715.104-1.46.128-2.191.203l-.582.064a4.714 4.714 0 0 1-.58 0 2.398 2.398 0 0 0-.582.047c-.11.022-.22.035-.331.04-.523 0-1.017.1-1.535.076h-.174c-.615.084-1.234.134-1.854.151h-1.32c-.238 0-.627 0-.865-.04a19.571 19.571 0 0 0-1.22-.07 8.401 8.401 0 0 1-.983-.122l-1.372-.157h-.046c-.953-.17-1.907-.332-2.854-.524-.647-.13-1.282-.31-1.9-.541a10.92 10.92 0 0 1-1.163-.46c-.226-.11-.447-.215-.68-.314a6.284 6.284 0 0 0-.65-.238 3.19 3.19 0 0 1-.925-.414 3.34 3.34 0 0 0-.616-.32 1.872 1.872 0 0 1-.785-.581 14.632 14.632 0 0 1-.36-.477c-.215-.303-.163-.355-.134-.722.006-.105.017-.21.035-.314 0-.192-.04-.093.151-.175a.22.22 0 0 0 .1-.07c.162-.19.3-.398.412-.622.081-.214.201-.411.354-.582a8.03 8.03 0 0 1 1.32-1.198c.215-.17.436-.332.662-.49a10.325 10.325 0 0 1 1.564-.907c.58-.262 1.232-.5 1.854-.739a20.326 20.326 0 0 1 2.069-.645l.261-.064a1.887 1.887 0 0 0-.075-.443c-.128-.46-.326-.128-.326-.128l.041-.093c-.651.153-1.292.347-1.918.582-.812.284-1.61.608-2.389.972a11.21 11.21 0 0 0-1.54.96c-.279.21-.552.419-.83.628a11.97 11.97 0 0 0-1.32 1.164 1.949 1.949 0 0 0-.395.547c-.194.393-.331.813-.407 1.245-.032.197-.08.392-.146.582-.01.472.018.945.082 1.413.035.239.093.635.11.879.014.289.059.576.134.855.116.413.215.832.337 1.24.122.407.227.808.308 1.221.174.856.482 1.664.709 2.502 0 .093.076.239.11.332.132.29.243.59.332.896.022.077.054.15.093.22a.419.419 0 0 0 .075.088.116.116 0 0 0 .146 0l.116-.21a.437.437 0 0 0 0-.418c-.076-.18-.145-.361-.238-.524a3.674 3.674 0 0 1-.233-.582l-.163-.488c-.122-.34-.21-.69-.261-1.048a17.727 17.727 0 0 0-.523-2.374c-.087-.32-.163-.645-.227-.965a5.987 5.987 0 0 1-.168-1.013 3.063 3.063 0 0 0-.064-.39 1.165 1.165 0 0 1 0-.157.099.099 0 0 1 .04-.052.035.035 0 0 1 .035 0c.1.103.193.212.28.326.2.276.471.495.784.634.255.116.503.246.744.39.268.173.565.297.877.366.295.067.58.17.849.309.331.163.674.314 1.017.46.437.193.885.36 1.342.5.7.206 1.41.371 2.128.494l.43.082c.25.046.494.104.738.134.244.029.581.075.907.093.412 0 .819.035 1.232.075.456.06.918.072 1.377.035.238 0 .477-.035.71-.052l.83-.053.581-.04c.118 0 .234.011.35.035.348.07.697.075 1.04.128.324.034.651.034.976 0 .159-.009.318-.009.477 0 .316.014.634-.005.947-.059.273-.052.552-.075.825-.098l1.07-.076c.105.002.21-.01.313-.035.23-.067.465-.104.704-.11.105-.004.21-.016.313-.035.35-.077.706-.12 1.064-.128.318-.024.633-.074.942-.152a5.72 5.72 0 0 1 .58-.099l1.303-.168a.766.766 0 0 0 .15-.035l.466-.082 1.214-.198c.407-.058.785-.128 1.163-.168.54-.058 1.07-.192 1.61-.21h.058c.581-.157 1.162-.203 1.778-.326l1.163-.226c.285-.059.58-.123.866-.158.14 0 .279-.058.412-.087.297-.064.582-.128.89-.215.58-.169 1.162-.297 1.743-.495.39-.128.785-.244 1.163-.372l1.61-.582c.226-.081.441-.18.674-.262a7.65 7.65 0 0 0 .953-.39l.395-.197a5.028 5.028 0 0 0 1.598-1.286l.076-.076h.035c.02.012.034.03.04.053 0 .116-.04.232-.075.349-.14.567-.314 1.124-.523 1.67-.163.401-.28.826-.448 1.227a10.352 10.352 0 0 0-.58 1.693c-.094.402-.24.786-.373 1.164-.144.402-.259.814-.343 1.233a5.34 5.34 0 0 1-.15.623c-.034.152-.082.3-.146.442-.134.244-.28.483-.424.722-.146.238-.291.442-.436.663a1.03 1.03 0 0 1-.454.582c-.209.157-.43.308-.65.46-.221.15-.32.191-.471.296-.401.28-.827.522-1.273.721-.8.376-1.62.704-2.459.984l-.302.11a8.926 8.926 0 0 1-1.162.39c-.454.122-.907.233-1.354.367-.67.192-1.349.35-2.035.47-.43.077-.86.164-1.284.234-.337.058-.674.128-1.017.163-.523.052-1.04.128-1.564.197l-.627.175-.396.058c-.156 0-.313.058-.47.076-.262 0-.523.029-.785.075a9.796 9.796 0 0 1-.866.105c-.395.035-.784.082-1.162.14-.378.058-.895.081-1.343.116-.29 0-.581.03-.872.058-.29.03-.441.07-.668.093-.436.041-.866.076-1.302.105l-2.418.128H36.272c-.395 0-.784-.052-1.162-.07a6.967 6.967 0 0 1-1.162-.11l-.814-.18a1.341 1.341 0 0 0-.232 0 .105.105 0 0 0-.088.116v.064c.163.211.386.367.64.448.126.038.254.07.383.093.234.04.463.109.68.203.114.04.234.058.355.053h.918c.134-.01.268-.01.401 0 .31.037.625.037.936 0h.116c.343.025.686.025 1.029 0 .166-.01.333-.01.5 0 .22.015.442.015.662 0h.843c.395 0 .785-.03 1.162-.058a11.71 11.71 0 0 0 1.163-.076c.104-.009.21-.009.314 0h.674l1.836-.105c.262 0 .669-.052.919-.093.25-.04.58-.07.837-.099l1.563-.18.18-.035c.238-.05.479-.083.72-.099.106-.008.211-.023.315-.046.186 0 .372-.07.58-.082.18-.014.355-.05.524-.11.178-.057.36-.094.546-.111.21-.027.419-.06.628-.099l.488-.105c.29-.058.767-.15 1.058-.22l.662-.146c.093 0 .186 0 .262-.047.581-.14 1.122-.279 1.686-.43.315-.084.624-.191.924-.32l.186-.082a2.77 2.77 0 0 1 .453-.145c.3-.06.597-.135.89-.227.58-.186 1.12-.39 1.679-.582a8.389 8.389 0 0 0 1.988-.983c.206-.127.4-.274.58-.437.081-.072.169-.137.262-.192l.337-.209a3.03 3.03 0 0 0 1.163-1.123 5.29 5.29 0 0 0 .29-.524c.088-.195.224-.365.396-.494a.46.46 0 0 0 .162-.186c.088-.219.156-.445.204-.675a4.698 4.698 0 0 1 .58-1.571c.215-.35.325-.753.32-1.164.023-.258.083-.51.18-.75.059-.175.123-.35.175-.524.087-.28.169-.582.262-.838s.15-.395.22-.582a16.8 16.8 0 0 0 .669-2.856 1.363 1.363 0 0 0-.14-.85z"/>
        <path fill="#1A1A1A" d="M9.264 97.676a2.732 2.732 0 0 1 .058-1.024c.035-.157.076-.309.11-.466.083-.36.235-.7.448-1 .157-.21.297-.443.436-.664.278-.421.63-.788 1.04-1.082a26.49 26.49 0 0 1 2.267-1.536c.692-.413 1.378-.838 2.075-1.25.192-.117.395-.216.581-.315l1.134-.582c.186-.099.377-.198.58-.28 1.018-.453 1.989-.988 2.953-1.541.448-.262.901-.5 1.355-.756l.523-.309c.54-.331 1.11-.616 1.668-.919a20.844 20.844 0 0 0 2.173-1.31c.785-.523 1.529-1.093 2.284-1.651a3.42 3.42 0 0 0 1.04-1.228.076.076 0 0 1 .082-.064.186.186 0 0 1 .081.076l.059.104c.036.074.11.123.191.128.105 0 .21 0 .314.03.29.017.578.072.855.162.127.041.261.088.383.117.19.052.385.087.581.104a7.937 7.937 0 0 1 1.872.28c.18.044.362.079.546.104h.198c.263.04.484.218.581.466.029.06.045.125.046.192a.769.769 0 0 1 0 .198 4.374 4.374 0 0 0-.034 1.163c.052.786.116 1.571.174 2.328v.197a.151.151 0 0 1-.128.17h-.04a.395.395 0 0 0-.221.08c-.176.13-.373.231-.582.297l-.924.355-.215.1c-.238.115-.476.232-.709.354a23.69 23.69 0 0 0-2.638 1.536c-.262.192-.535.384-.808.582l-1.163.785c-.261.175-.5.344-.738.524-.581.477-1.255.884-1.877 1.338-.36.262-.738.524-1.081.809-.128.11-.28.198-.419.297-.465.325-.93.657-1.4.983-.471.326-1.081.762-1.657 1.094-.104.058-.203.122-.314.174a4.777 4.777 0 0 0-1.162.75c-.122.105-.261.175-.39.274-.127.1-.458.262-.65.454a5.475 5.475 0 0 1-.622.425 5.352 5.352 0 0 1-.657.442c-.093.052-.192.093-.279.151-.137.08-.269.167-.395.262a3.597 3.597 0 0 1-.994.582c-.261.105-.54.215-.82.302a4.72 4.72 0 0 1-1.563.221 5.354 5.354 0 0 1-1.627-.308l-.523-.169a3.277 3.277 0 0 1-1.099-.616 4.13 4.13 0 0 1-.668-.733 1.52 1.52 0 0 1-.302-.768c-.007-.14-.003-.28.011-.42zm12.24-5.312a.378.378 0 0 1 .064-.1c.366-.302.727-.616 1.11-.901.384-.285.866-.582 1.302-.908.645-.436 1.302-.867 1.947-1.309.297-.198.581-.401.89-.582.72-.473 1.423-.95 2.11-1.43.58-.402 1.162-.81 1.743-1.165.162-.093.314-.192.47-.29l.157-.117a.105.105 0 0 0 0-.145 2.219 2.219 0 0 0-.668-.25 6.731 6.731 0 0 1-1.465-.483 3.428 3.428 0 0 1-.668-.344.261.261 0 0 0-.331 0l-.262.18-1.563 1.095c-.446.309-.91.59-1.39.843-.708.378-1.412.786-2.115 1.164-.505.285-1.005.582-1.51.878-.884.507-1.744 1.013-2.698 1.443-.226.105-.459.21-.685.314-.477.233-.948.472-1.419.71-.261.14-.54.28-.802.442-.709.437-1.4.902-2.121 1.327a22.3 22.3 0 0 0-2.086 1.443c-.29.211-.546.464-.762.75-.29.396-.581.81-.825 1.216v.035a3.494 3.494 0 0 0-.314 1.705.937.937 0 0 0 .203.512c.378.486.889.85 1.47 1.047.228.076.454.146.68.216.35.127.721.189 1.093.18h.239c.174.01.349.01.523 0 .302-.03.581-.076.9-.122h.117c.261-.105.54-.21.808-.332.267-.122.61-.314.941-.425.061-.025.12-.056.175-.093l1.232-.721c.215-.128.442-.233.662-.355.105-.052.215-.105.314-.175l.988-.663a26.13 26.13 0 0 1 1.337-.855c.174-.096.343-.201.506-.314l1.592-1.117.918-.629c.303-.21.547-.372.814-.582.46-.337.913-.686 1.372-1.018l1.453-1.094c.436-.32.883-.628 1.342-.919.172-.098.334-.213.483-.343.24-.211.503-.395.784-.547l1.22-.745c.11-.058.171-.18.152-.302 0-.227-.035-.448-.058-.675l-.157-1.263a.582.582 0 0 0 0-.075.151.151 0 0 0-.163-.134h-.046c-.1.04-.192.093-.28.145l-.453.25-.348.187c-.49.28-.961.592-1.413.93-.665.504-1.358.97-2.075 1.397-.116.064-.22.145-.33.215-.286.186-.582.384-.867.582a1.01 1.01 0 0 1-.354.157.918.918 0 0 0-.36.151 3.126 3.126 0 0 1-.408.25c-.168.08-.33.173-.482.28a1.418 1.418 0 0 1-.424.21 1.162 1.162 0 0 0-.419.226c-.466.325-.951.622-1.453.89-.107.062-.22.113-.337.152zm13.897-6.837c0-.395-.047-.785-.076-1.163 0-.157-.058-.227-.227-.11l-.261.185c-.196.156-.409.291-.634.402-.098.046-.186.099-.279.151-.261.151-.523.297-.784.471-.262.175-.546.32-.82.483-.273.163-.325.192-.232.582a.285.285 0 0 0 0 .076c.075.28.133.567.174.855.072.283.094.576.064.867a.175.175 0 0 0 0 .04.105.105 0 0 0 .116.1l1.087-.582.39-.198 1.162-.524.215-.105a.262.262 0 0 0 .134-.226v-.239c0-.35-.053-.698-.07-1.041l.04-.024zm-3.302-.442c.076-.035.163-.064.245-.105.261-.14.505-.285.761-.424l1.244-.693c.079-.047.155-.099.226-.157a.14.14 0 0 0 .059-.093.163.163 0 0 0-.07-.081h-.076a4.453 4.453 0 0 0-1.32-.216 3.925 3.925 0 0 1-1.318-.238 2.857 2.857 0 0 0-1.087-.186.778.778 0 0 1-.454-.11l-.174-.1a.11.11 0 0 0-.157 0 2.908 2.908 0 0 1-.918 1l-.093.07c-.145.117-.14.181 0 .263l.075.029c.353.15.722.261 1.099.331.287.052.566.14.831.262.098.044.199.079.302.105.166.045.325.113.471.203.055.037.113.068.174.094l.198.029-.018.017zM58.218 69.155c-.088.01-.175.028-.261.052a.506.506 0 0 0-.442.442.844.844 0 0 1-.052.192.157.157 0 0 1-.128.134.186.186 0 0 1-.163-.099c-.064-.081-.116-.18-.18-.261a.325.325 0 0 0-.273-.134.668.668 0 0 0-.523.227.5.5 0 0 0-.14.36c.006.105.006.21 0 .315a.11.11 0 0 1-.18.064 2.909 2.909 0 0 1-.215-.286.412.412 0 0 0-.447-.18.546.546 0 0 0-.43.262.308.308 0 0 1-.204.169.651.651 0 0 0-.343.261.43.43 0 0 0-.104.291c-.007.105-.007.21 0 .315a.163.163 0 0 1-.093.162.186.186 0 0 1-.186-.034.384.384 0 0 1-.157-.222 1.922 1.922 0 0 1 0-.866.262.262 0 0 1 .081-.128.407.407 0 0 1 .134-.076 1.68 1.68 0 0 0 .47-.285c.261-.216.606-.3.936-.227l.151.035a.232.232 0 0 0 .146-.047c.053-.058.102-.12.145-.186.148-.18.353-.303.581-.349a.83.83 0 0 1 .506.047c.122.046.227.174.36.133.106-.05.208-.11.302-.18.105-.058.215-.105.326-.151a.819.819 0 0 1 .43-.041c.4.038.77.225 1.04.524a.482.482 0 0 0 .343.163c.13.016.258.051.378.104a.895.895 0 0 1 .448.437c.081.14.1.31.052.465a.355.355 0 0 0 .087.367c.097.112.185.233.262.36.038.055.06.12.063.187-.003.21-.02.42-.052.628a.378.378 0 0 1-.232.302.151.151 0 0 1-.18 0l-.117-.104a.215.215 0 0 1-.029-.367c.079-.106.145-.222.198-.343a.262.262 0 0 0 0-.233.145.145 0 0 0-.157-.081l-.18.087a.116.116 0 0 1-.14-.052.64.64 0 0 1-.046-.675c.057-.105.106-.214.145-.326a.239.239 0 0 0-.087-.285.465.465 0 0 0-.331-.117.244.244 0 0 0-.227.128c-.037.07-.078.138-.122.204a.151.151 0 0 1-.215 0 .373.373 0 0 1-.116-.43c.021-.049.047-.095.075-.14a.128.128 0 0 0 0-.151.883.883 0 0 0-.907-.361zM28.688 74.257c.263-.006.527.02.784.076.092.022.18.058.262.105.07.039.138.082.203.128a.186.186 0 0 0 .221 0 1.97 1.97 0 0 1 .28-.151 2.27 2.27 0 0 1 .93-.158.534.534 0 0 1 .36.134l.145.134c.112.1.177.24.18.39v.14c0 .11-.03.192-.093.197a.215.215 0 0 1-.192-.116 1.467 1.467 0 0 1-.104-.21.262.262 0 0 0-.25-.168 1.405 1.405 0 0 0-.552 0 3.35 3.35 0 0 1-.43.058.163.163 0 0 0-.134.175c0 .104.04.209.046.314a.344.344 0 0 1-.04.151.105.105 0 0 1-.14.03.488.488 0 0 1-.087-.082 4.69 4.69 0 0 1-.22-.332.337.337 0 0 0-.216-.157c-.087 0-.18 0-.262-.052a1.162 1.162 0 0 0-1.354.651c-.2.295-.382.602-.546.92a.128.128 0 0 1-.174.046.547.547 0 0 1-.244-.733c.145-.282.306-.556.482-.82.176-.256.42-.458.703-.582.14-.058.29-.088.442-.088zM44.99 75.933a.395.395 0 0 0 .355-.11c.22-.181.5-.274.785-.262.146.006.29-.04.406-.128a1.638 1.638 0 0 1 1.134-.262c.252.033.484.157.65.349.08.093.108.22.076.337a.116.116 0 0 1-.14.082h-.034a.813.813 0 0 0-.71-.175 1.376 1.376 0 0 0-.423.082.239.239 0 0 0-.157.21.856.856 0 0 1 0 .197.099.099 0 0 1-.117.07h-.04l-.18-.157a.488.488 0 0 0-.448-.1l-.192.047a.302.302 0 0 0-.261.291.734.734 0 0 1-.058.187c-.076.197-.152.22-.308.075a.21.21 0 0 0-.262-.052c-.342.148-.63.398-.825.715a.198.198 0 0 0-.03.146c0 .064.094 0 .14 0a.064.064 0 0 1 .07.076.169.169 0 0 1 0 .04c-.099.157-.192.314-.297.472a.122.122 0 0 1-.145 0l-.058-.053a1.293 1.293 0 0 1-.262-.896.75.75 0 0 1 .186-.43c.219-.25.476-.462.762-.629a.703.703 0 0 1 .383-.122zM51.076 71.761h-.239a1.11 1.11 0 0 0-.633.198 2.951 2.951 0 0 1-.425.216.785.785 0 0 0-.342.372.18.18 0 0 0 0 .116c.035.25.101.494.197.728a.116.116 0 0 1 0 .145.134.134 0 0 1-.15 0 .29.29 0 0 1-.129-.081 1.88 1.88 0 0 1-.285-.978.472.472 0 0 1 .093-.262c.361-.536.944-.88 1.587-.936.276-.041.556-.041.831 0a.58.58 0 0 1 .285.122c.133.108.285.19.448.244.235.09.45.224.633.396.138.09.191.266.128.419-.036.372-.17.727-.39 1.03a.523.523 0 0 1-.133.14.198.198 0 0 1-.285 0c-.244-.216-.262-.28-.087-.583l.325-.582a.425.425 0 0 0 .053-.15.18.18 0 0 0-.041-.106.134.134 0 0 0-.064-.04 1.412 1.412 0 0 1-.47-.291.58.58 0 0 0-.437-.151h-.436l-.034.034zM51.203 74.961c.24-.02.479.06.657.222.068.07.168.097.262.07a.981.981 0 0 1 .848.22c.093.076.198.134.297.204.077.053.124.14.128.233a.163.163 0 0 1-.082.169.226.226 0 0 1-.15 0 2.412 2.412 0 0 1-.262-.18c-.105-.076-.21-.158-.326-.228a.273.273 0 0 0-.354.088c-.047.064-.076.14-.117.209a.151.151 0 0 1-.261 0 1.467 1.467 0 0 1-.117-.21.273.273 0 0 0-.168-.157 2.149 2.149 0 0 0-.262-.081.535.535 0 0 0-.58.36.827.827 0 0 1-.1.297.116.116 0 0 1-.162 0v-.029c-.146-.174-.186-.186-.355-.104a.884.884 0 0 0-.43.442c-.066.129-.144.252-.232.366a.134.134 0 0 1-.18 0l-.059-.052a1.089 1.089 0 0 1-.157-.524.658.658 0 0 1 .18-.47c.183-.23.44-.39.727-.449.294-.037.578-.13.837-.273a.918.918 0 0 1 .418-.123zM36.313 72.826a.845.845 0 0 1 0 .198.134.134 0 0 1-.104.105.128.128 0 0 1-.14-.047 1.694 1.694 0 0 1-.174-.308 9.118 9.118 0 0 1-.169-.524c-.052-.174-.099-.331-.151-.494a.727.727 0 0 0-.261-.35.366.366 0 0 0-.372-.07 2.131 2.131 0 0 1-.384.105 1.087 1.087 0 0 0-.75.582.478.478 0 0 0-.058.309c.01.105.028.21.052.314a3 3 0 0 1 .07.826.751.751 0 0 1 0 .157.163.163 0 0 1-.261.099.372.372 0 0 1-.128-.14 2.131 2.131 0 0 1-.169-.581c0-.198-.07-.39-.099-.582a2.416 2.416 0 0 1-.087-.28.873.873 0 0 1 .314-.738c.214-.198.468-.347.744-.437.099 0 .203-.052.302-.093a.76.76 0 0 1 .715.087c.174.12.34.25.5.39.04.035.073.076.099.122.259.412.433.87.511 1.35zM38.708 76.45c-.023-.495.155-.98.494-1.343a.965.965 0 0 1 .232-.21 6.36 6.36 0 0 1 .581-.343.755.755 0 0 1 .61-.046c.175.058.355.11.524.174.16.055.307.144.43.262l.261.244c.025.03.041.067.047.105a.099.099 0 0 1 0 .07.081.081 0 0 1-.064.029c-.186-.099-.407-.122-.581-.204a2.503 2.503 0 0 0-.616-.128.76.76 0 0 0-.582.157c-.238.187-.465.39-.685.582a.64.64 0 0 0-.186.547.36.36 0 0 0 .14.262c.098.07.197.128.296.198a.314.314 0 0 1 .11.43.931.931 0 0 1-.087.128.21.21 0 0 1-.21.076.581.581 0 0 1-.337-.186 1.019 1.019 0 0 1-.377-.803zM36.703 76.945a.99.99 0 0 1-.233.786.192.192 0 0 1-.261 0 .437.437 0 0 1-.157-.582c.064-.116.122-.233.174-.355a.239.239 0 0 0 0-.262.285.285 0 0 0-.29-.081 1.04 1.04 0 0 0-.384.192.151.151 0 0 1-.215-.03v-.034a.483.483 0 0 1-.058-.454c.019-.05.036-.1.052-.151a.134.134 0 0 0-.07-.169.9.9 0 0 0-.494-.11h-.157a.366.366 0 0 0-.302.157.523.523 0 0 1-.081.087.099.099 0 0 1-.14 0 .582.582 0 0 1-.116-.291.239.239 0 0 1 0-.116.74.74 0 0 1 .058-.105c.14-.25.087-.326-.203-.32h-.314a.262.262 0 0 1-.262-.198.524.524 0 0 1 0-.076.221.221 0 0 1 .157-.273h.052a.958.958 0 0 1 .506.076.831.831 0 0 1 .523.413c.019.036.04.071.064.104.04.07.112.118.192.128.117.023.235.037.354.041a.697.697 0 0 1 .582.338c.029.04.04.099.075.14.044.047.093.09.146.127a.174.174 0 0 0 .075.03c.258.068.48.235.616.465a.786.786 0 0 1 .11.523zM30.071 76.3a.279.279 0 0 0 .28-.088 1.615 1.615 0 0 1 .999-.43h.157c.239.008.476-.042.691-.146l.151-.052a.168.168 0 0 1 .175.058.151.151 0 0 1 0 .151 3.8 3.8 0 0 1-.349.617c-.099.128-.128.146-.261.064l-.064-.046a.418.418 0 0 0-.152-.041c-.075 0-.156 0-.232.029a.482.482 0 0 0-.477.35.157.157 0 0 1-.197.092 3.084 3.084 0 0 1-.302-.081.842.842 0 0 0-.471 0 .157.157 0 0 0-.122.18c0 .105.058.204.081.308a.11.11 0 0 1 0 .064h-.035a.786.786 0 0 1-.296-.622.233.233 0 0 1 .046-.151c.06-.07.126-.135.198-.192a.21.21 0 0 1 .18-.064z"/>
        <path fill="#1A1A1A" d="M48.902 77.737a.716.716 0 0 1-.047.145.099.099 0 0 1-.133 0 .494.494 0 0 1-.1-.116.372.372 0 0 0-.307-.21l-.546-.081a.18.18 0 0 0-.215.128.338.338 0 0 1-.035.076.128.128 0 0 1-.227 0l-.076-.094a.639.639 0 0 0-.633-.232c-.158.02-.31.074-.448.157a.581.581 0 0 1-.14.075.145.145 0 0 1-.11 0 .43.43 0 0 1-.174-.378.291.291 0 0 1 .087-.168c.088-.081.184-.153.285-.216a.627.627 0 0 1 .523-.058c.125.039.244.094.355.163.11.078.25.098.377.052.292-.09.604-.09.896 0 .167.04.324.118.459.227a.541.541 0 0 1 .209.53zM33.5 76.8l.215.035a.116.116 0 0 1 .064.128.46.46 0 0 0-.14.262c.027.102.058.203.094.302 0 .053 0 .105.04.152a.128.128 0 0 1-.087.116.151.151 0 0 1-.11 0c-.076-.076-.134-.163-.198-.244a.18.18 0 0 0-.302 0 4.99 4.99 0 0 0-.465.523.116.116 0 0 1-.198 0 .582.582 0 0 1-.04-.494c.1-.34.383-.593.732-.652a1.47 1.47 0 0 0 .395-.128zM41.957 69.318a.338.338 0 0 0 0 .18.786.786 0 0 0 .203.367.46.46 0 0 1 .093-.082.778.778 0 0 1 .413-.128c.2-.003.398-.046.58-.128l.111-.04a.273.273 0 0 1 .297.058c.045.048.096.09.15.128a.122.122 0 0 0 .105 0 .14.14 0 0 0 .059-.093.687.687 0 0 0 0-.198.396.396 0 0 1 .18-.413c.145-.117.317-.197.5-.233.096-.028.2.007.261.087.063.085.131.167.203.245.083.1.23.115.332.035h.029c.226-.297.494-.25.784-.076l.21.116.145.064c.05.018.106.007.145-.029a.134.134 0 0 0 .035-.145.646.646 0 0 0-.296-.378c-.11-.076-.227-.14-.337-.21a.964.964 0 0 0-.878-.052l-.07.035a.383.383 0 0 1-.441.035.5.5 0 0 0-.39 0c-.26.056-.497.185-.686.372a.58.58 0 0 1-.383.18c-.34.044-.679.108-1.012.192a1.742 1.742 0 0 0-.342.11zM47.466 70.295a1.162 1.162 0 0 0-.97-.448c-.12 0-.24.018-.355.053-.2.04-.357.2-.395.401-.023.104-.04.209-.052.314v.198c0 .128-.064.175-.175.14l-.459-.134a1.608 1.608 0 0 0-.744-.04l-.18.04a.379.379 0 0 1 0 .081.483.483 0 0 0 .169.315l.127-.035h.314a.459.459 0 0 1 .396.15.854.854 0 0 0 .447.24c.13.037.27-.007.355-.111a.442.442 0 0 0 .127-.36c0-.117-.04-.234-.063-.35a.32.32 0 0 1 .168-.366.981.981 0 0 1 .808-.064c.145.065.279.153.395.261a.081.081 0 0 0 .076 0 .105.105 0 0 0 .04-.064.239.239 0 0 0-.029-.22zM49.134 108.492a2.481 2.481 0 0 0-.128-.82 2.825 2.825 0 0 1-.098-.868 3.786 3.786 0 0 0-.03-.523 1.672 1.672 0 0 1 0-.396c0-.314 0-.64.041-.954a.49.49 0 0 0 0-.198 1.8 1.8 0 0 1 .058-.861c.056-.262.183-.504.367-.698.052-.058.098-.122.15-.18.198-.233.416-.447.652-.64a52.644 52.644 0 0 1 2.824-2.124 28.44 28.44 0 0 1 2.122-1.402c.33-.192.639-.425.953-.646.866-.582 1.697-1.269 2.528-1.926.366-.285.75-.547 1.162-.803.657-.425 1.32-.838 1.982-1.25.36-.228.715-.455 1.087-.658a26.601 26.601 0 0 0 1.848-1.164c.32-.21.651-.407.977-.61l1.028-.676.262-.168 1.25-.786c.122-.076.244-.157.36-.244.552-.413 1.127-.786 1.703-1.164.331-.221.65-.454.976-.68a22.7 22.7 0 0 1 .96-.635c.232-.151.482-.28.714-.425.216-.128.426-.268.628-.418.523-.361 1.063-.652 1.604-.955l.104-.052a22.34 22.34 0 0 1 1.79-1.024c.198-.105.378-.25.582-.367a21.14 21.14 0 0 1 1.9-1.163 16.37 16.37 0 0 0 1.407-.82c.302-.187.58-.402.883-.582.302-.18.686-.495 1.04-.733.124-.075.253-.143.384-.204a3.136 3.136 0 0 1 1.657-.308c.276.014.554.014.83 0a1.04 1.04 0 0 1 .466.064.39.39 0 0 0 .191.04c.343-.035.686.047 1.03.041.33.008.66.033.987.076h.076c.905.244 1.822.438 2.749.581.18.035.366.053.546.082.248.04.491.104.727.192.174.064.354.11.523.163.319.084.63.197.93.337.155.071.317.13.482.175l1.29.395c.5.175.988.373 1.482.582l.581.204h.076c.674.232 1.361.426 2.057.582.407.104.826.186 1.244.262.419.075.849.203 1.267.32.18.052.355.104.535.145.362.075.719.173 1.07.29.26.088.534.14.807.21.448.123.89.262 1.337.379.203.058.407.116.61.162.31.068.614.156.913.262a25.1 25.1 0 0 0 2.156.687l1.029.302.15.053.814.413c.035 0 .064.046.105.064.447.232.882.489 1.302.768.277.182.53.396.755.64.117.11.21.238.326.349.307.324.435.779.343 1.216-.023.159-.056.316-.099.471a1.52 1.52 0 0 0-.052.553c.02.17 0 .344-.058.506-.037.1-.06.203-.07.308a5.562 5.562 0 0 0-.058.955c.01.104.01.21 0 .314-.058.367-.076.74-.053 1.111.013.32-.09.634-.29.884-.128.18-.28.355-.419.524-.191.255-.41.49-.65.698a2.14 2.14 0 0 0-.402.442 6.56 6.56 0 0 1-.941 1.077l-.11.11c-.252.291-.528.56-.826.803a1.337 1.337 0 0 0-.261.262c-.11.149-.241.28-.39.39-.18.151-.354.314-.54.471-.186.157-.43.355-.645.524l-1.825 1.46a2.67 2.67 0 0 0-.239.21c-.534.512-1.075 1.018-1.563 1.57-.302.338-.628.646-.942.966a1.07 1.07 0 0 1-.15.128c-.424.301-.814.646-1.163 1.03-.355.378-.732.733-1.087 1.106-.355.372-.674.634-1.017.948-.047.046-.098.09-.151.128a3.413 3.413 0 0 0-.581.506c-.105.105-.21.204-.314.303-.5.523-1.087.93-1.61 1.42l-.831.785c-.355.337-.72.663-1.087.989l-1.47 1.332-.18.157a6.18 6.18 0 0 0-.785.733c-.337.355-.698.687-1.04 1.024-.222.21-.444.417-.669.623-.14.124-.283.242-.43.355a2.908 2.908 0 0 0-.616.61 4.466 4.466 0 0 1-.47.484.785.785 0 0 0-.164.168.872.872 0 0 1-.366.35 4.5 4.5 0 0 0-.453.378c-.308.25-.634.483-.965.704-.227.136-.44.296-.633.477a1.075 1.075 0 0 1-.262.192c-.279.151-.581.29-.849.425-.267.133-.58.261-.906.407l-.581.262c-.332.133-.663.261-1 .384l-.302.104c-.262.076-.523.146-.762.227-.39.122-.789.22-1.191.297l-.895.18a2.137 2.137 0 0 1-.785.041 5.3 5.3 0 0 0-1.226-.046 3.222 3.222 0 0 1-.785-.041c-.25-.04-.5-.058-.75-.076a8.774 8.774 0 0 1-1.325-.262.964.964 0 0 1-.261-.099 3.944 3.944 0 0 0-.616-.261 7.97 7.97 0 0 1-1.36-.582c-.128-.076-.262-.14-.384-.204-.273-.128-.552-.262-.825-.384-.273-.122-.436-.18-.663-.262-.087-.035-.18-.052-.261-.087-.494-.221-.994-.442-1.476-.68a4.426 4.426 0 0 0-.785-.315 4.008 4.008 0 0 1-.808-.326c-.581-.314-1.22-.581-1.842-.837l-.11-.041c-.582-.326-1.198-.495-1.744-.826a1.017 1.017 0 0 0-.18-.088c-.622-.215-1.215-.523-1.849-.715a9.833 9.833 0 0 1-1-.384 5.023 5.023 0 0 0-1.249-.373c-.38-.05-.75-.158-1.098-.32a8.55 8.55 0 0 0-1.116-.419l-.227-.075a2.475 2.475 0 0 1-.767-.407 4.323 4.323 0 0 0-.854-.5c-.227-.106-.448-.228-.675-.338-.226-.11-.279-.146-.43-.21a9.638 9.638 0 0 1-1.412-.721 3.003 3.003 0 0 0-.581-.245c-.186-.07-.378-.128-.581-.209a5.227 5.227 0 0 0-.895-.32 2.213 2.213 0 0 1-.622-.262 1.103 1.103 0 0 0-.582-.192 1.162 1.162 0 0 1-.82-.349c-.069-.064-.144-.116-.22-.174a1.926 1.926 0 0 1-.697-1.048 3.96 3.96 0 0 1-.239-1.1zm31.152 9.245l.524-.07c.168 0 .337-.058.523-.076.276-.027.547-.09.808-.186.906-.332 1.807-.68 2.685-1.088.168-.076.33-.157.505-.233.295-.12.58-.262.855-.424l1.127-.67c.343-.203.703-.378 1.017-.61.523-.379 1.058-.704 1.564-1.083a57 57 0 0 0 2.696-2.164c.477-.401.93-.826 1.395-1.245.465-.419.831-.739 1.215-1.164.21-.22.424-.436.65-.64.513-.46.992-.957 1.436-1.483.262-.291.5-.582.785-.861.64-.652 1.279-1.31 1.877-1.996.601-.689 1.25-1.334 1.942-1.932.58-.488 1.086-1.012 1.621-1.524.43-.413.854-.832 1.302-1.233.448-.402.785-.681 1.162-1.03l1.744-1.571c.581-.524 1.162-1.082 1.744-1.635l1.598-1.548c.151-.145.314-.285.465-.436.36-.367.709-.75 1.07-1.123.203-.21.383-.436.58-.657.187-.226.311-.497.36-.786.036-.18.094-.36.14-.535 0-.076.053-.151.07-.227a.42.42 0 0 0-.215-.547h-.064a5.039 5.039 0 0 1-.785-.547 1.127 1.127 0 0 0-.58-.343.58.58 0 0 1-.216-.1 5.146 5.146 0 0 0-1.371-.58h-.088c-.58-.175-1.121-.298-1.673-.501a.128.128 0 0 1-.076 0c-.128-.035-.262-.07-.378-.117a12.614 12.614 0 0 0-1.586-.5 8.317 8.317 0 0 1-.651-.186 18.484 18.484 0 0 0-1.372-.396l-.424-.11c-.191-.05-.37-.139-.523-.262a.436.436 0 0 0-.262-.105 1.742 1.742 0 0 1-.866-.244.476.476 0 0 0-.151-.053.395.395 0 0 0-.192 0 .644.644 0 0 1-.39 0c-.284-.064-.58-.14-.848-.192-.581-.104-1.162-.261-1.778-.419l-.349-.081-.523-.151a16.19 16.19 0 0 0-1.703-.524 1.429 1.429 0 0 1-.227-.076 2.52 2.52 0 0 0-.377-.128 5.65 5.65 0 0 1-.727-.209 2.358 2.358 0 0 0-.459-.105 2.99 2.99 0 0 1-.802-.22 7.69 7.69 0 0 0-.785-.263c-.261-.075-.534-.133-.808-.197-.273-.064-.494-.088-.738-.14a2.323 2.323 0 0 1-.459-.122 2.741 2.741 0 0 0-.523-.157c-.296-.064-.581-.123-.89-.204-.418-.116-.836-.262-1.255-.372a1.376 1.376 0 0 0-.232-.053c-.29-.035-.581-.07-.866-.087a1.742 1.742 0 0 1-.5-.116 1.161 1.161 0 0 0-.343-.076.65.65 0 0 1-.4-.145.174.174 0 0 0-.187 0c-.305.13-.633.197-.965.197a1.26 1.26 0 0 0-.197 0c-.157 0-.314.059-.47.07a3.049 3.049 0 0 0-.92.239c-.15.058-.29.128-.44.174a1.853 1.853 0 0 0-.524.262c-.203.146-.407.285-.622.425a3.631 3.631 0 0 1-.686.384l-.104.058c-.351.188-.684.408-.994.657a1.778 1.778 0 0 1-.448.262c-.22.093-.43.21-.639.314a8.137 8.137 0 0 0-.814.582c-.36.245-.709.506-1.069.757-.11.075-.224.143-.343.203l-1.162.652c-.308.174-.616.355-.93.524-.281.146-.553.309-.814.488-.349.245-.697.477-1.058.704-.459.285-.924.582-1.36.885-.436.302-.889.622-1.336.93l-.43.291-1.628 1.164c-.197.134-.4.262-.581.402-.433.327-.891.62-1.372.872l-.168.105c-.419.273-.837.582-1.261.826-.768.471-1.54.931-2.325 1.397-.419.261-.855.477-1.273.733-.732.453-1.453.913-2.15 1.43-.083.066-.17.125-.262.175-.277.15-.54.325-.785.524a17.535 17.535 0 0 1-2.069 1.472c-.58.425-1.209.756-1.79 1.164-.581.407-1.098.733-1.616 1.163a3.248 3.248 0 0 1-.773.454l-.063.047c-.524.401-1.04.774-1.523 1.21a3.7 3.7 0 0 0-.698.861c-.049.093-.09.19-.122.29a1.503 1.503 0 0 0 0 .751c.023.16.104.305.227.408.1.085.207.163.32.232l1.278.792c.302.192.623.35.96.471.708.262 1.406.547 2.086.85.342.142.674.307.994.494.33.194.679.356 1.04.483.324.113.642.243.953.39.564.271 1.147.503 1.744.692.326.108.647.234.959.378l1.04.477c.343.163.715.338 1.075.524.334.184.682.342 1.04.471.14.044.276.098.407.163.582.291 1.163.582 1.79.861l.14.076c.241.137.494.252.756.343.387.136.757.28 1.11.43.523.216 1.017.455 1.522.67.645.28 1.302.54 1.936.82.493.224 1.007.4 1.534.524.414.095.817.232 1.203.407.18.082.366.146.581.215.503.155.993.35 1.465.582.152.083.312.151.477.204.389.128.784.262 1.162.378.1.034.203.06.308.076.732.093 1.459.261 2.197.308.228.012.457.012.686 0l-.024.04zm-30.547-8.664c0 .17.029.344.052.524.006.066.03.128.07.18.175.234.416.41.691.507.27.074.525.191.756.349.237.147.493.26.761.337.24.072.472.17.692.291.228.136.475.236.732.297.235.048.456.15.645.297.246.18.516.326.803.43.345.137.682.292 1.01.466.176.09.357.173.541.244.287.104.56.243.814.413.297.198.622.351.965.454.465.157.93.308 1.377.5.295.117.6.205.913.262.273.054.543.124.808.21.337.11.668.261 1 .378.144.063.294.116.447.157.2.047.394.113.58.198l1.35.581c.121.053.238.117.354.175l.89.442c.115.058.243.105.354.175.58.32 1.162.581 1.79.86.18.082.36.164.534.263.291.157.6.28.919.366.203.053.399.134.58.239.5.279 1.041.477 1.553.715.096.044.195.08.296.11.215.068.424.155.622.263.234.122.475.233.72.331.2.088.394.187.582.297.14.076.273.157.418.227.146.07.436.198.657.285.403.168.817.31 1.238.425.581.151 1.203.18 1.802.29.079.008.159.008.238 0h1.162c.105-.006.21-.006.314 0 .327.056.661.056.988 0 .483-.092.965-.133 1.447-.261.582-.134 1.122-.314 1.674-.495.901-.302 1.744-.715 2.639-1.1.29-.127.581-.279.848-.43.181-.105.356-.22.524-.343.203-.146.406-.297.58-.454.175-.157.309-.262.454-.39.386-.382.802-.732 1.244-1.047a1.78 1.78 0 0 0 .459-.436c.137-.18.297-.34.477-.478.186-.15.372-.302.546-.46.233-.215.478-.42.732-.61a5.11 5.11 0 0 0 .488-.402 34.12 34.12 0 0 1 1.779-1.524c.366-.302.744-.582 1.11-.902.366-.32.761-.657 1.162-.995l.843-.785c.234-.235.483-.454.744-.658a8.878 8.878 0 0 0 1.162-1.047c.436-.46.89-.907 1.372-1.326.561-.486 1.097-1 1.604-1.542.24-.266.497-.516.767-.75a17.096 17.096 0 0 0 1.703-1.665c.43-.483.884-.954 1.337-1.414a3.11 3.11 0 0 1 .262-.238l1.243-.99c.436-.348.872-.686 1.302-1.046.233-.192.442-.42.669-.623.494-.46.988-.925 1.487-1.379.272-.253.52-.532.739-.832a5.49 5.49 0 0 1 .552-.628c.313-.287.603-.598.866-.931.064-.082.145-.157.203-.245a.472.472 0 0 0-.046-.302 1.456 1.456 0 0 1 0-.198c.017-.069.031-.139.04-.21-.016-.49.012-.98.082-1.466 0-.261 0-.506.04-.756a4.846 4.846 0 0 1 .024-.908.163.163 0 0 0 0-.075.163.163 0 0 0-.064.04c-.147.22-.308.43-.483.629-.349.349-.662.727-.994 1.082-.098.105-.197.215-.302.314l-1.162 1.123c-.401.378-.814.786-1.227 1.164-.633.582-1.284 1.163-1.918 1.792-.633.628-1.237 1.117-1.871 1.664-.46.395-.9.814-1.348 1.227-.29.31-.613.585-.965.82a.715.715 0 0 0-.122.106c-.134.128-.28.25-.407.378a8.985 8.985 0 0 0-1.081 1.1.488.488 0 0 1-.081.08l-.582.501a2.67 2.67 0 0 0-.22.227l-.936 1.07c-.106.136-.236.251-.384.338a.785.785 0 0 0-.18.157c-.308.314-.61.623-.912.937-.181.183-.376.352-.582.506-.309.23-.574.514-.784.838a1.32 1.32 0 0 1-.262.297c-.476.399-.93.824-1.36 1.274a5.768 5.768 0 0 1-1.005.902 1.96 1.96 0 0 0-.215.18c-.332.303-.663.617-1 .908-.65.581-1.325 1.1-1.988 1.646a3.587 3.587 0 0 0-.436.402c-.169.2-.364.376-.58.523a3.168 3.168 0 0 0-.524.425 2.174 2.174 0 0 1-.366.297c-.46.29-.878.64-1.348.913a1.744 1.744 0 0 0-.285.215 3.69 3.69 0 0 1-.913.547l-.58.291c-.152.076-.303.169-.46.239l-2.034.89c-.122.052-.244.099-.36.157a6.47 6.47 0 0 1-2.238.64c-.12.007-.238.025-.355.052a5.754 5.754 0 0 1-2.01 0l-.471-.07a8.257 8.257 0 0 1-1.779-.383 3.413 3.413 0 0 0-.412-.134 4.85 4.85 0 0 1-.948-.396 4.79 4.79 0 0 0-.465-.215c-.4-.169-.802-.343-1.209-.506a6.633 6.633 0 0 0-.895-.32 11.709 11.709 0 0 1-2.324-.838l-.332-.146a7.057 7.057 0 0 0-.848-.337 11.756 11.756 0 0 1-1.616-.657 13.083 13.083 0 0 0-.988-.408 8.045 8.045 0 0 1-1.093-.477c-.244-.134-.5-.244-.75-.366-.25-.123-.43-.198-.645-.309a7.807 7.807 0 0 0-1.04-.465 5.449 5.449 0 0 1-1.11-.524c-.122-.075-.262-.145-.384-.21a6.467 6.467 0 0 1-1.069-.581h-.035a10.41 10.41 0 0 0-1.453-.64 16.21 16.21 0 0 1-1.807-.716 8.875 8.875 0 0 0-.837-.355c-.501-.172-.98-.4-1.43-.68a12.309 12.309 0 0 0-1.668-.74l-.116-.034a6.389 6.389 0 0 1-1.599-.582c-.232-.122-.459-.262-.697-.378-.401-.204-.785-.442-1.162-.67a.58.58 0 0 0-.407-.133c-.122.128-.035.273-.03.413.013.176.034.35.065.524.025.13.042.262.052.395.02.393.08.783.18 1.164.05.225.073.456.07.686zM97.821 52.55a4.782 4.782 0 0 1 .134-1.414c.075-.17.11-.355.104-.541.1-.18.128-.402.338-.524.124-.075.26-.132.4-.168.343-.105.69-.193 1.04-.262a.674.674 0 0 0 .193-.053c.39-.168.802-.261 1.197-.413.2-.071.384-.182.54-.326.299-.301.555-.642.762-1.012.065-.1.123-.206.174-.314a.245.245 0 0 0-.064-.32l-.064-.052a1.983 1.983 0 0 1-.633-.582.523.523 0 0 0-.262-.186c-.33-.128-.668-.262-1.005-.373a.801.801 0 0 0-.262 0 4.68 4.68 0 0 1-.784 0 .523.523 0 0 0-.157 0c-.3.055-.609.02-.89-.099a2.265 2.265 0 0 0-.534-.14 3.844 3.844 0 0 1-.645-.186.523.523 0 0 1-.326-.325.169.169 0 0 1 .14-.262c.192-.03.388-.03.58 0 .17 0 .338.052.512.087.272.062.548.099.826.11.092.005.183.017.273.036.233.048.47.073.709.075.16.004.317.027.47.07.335.085.662.198.977.337.207.088.388.228.523.408.137.178.297.336.477.471.17.125.317.28.43.46.18.313.26.675.227 1.035-.009.106-.024.21-.047.314a.483.483 0 0 1-.07.18c-.14.213-.317.398-.523.548l-.436.273-.104.058c-.225.186-.48.33-.756.425-.168.076-.331.157-.506.239-.174.081-.238.11-.366.157a.36.36 0 0 1-.191 0 .534.534 0 0 0-.419.058.9.9 0 0 1-.46.093.778.778 0 0 0-.522.145c-.105.082-.262.059-.349.175v.355c0 .21-.029.425-.052.634-.05.448-.066.9-.047 1.35.01.196-.013.393-.07.582a3.133 3.133 0 0 0-.11.744 5.061 5.061 0 0 1-.186 1.298c-.314 5.929-.581 2.909-1.162 9.024l-.087 1.082c-.198 2.455-.303 4.358-.297 4.562a1.473 1.473 0 0 1-.482.971c-.406.452-.773.936-1.099 1.449-.371.274-.76.524-1.162.75-.517.298-1.05.566-1.598.803l-1.866.786a17.29 17.29 0 0 1-2.069.692c-.581.163-1.162.326-1.744.471-.58.146-1.284.303-1.93.448a1.161 1.161 0 0 1-.354 0 1.3 1.3 0 0 0-.47.035h-.117c-.58.03-1.162.157-1.743.21h-.157c-.402.084-.81.129-1.22.134-.687.04-1.372.104-2.058.116a14.596 14.596 0 0 1-1.982-.07l-.523-.052a1.161 1.161 0 0 0-.395 0 4.778 4.778 0 0 1-1.163.087h-.238a3.64 3.64 0 0 1-.825-.076 5.905 5.905 0 0 0-.948-.07c-.5 0-1.005 0-1.505-.046a.836.836 0 0 1-.262-.04c-.261-.105-.58-.175-.83-.262a.105.105 0 0 1 0-.064l.075-.03c.26-.042.522-.056.785-.04.193.012.387.012.58 0a15.258 15.258 0 0 1 1.587 0c.372 0 .738.04 1.11.052.225.012.45.012.675 0a10.503 10.503 0 0 1 1.627 0c.29 0 .581 0 .872.035h1.162c1.07 0 2.145-.076 3.208-.204.535-.064 1.076-.116 1.61-.22.326-.065.651-.1.977-.158.482-.093.959-.192 1.43-.326.47-.133 1.022-.261 1.534-.407.511-.145.89-.262 1.337-.378a17.511 17.511 0 0 0 2.12-.786c.472-.203.954-.395 1.43-.581.235-.094.462-.205.68-.332.506-.29.995-.582 1.483-.925a25.54 25.54 0 0 0 1.743-1.996s.175-2.618.46-5.777c.058-.634.116-1.292.185-1.973 1.012-5.201.436-1.605 1.227-6.778 0-.366.04-.739.058-1.111v-.582c-.011-.28.018-.56.087-.832.07-.246.09-.503.058-.756zM57.66 56.768c-.261 5.498.221 2.141.28 7.517-.041.105-.088.21-.134.308-.047.1-.104.196-.169.286a.11.11 0 0 1-.157 0 .524.524 0 0 1-.064-.134 3.937 3.937 0 0 1-.104-.553c.029-5.341-.448-1.914-.36-7.64l-.035-.505-.047-.5a1.206 1.206 0 0 1 .03-.408.151.151 0 0 1 .168-.128h.035c.194.04.345.194.383.39.052.262.11.523.151.774.04.25.012.395.024.593z"/>
        <path fill="#1A1A1A" d="M98.251 46.353a3.357 3.357 0 0 1 1.523.402c.122.06.226.15.302.262.07.093.146.192.204.29.041.068.075.14.098.216a.332.332 0 0 1-.104.46h-.04a2.372 2.372 0 0 1-.193.145 1.274 1.274 0 0 0-.354.367.523.523 0 0 1-.244.197c-.221.093-.436.187-.663.262a.854.854 0 0 1-.505.064 1.04 1.04 0 0 0-.35.053.198.198 0 0 1-.232-.152.35.35 0 0 1 0-.116 2.056 2.056 0 0 0-.11-.82 3.413 3.413 0 0 1-.081-.67.116.116 0 0 1 .052-.093.174.174 0 0 1 .11 0 .134.134 0 0 1 .064.047c.132.152.231.33.29.524l.129.5a.116.116 0 0 0 .14.087c.24-.07.47-.176.68-.314.109-.074.226-.136.348-.186.206-.104.4-.229.581-.373a.157.157 0 0 0 .03-.215.581.581 0 0 0-.286-.262l-.366-.157a.877.877 0 0 0-.383-.075 2.746 2.746 0 0 1-.855-.163.262.262 0 0 1-.128-.088.332.332 0 0 1-.046-.145c0-.04.052-.076.122-.07l.267.023zM87.65 42.333h.198c.72.076 1.441.146 2.162.233.643.067 1.28.18 1.906.337.29.076.581.128.89.186.816.156 1.62.372 2.406.646.075.024.15.053.22.088a.227.227 0 0 1 .093.302.157.157 0 0 1-.186.128 3.334 3.334 0 0 1-.337-.11c-.394-.152-.8-.27-1.214-.355a3.815 3.815 0 0 1-.523-.152 11.916 11.916 0 0 0-2.017-.581c-.523-.111-1.07-.158-1.604-.233-.535-.076-1.023-.373-1.535-.42l-.552-.057c-.064 0-.744-.477-.186-.053l-.075-.081c0-.047-.843-.326-.808-.338.11.018 1.07.49 1.162.46zM86.54 98.327c.087-.006.175-.006.262 0 1.615-1.239 2.499-2.711 3.76-4.072l.273-.315.28-.325.156-.192c.151-.19.297-.384.436-.582.258-.355.535-.695.831-1.018.18-.21.372-.42.581-.623.24-.266.468-.543.68-.832.326-.437.685-.847 1.076-1.228l.174-.163 1.162-1.163c.11-.116.237-.212.378-.285a.122.122 0 0 1 .105 0 .14.14 0 0 1 .04.104.827.827 0 0 1-.203.507c-.366.448-.72.913-1.116 1.35-.099.104-.186.22-.285.331-.161.175-.298.37-.407.582a2.176 2.176 0 0 1-.32.454 7.18 7.18 0 0 1-.58.616 7.73 7.73 0 0 0-.582.716l-.284.378-.355.477c-.046.064-.093.128-.145.187a5.768 5.768 0 0 0-.547.54c-.085.094-.166.19-.244.292-1.47 2.123-3.231 3.898-4.65 5.858l-.203.309c-.344.501-.72.98-1.127 1.431a10.14 10.14 0 0 0-.866 1.164c-.378.582-.744 1.128-1.116 1.693l-.46.698a.204.204 0 0 0-.034.07c-.067.23-.18.443-.331.628l-.465.774c-.07.11-.14.227-.21.337-.19.256-.354.531-.488.82-.064.131-.142.254-.232.367-.355.495-.703.995-1.07 1.484-.191.262-.412.483-.622.721a.581.581 0 0 1-.127.1l-.669.43a.895.895 0 0 1-.18.076.308.308 0 0 1-.232 0l-.18-.088a4.74 4.74 0 0 0-.75-.366.227.227 0 0 1-.122-.1.581.581 0 0 0-.262-.238l-.308-.18a1.599 1.599 0 0 1-.622-.582.5.5 0 0 0-.104-.163 1.444 1.444 0 0 1-.384-.809.379.379 0 0 1 0-.116 4.077 4.077 0 0 1 .203-1.408 13.97 13.97 0 0 1 .86-1.792c.123-.203.259-.397.407-.582.424-.528.89-1.02 1.395-1.472.117-.11.262-.198.378-.296.242-.176.47-.37.68-.582a2.57 2.57 0 0 1 .581-.489 6.393 6.393 0 0 0 1.087-.785c.07-.06.145-.117.22-.17.234-.174.452-.368.652-.581.11-.114.227-.223.349-.326.351-.34.724-.656 1.115-.948a.71.71 0 0 0 .262-.297.076.076 0 0 0 0-.07c-.21-.104-.418-.215-.633-.314a.697.697 0 0 1-.262-.186.14.14 0 0 1 0-.151.582.582 0 0 1 .052-.105c.198-.315.41-.62.64-.914.313-.378.58-.785.895-1.163a7.77 7.77 0 0 1 .924-1.047c.093-.082.18-.17.261-.262.28-.319.588-.613.919-.879l.807-.704c.384-.331.762-.657 1.163-.977.244-.204.505-.39.761-.582a38.667 38.667 0 0 1 2.261-1.478l1.331-.785c.546-.32 1.11-.617 1.674-.914.093-.05.19-.09.29-.122a.261.261 0 0 1 .32.169.192.192 0 0 1-.064.244l-.07.04-1.516.786c-.582.32-1.163.646-1.744 1.018-.331.222-.668.431-1.006.64-.899.56-1.745 1.2-2.528 1.915-.168.15-.331.308-.5.46l-.697.581c-.26.226-.509.464-.744.716-.227.238-.465.471-.709.692a4.304 4.304 0 0 0-.535.582 3.816 3.816 0 0 1-.244.314 13.48 13.48 0 0 0-1.244 1.693.454.454 0 0 0-.029.076.081.081 0 0 0 .047.099c.255.073.52.104.784.093a.801.801 0 0 1 .233 0 8.384 8.384 0 0 0 1.65.174h.117l-.105.035zm-9.938 10.246c.003.274.043.545.116.809.03.159.125.298.261.384.169.105.338.21.524.308.395.21.482.198.784-.128l.994-1.088c.223-.238.418-.502.581-.785.105-.186.221-.361.332-.541l.738-1.164c.244-.39.505-.785.784-1.164.28-.378.581-.837.913-1.25.331-.414.686-.943 1.063-1.385.582-.704 1.203-1.408 1.744-2.141.325-.42.645-.838.959-1.269.215-.296.157-.296-.151-.343a.69.69 0 0 0-.157 0 3.53 3.53 0 0 1-.825-.076c-.18-.029-.367-.046-.553-.064a.128.128 0 0 0-.133.07c-.145.282-.364.52-.634.687-.46.335-.892.708-1.29 1.117-.11.114-.226.22-.349.32a3.61 3.61 0 0 0-.552.523c-.07.08-.15.15-.238.21-.227.163-.448.326-.68.477a1.97 1.97 0 0 0-.47.419 2.518 2.518 0 0 1-.385.401c-.383.304-.738.641-1.063 1.007-.063.069-.131.133-.204.192-.33.268-.605.595-.813.966a3.24 3.24 0 0 1-.477.651 1.49 1.49 0 0 0-.296.472c-.116.285-.227.581-.343.85a3.395 3.395 0 0 0-.18 1.535zm9.967-8.558v-.064h-.064l-.157.18-.924 1.164c-.523.645-1.04 1.291-1.575 1.943-.255.318-.505.644-.75.977a49.23 49.23 0 0 0-1.127 1.589c-.256.388-.506.762-.75 1.123-.395.61-.784 1.233-1.162 1.85-.23.358-.508.683-.825.966-.25.22-.465.47-.692.704a.436.436 0 0 0-.081.133.082.082 0 0 0 0 .07.18.18 0 0 0 .22 0c.122-.075.239-.169.367-.238a1.46 1.46 0 0 0 .383-.338c.29-.326.56-.668.814-1.024.357-.478.689-.976.994-1.49.314-.581.685-1.07 1.005-1.617.113-.18.235-.355.366-.523.215-.303.442-.582.651-.902.326-.471.622-.954.994-1.39.074-.095.142-.194.203-.297.363-.603.781-1.17 1.25-1.694.323-.345.61-.721.86-1.122zM74.097 91.49a2.603 2.603 0 0 1 .133-1.017.436.436 0 0 1 .233-.262c.253-.118.516-.215.785-.291.366-.11.743-.18 1.115-.262a.58.58 0 0 1 .582.11c.071.058.15.107.232.146.27.124.498.327.651.582a.099.099 0 0 0 .14.035l.325-.151a.749.749 0 0 1 .465-.041c.18.04.366.064.546.099.065.01.13.025.192.046.212.077.433.126.657.146.314.054.612.18.872.366a.436.436 0 0 1 .104.117.221.221 0 0 1 .04.186.32.32 0 0 1-.04.11.367.367 0 0 0 0 .443.355.355 0 0 1 .047.15c.064.385.078.777.04 1.165 0 .075 0 .157-.034.232a.402.402 0 0 1-.082.18 1.942 1.942 0 0 1-.412.373 1.08 1.08 0 0 1-.21.105c-.18.052-.354.099-.534.145a.244.244 0 0 1-.227-.04.081.081 0 0 0-.105 0h-.029a.58.58 0 0 1-.494.197.412.412 0 0 0-.331.088.366.366 0 0 1-.262.087 2.322 2.322 0 0 1-.668-.058 2.29 2.29 0 0 1-.814-.477 1.834 1.834 0 0 1-.465-1.397.472.472 0 0 0-.052-.343.151.151 0 0 1 0-.151c.116-.281.295-.532.523-.733l.116-.105c.198-.192.198-.204 0-.42a.116.116 0 0 0-.14-.046l-.784.291a.314.314 0 0 0-.186.198.71.71 0 0 0-.052.35c.003.051.003.104 0 .156a.233.233 0 0 1-.279.262.157.157 0 0 1-.151-.11c-.047-.14-.076-.28-.116-.42a2.422 2.422 0 0 0-.128-.372.378.378 0 0 0-.488-.122.169.169 0 0 0-.076.128l-.105.628a.407.407 0 0 0 .262.478c.21.075.43.14.64.215.099.037.196.08.29.128a.128.128 0 0 1 0 .174.279.279 0 0 1-.204.11.83.83 0 0 1-.197 0l-.39-.069a1.162 1.162 0 0 1-.54-.233.704.704 0 0 1-.285-.419c-.035-.157-.081-.308-.116-.465a1.63 1.63 0 0 1 .006-.221zm6.637.874c.01-.105.01-.21 0-.315a.157.157 0 0 0-.262-.14 1.122 1.122 0 0 0-.261.181 3.49 3.49 0 0 0-.262.285.523.523 0 0 1-.33.204.32.32 0 0 0-.228.145l-.07.1a.232.232 0 0 1-.26.075 1.922 1.922 0 0 1-.536-.128 2.224 2.224 0 0 0-.58-.14h-.036a1.742 1.742 0 0 0-.726-.168.099.099 0 0 0-.116.116c.054.219.081.443.081.669.007.106.02.21.04.314.025.161.134.296.286.355.299.109.618.152.935.128.184-.015.367-.044.547-.087a.174.174 0 0 0 .168-.221 1.09 1.09 0 0 1 .04-.506.163.163 0 0 1 .262-.082c.14.084.214.246.186.407a.49.49 0 0 0 .053.309.081.081 0 0 0 .104.058l.442-.262c.125-.074.237-.169.331-.28a.74.74 0 0 0 .175-.348c.047-.22.053-.447.017-.67zM78.613 90.7a.58.58 0 0 0-.308.099 1.384 1.384 0 0 0-.239.203c-.17.187-.352.362-.546.524-.052.046-.105.081-.151.128a.355.355 0 0 0-.058.099.175.175 0 0 0 .046.238h.047a9.68 9.68 0 0 0 1.29.367l.262.052a.285.285 0 0 0 .33-.157c.15-.282.346-.536.582-.75.073-.077.141-.159.203-.245.076-.099.053-.18-.063-.21a3.037 3.037 0 0 1-.582-.174 3.687 3.687 0 0 0-.726-.18l-.087.006zm-2.871 0c.284-.04.56-.129.813-.262a.396.396 0 0 0 .128-.146.122.122 0 0 0-.081-.15h-.082l-.877.22a.732.732 0 0 0-.175.093.11.11 0 0 0 0 .146c.036.038.08.068.128.087a.685.685 0 0 0 .157 0l-.011.012zM72.068 95.604a5.894 5.894 0 0 1 0-.867.07.07 0 0 0 0-.04.314.314 0 0 1 .117-.43c.153-.215.352-.394.58-.524.164-.111.332-.216.5-.32a.633.633 0 0 1 .582-.123.284.284 0 0 0 .116 0c.333-.01.663.058.965.198.174.058.349.134.523.18.322.098.577.345.686.664.081.169.125.353.128.54a.547.547 0 0 0 0 .158c.075.309.134.621.174.937 0 .128.035.262.07.39.06.249-.001.511-.163.71a2.681 2.681 0 0 1-.523.581 3.49 3.49 0 0 0-.28.285 1.214 1.214 0 0 1-.58.309.778.778 0 0 1-.355 0l-.697-.157a1 1 0 0 1-.581-.344.86.86 0 0 0-.384-.262.994.994 0 0 1-.482-.395 4.062 4.062 0 0 1-.21-.338 1.252 1.252 0 0 1-.157-.581c-.029-.175-.029-.367-.029-.57zm2.488 2.2l.215-.059c.145-.067.275-.162.384-.279.19-.185.403-.345.633-.477l.233-.145a.262.262 0 0 0 .127-.338 5.643 5.643 0 0 1-.15-.617 12.934 12.934 0 0 0-.291-1.309.837.837 0 0 0-.582-.622c-.203-.07-.406-.122-.58-.204a.842.842 0 0 0-.826.11h-.03c-.208.14-.418.28-.621.425a1.692 1.692 0 0 0-.238.21.233.233 0 0 0 0 .326l.052.058c.169.15.312.327.424.524.056.09.134.164.227.215.087.069.21.069.296 0 .256-.187.531-.347.82-.477a1.04 1.04 0 0 1 .407-.14c.027 0 .052.014.07.035a.11.11 0 0 1 0 .076.134.134 0 0 1-.03.07c-.135.164-.289.313-.459.442-.099.065-.19.141-.273.227a1.057 1.057 0 0 1-.755.29.285.285 0 0 1-.221-.07l-.43-.407a.163.163 0 0 0-.064-.046.075.075 0 0 0-.064 0c-.035.098-.062.2-.082.302-.001.12-.023.237-.064.35a.46.46 0 0 0 .035.453.738.738 0 0 0 .465.408c.178.053.339.154.465.29.052.06.113.111.18.152.237.095.485.158.739.186l-.012.04zM79.52 94.836c.096-.01.193-.01.29 0 .245.054.494.091.744.11.183.02.362.064.535.129.133.052.279.081.412.128a.21.21 0 0 1 .128.221 1.49 1.49 0 0 1-.21.553l-.348.523a1.43 1.43 0 0 1-.285.326c-.093.076-.18.157-.261.233a.169.169 0 0 0-.058.18c.058.204.076.418.052.629a.128.128 0 0 0 .192.116l.209-.105c.151-.087.29-.18.442-.262.07-.036.144-.065.22-.087a.128.128 0 0 1 .14.146.466.466 0 0 1-.064.145c-.162.206-.358.38-.581.518-.123.078-.228.18-.308.302a.918.918 0 0 1-.465.361c-.292.132-.62.159-.93.076a3.676 3.676 0 0 1-.633-.227c-.28-.146-.582-.262-.86-.407a1.122 1.122 0 0 1-.541-.582 3.494 3.494 0 0 1-.192-.687c-.029-.157-.058-.326.145-.401.345-.384.669-.786.97-1.205.028-.044.057-.086.088-.128a1.4 1.4 0 0 1 1.168-.605zm-.204 2.328l.697-.134a.261.261 0 0 0 .105-.053c.097-.068.184-.148.261-.238.169-.239.32-.489.477-.733.174-.489.198-.524-.314-.663a.923.923 0 0 0-.273-.03 1.986 1.986 0 0 1-.663-.087.43.43 0 0 0-.342.047c-.143.07-.269.171-.367.296-.064.083-.122.17-.174.262a2.472 2.472 0 0 1-.686.809l-.11.11a.099.099 0 0 0 .035.134h.035c.265.041.527.101.784.18.176.04.355.067.535.082v.018zm.261 1.43h.117c.261-.046.279-.121.203-.32a2.044 2.044 0 0 1-.093-.505.18.18 0 0 0-.186-.18h-.192a1.243 1.243 0 0 1-.546-.065 2.904 2.904 0 0 0-.308-.087 2.805 2.805 0 0 0-.349-.07 1.649 1.649 0 0 0-.279 0 .11.11 0 0 0-.093.11c0 .076.035.158.047.234a.524.524 0 0 0 .232.354c.154.103.32.185.494.245.137.045.271.1.401.163a.935.935 0 0 0 .535.122h.017zM77.48 86.51c0-.104-.036-.209-.059-.308a.396.396 0 0 1 .093-.366c.233-.288.448-.59.645-.902a1.04 1.04 0 0 1 1.023-.477c.21 0 .419.029.634.058.155.031.315.031.47 0 .27-.058.55-.058.82 0 .142.026.282.063.418.11a.419.419 0 0 1 .262.227c.136.247.238.511.302.786 0 .169.105.331.146.494a.291.291 0 0 1-.192.367.151.151 0 0 1-.21-.058v-.035a5.927 5.927 0 0 0-.302-.82 1.263 1.263 0 0 0-.11-.21.145.145 0 0 0-.204 0l-.104.122c-.087.117-.163.239-.262.355a1.302 1.302 0 0 1-.627.466c-.204.064-.396.157-.582.232a.975.975 0 0 1-.58.053 1.208 1.208 0 0 0-.698.081.297.297 0 0 0-.198.262.769.769 0 0 0 .07.39l.163.36a.215.215 0 0 1-.047.262.22.22 0 0 1-.261.047.262.262 0 0 1-.134-.128 2.427 2.427 0 0 0-.215-.425 1.712 1.712 0 0 1-.262-.942zm1.452-.407c.218-.049.434-.109.645-.18.327-.147.595-.399.762-.716a.128.128 0 0 0-.053-.168 1.69 1.69 0 0 0-.308-.064h-.523a.412.412 0 0 0-.284.104 2.64 2.64 0 0 0-.582.681.186.186 0 0 0 .07.256c.09.036.18.068.273.093v-.006zM68.099 104.797a2.4 2.4 0 0 1-.163.68.54.54 0 0 1-.482.292.168.168 0 0 1-.076 0 .58.58 0 0 0-.546.157l-.488.337-.105.064a.726.726 0 0 1-1.005-.244v-.04l-.14-.152a.855.855 0 0 0-.477-.402.22.22 0 0 0-.261.053c-.08.088-.153.181-.221.28a.261.261 0 0 1-.232.121 2.805 2.805 0 0 1-.814-.163 1.11 1.11 0 0 1-.663-.698.64.64 0 0 1 0-.262c.009-.089.028-.177.058-.261a.617.617 0 0 0 0-.35.105.105 0 0 1 .064-.128.168.168 0 0 1 .186 0l.053.059c.046.064.087.133.128.203.03.075.03.158 0 .233a2.225 2.225 0 0 0-.047.314.175.175 0 0 0 .116.192c.204.064.401.128.581.18a.308.308 0 0 0 .192-.034c.093-.047.18-.117.262-.163a.58.58 0 0 1 .5-.03c.193.064.371.167.523.303l.238.21c.099.09.238.12.366.081.206-.058.402-.146.581-.262.08-.045.157-.097.227-.157a.482.482 0 0 1 .442-.11h.116c.08.003.153-.05.174-.128 0-.117.053-.233.07-.35.018-.116.047-.366.07-.552a.635.635 0 0 1 .029-.117.128.128 0 0 1 .168-.07c.117.129.233.262.332.39a.768.768 0 0 1 .244.524zM66.971 95.244a1.12 1.12 0 0 1 .785.261.675.675 0 0 1 .261.39c.02.078.08.138.157.157l.151.047c.35.09.647.322.82.64.07.11.14.227.22.332.223.27.338.61.326.96 0 .09.023.18.064.261.165.386.11.83-.145 1.164a1.111 1.111 0 0 1-.093.128.64.64 0 0 1-.581.285.174.174 0 0 0-.18.163.384.384 0 0 0 .093.332l.261.261a.105.105 0 0 1-.035.14.32.32 0 0 1-.372 0 .698.698 0 0 1-.32-.436.524.524 0 0 1 0-.157 4.24 4.24 0 0 1 .07-.43.442.442 0 0 1 .326-.367 1.163 1.163 0 0 0 .715-.704.169.169 0 0 0-.047-.18 2.11 2.11 0 0 0-.215-.175.309.309 0 0 1-.075-.425c.029-.058.075-.105.11-.163a.14.14 0 0 0 0-.145.873.873 0 0 1-.424-.547.465.465 0 0 0-.157-.221.4.4 0 0 0-.297-.1 1.62 1.62 0 0 0-.313.053c-.105 0-.128.04-.192.052a.203.203 0 0 1-.21-.087.786.786 0 0 1-.15-.401 1.648 1.648 0 0 0 0-.28c0-.163-.076-.227-.227-.197a1.505 1.505 0 0 0-.907.442 1.331 1.331 0 0 1-.354.262.314.314 0 0 1-.11 0 .145.145 0 0 1-.146-.111.338.338 0 0 1 .075-.297.786.786 0 0 0 .244-.401.483.483 0 0 1 .262-.297c.184-.116.393-.188.61-.21zM64.054 98.99a.629.629 0 0 1 .075-.372c.035-.07.082-.134.116-.21a.099.099 0 0 0 0-.063h-.034a.703.703 0 0 1-.582-.309 1.257 1.257 0 0 1-.337-.867c.005-.088.02-.176.047-.261a.396.396 0 0 1 .203-.233.662.662 0 0 1 .146-.064c.292-.079.575-.19.842-.332a.203.203 0 0 1 .262.058c.05.06.093.127.128.198a.227.227 0 0 1-.093.28c-.117.058-.244.098-.366.145-.123.047-.28.093-.407.151a.854.854 0 0 0-.204.128.262.262 0 0 0 .076.477.58.58 0 0 0 .308.047c.159-.013.318.005.47.052.27.063.475.28.524.553a.367.367 0 0 1-.157.419l-.332.215a.146.146 0 0 0 0 .204.477.477 0 0 0 .117.105.261.261 0 0 0 .15.029c.105 0 .204-.064.303-.088a.238.238 0 0 1 .22.053c.096.087.183.183.262.285.069.1.188.154.308.14a.488.488 0 0 1 .152 0 .081.081 0 0 1 .052.052.436.436 0 0 1-.285.547h-.029a.186.186 0 0 1-.186-.047c-.07-.058-.128-.128-.198-.198a.18.18 0 0 0-.18-.052l-.261.052a.377.377 0 0 1-.262-.064c-.15-.104-.308-.203-.453-.32a1.065 1.065 0 0 1-.395-.71zM65.518 101.341a.743.743 0 0 0-.36.128c-.097.067-.198.13-.302.186a.151.151 0 0 1-.18-.035 1.274 1.274 0 0 1-.169-.22c-.064-.105-.11-.21-.163-.315a.21.21 0 0 0-.261-.116 3.077 3.077 0 0 1-.942.134.627.627 0 0 0-.261.087.122.122 0 0 1-.169-.146.471.471 0 0 1 .221-.36.778.778 0 0 1 .18-.082c.18-.052.355-.11.523-.151a.906.906 0 0 1 .878.204l.15.128a.279.279 0 0 0 .297.058l.192-.053a.848.848 0 0 1 .581.07l.384.204c.12.062.224.152.302.262a.785.785 0 0 0 .302.25c.274.139.493.366.622.646a.523.523 0 0 0 .244.244c.318.17.564.449.692.785.094.179.027.4-.151.495h-.07a.209.209 0 0 1-.256-.157v-.378a.43.43 0 0 0-.418-.437h-.035a.366.366 0 0 0-.11.047l-.18.087a.157.157 0 0 1-.204-.075.681.681 0 0 1-.076-.384c.009-.065.02-.13.035-.192a.215.215 0 0 0-.261-.25.842.842 0 0 0-.18.08.14.14 0 0 1-.192-.057.885.885 0 0 1-.116-.42.233.233 0 0 0-.192-.22.888.888 0 0 0-.355-.047z"/>
        <path fill="#1A1A1A" d="M68.03 99.834a.582.582 0 0 1-.193.582.384.384 0 0 0-.157.343.955.955 0 0 1 0 .262.745.745 0 0 1-.128.239.273.273 0 0 1-.383.064l-.064-.047c-.302-.204-.302-.262 0-.454l.07-.035a.128.128 0 0 0 .052-.14 1.572 1.572 0 0 1-.099-.215.314.314 0 0 1 .169-.413l.215-.104a.186.186 0 0 0 .052-.245.855.855 0 0 0-.261-.244 4.65 4.65 0 0 1-.378-.291.355.355 0 0 1-.076-.134.116.116 0 0 1 .064-.128.58.58 0 0 1 .46.058c.262.175.465.427.58.722a.856.856 0 0 1 .076.18zM78.886 88.198a.483.483 0 0 1 .186-.506c.129-.09.253-.188.372-.291.21-.16.449-.281.703-.355.05-.01.101-.01.151 0a.163.163 0 1 1 .099.29c-.163.105-.337.204-.494.32-.157.117-.349.286-.523.431a.14.14 0 0 0 0 .198c.17.148.367.261.581.332.124.04.247.086.366.14a.192.192 0 0 1 .093.232.203.203 0 0 1-.22.128 2.503 2.503 0 0 1-.739-.262c-.104-.058-.203-.128-.308-.18a.442.442 0 0 1-.261-.332.67.67 0 0 0-.006-.145zM99.85 94.953a.448.448 0 0 1 .127-.378c.233-.262.46-.524.704-.757.331-.326.674-.634.994-.971.127-.137.263-.265.406-.384.413-.373.802-.768 1.163-1.164.296-.32.581-.628.912-.937l.151-.128a.459.459 0 0 1 .407-.105h.157c.095.01.178.067.221.152l.058.104a.215.215 0 0 1 0 .227c-.136.273-.316.52-.535.733-.127.111-.238.262-.354.373-.262.262-.5.506-.756.756a4.651 4.651 0 0 1-.407.373.855.855 0 0 0-.261.39 1.42 1.42 0 0 1-.29.418c-.111.148-.232.288-.361.42a2.14 2.14 0 0 1-.36.302 2.372 2.372 0 0 0-.378.285l-.151.128c-.21.157-.43.308-.634.471a.465.465 0 0 1-.552.052l-.105-.058a.367.367 0 0 1-.156-.302zm4.905-4.474a.261.261 0 0 0-.105 0 .82.82 0 0 0-.383.261 22.4 22.4 0 0 0-1.04 1.164c-.302.334-.622.651-.96.948-.119.104-.231.215-.337.332-.327.375-.675.732-1.04 1.07l-.11.117c-.128.151-.262.308-.372.46a.099.099 0 0 0 0 .07h.034c.128-.094.262-.181.384-.28.122-.099.384-.332.581-.477a4.82 4.82 0 0 0 .785-.727c.305-.366.629-.715.97-1.048.18-.174.372-.337.547-.523l.546-.582c.064-.064.134-.128.198-.192.058-.055.11-.115.157-.18.061-.102.118-.207.168-.315a.215.215 0 0 0 0-.064l-.023-.034zM96.514 93.48a.396.396 0 0 1 .116-.337c.203-.227.407-.46.622-.669.215-.21.58-.582.877-.86.11-.123.233-.228.355-.338.366-.326.709-.681 1.04-1.048.331-.366.54-.581.814-.832l.128-.116a.407.407 0 0 1 .36-.093h.14c.084.007.159.058.197.134l.052.093a.192.192 0 0 1 0 .203 2.403 2.403 0 0 1-.465.652c-.116.099-.209.221-.313.332-.221.227-.442.448-.669.669-.116.116-.244.22-.36.331a.756.756 0 0 0-.233.344 1.257 1.257 0 0 1-.261.372 3.688 3.688 0 0 1-.32.372 1.895 1.895 0 0 1-.32.262c-.118.076-.23.164-.33.262l-.134.11c-.186.14-.384.262-.582.42a.412.412 0 0 1-.488.052l-.093-.052a.326.326 0 0 1-.133-.262zm4.347-3.961a.244.244 0 0 0-.093 0 .727.727 0 0 0-.337.238c-.308.332-.622.663-.93 1.007-.267.295-.55.575-.849.837-.106.091-.207.188-.302.291-.295.333-.607.65-.936.949l-.098.104c-.11.134-.221.262-.332.408a.087.087 0 0 0 0 .058h.03c.11-.082.226-.157.336-.25.11-.093.338-.291.524-.425.256-.183.492-.394.703-.628.27-.323.557-.632.86-.925.163-.152.331-.297.482-.454.151-.157.32-.338.483-.506l.18-.17c.052-.047.098-.1.14-.156a2.91 2.91 0 0 0 .15-.28.186.186 0 0 0 0-.087l-.011-.011zM98.28 94.255a.827.827 0 0 1 .117-.524l.058-.082a8.678 8.678 0 0 0 1.36-1.536l.099-.128a18.061 18.061 0 0 0 1.697-1.664l.209-.18.418-.36c.133-.11.29-.187.46-.222a.47.47 0 0 1 .58.262c.07.12.05.272-.052.367a3.49 3.49 0 0 0-.377.407c-.146.186-.303.366-.454.547-.244.297-.488.582-.755.867-.157.163-.297.337-.442.506l-.988 1.158a1.494 1.494 0 0 1-.21.18 4.02 4.02 0 0 1-1.458.692.21.21 0 0 1-.244-.15.425.425 0 0 1-.018-.14zm.715-.367h.035l.401-.175c.155-.072.298-.168.424-.285.31-.29.6-.599.872-.925.262-.29.523-.582.762-.86l.482-.583c.07-.093.148-.18.232-.261a7.23 7.23 0 0 0 .663-.734.047.047 0 0 0 0-.034 1.04 1.04 0 0 0-.523.192c-.122.104-.238.209-.355.32-.116.11-.18.192-.279.285-.487.447-.95.919-1.389 1.413l-1.197 1.385c-.056.073-.105.15-.145.233a.134.134 0 0 0 .029.064l-.012-.035zM86.4 109.382a.447.447 0 0 1 .448.198c0 .046.064.081.093.128a.396.396 0 0 1 0 .512c-.23.305-.549.532-.912.651a.337.337 0 0 1-.448-.163v-.04a.582.582 0 0 1-.046-.344c.074-.459.415-.83.866-.942zm.198.582a.151.151 0 0 0-.122-.17h-.07c-.218.092-.402.251-.523.455a.524.524 0 0 0-.04.151.099.099 0 0 0 .081.11H86.04c.2-.103.379-.245.523-.418a.262.262 0 0 0 .035-.128zM78.7 106.304c.15-.016.292.07.349.21.064.2.188.376.354.506.108.087.14.237.076.36a1.85 1.85 0 0 1-.46.733c-.068.063-.14.121-.215.175a.58.58 0 0 1-.906-.221.734.734 0 0 1-.076-.826c.07-.186.151-.367.233-.547a.633.633 0 0 1 .645-.39zm.093.937v-.088a.157.157 0 0 0-.087-.122.151.151 0 0 0-.175.058 1.636 1.636 0 0 0-.261.582.379.379 0 0 0 0 .076c.006.04.04.07.081.07a.39.39 0 0 0 .151-.041.908.908 0 0 0 .297-.448.483.483 0 0 0 0-.116l-.006.029zM96.99 46.656a1.42 1.42 0 0 0-.785-.99 2.685 2.685 0 0 1-.511-.307 2.76 2.76 0 0 0-.657-.367c-.232-.093-.459-.204-.686-.303-.226-.098-.58-.261-.836-.36-.582-.216-1.192-.344-1.785-.524a1.161 1.161 0 0 0-.261-.046 12.275 12.275 0 0 1-1.785-.35l-.261-.093a1.423 1.423 0 0 0-.302-.093 7.263 7.263 0 0 0-.97-.075h-1.163a4.064 4.064 0 0 0-.582 0c-.54.052-1.08 0-1.627 0a6.224 6.224 0 0 1-.709 0c-.436-.047-.872 0-1.302-.053-.43-.052-.784 0-1.162-.035l-1.4-.081H78.856l-1.267-.047h-.477c-.447 0-.895-.058-1.348-.029-.29.017-.582.017-.872 0-.622-.029-1.244 0-1.866 0-.406 0-.82.03-1.226.047a4.877 4.877 0 0 1-.581 0 7.478 7.478 0 0 0-1.04-.058l-.582.046c-.58.047-1.162.07-1.743.14-.581.07-1.261.157-1.89.203-.54.041-1.069.163-1.61.233-.232 0-.47.076-.702.11l-.43.076-1.21.21-.546.093-.935.169-1.163.18a.662.662 0 0 0-.157.03 6.76 6.76 0 0 0-1.063.32c-.6.08-1.081.537-1.192 1.134-.06.302.003.616.175.872.15.215.325.41.523.582.125.118.26.223.407.314.306.182.632.33.97.443.378.122.756.238 1.128.384a8.397 8.397 0 0 0 1.743.453c.72.11 1.442.192 2.162.285.616.076 1.232.152 1.849.245.743.11 1.487.262 2.231.355.93.128 1.86.232 2.796.337l2.29.25c.935.105 1.865.198 2.801.245.594.042 1.19.053 1.784.035h.198c.523.052 1.058 0 1.587 0h1.267c.871 0 1.743-.041 2.61-.064.66-.036 1.318-.11 1.97-.221.284-.041.58-.07.866-.128.523-.111 1.069-.158 1.61-.227.54-.07.912-.128 1.371-.204.581-.093 1.197-.21 1.796-.326.308-.058.628-.116.93-.203.459-.128.907-.286 1.36-.437a.58.58 0 0 0 .18-.081c.198-.131.416-.23.645-.291l.97-.338a.581.581 0 0 0 .32-.227.581.581 0 0 1 .28-.209c.145-.064.29-.122.43-.198.138-.08.272-.167.4-.262.105-.075.204-.163.309-.25a.227.227 0 0 0 .08-.174.582.582 0 0 0-.005-.14zm-.488 0v.076a.472.472 0 0 1 0 .11h-.081a.465.465 0 0 1-.128.128c-.11.074-.225.14-.343.198-.582.268-1.182.493-1.796.675-.483.151-.965.29-1.447.407-.82.198-1.645.402-2.482.524-.523.075-1.017.169-1.523.262l-1.214.203c-.146 0-.291.03-.43.053l-.582.087a1.69 1.69 0 0 0-.197.029c-1.047.149-2.1.244-3.156.285l-1.47.093a8.639 8.639 0 0 1-.954 0h-3.568c-.407 0-.82 0-1.227-.04l-1.11-.047c-.261 0-.523 0-.784-.047l-2.4-.197-1.285-.152-1.616-.18c-.343-.04-.686-.07-1.023-.116-.581-.076-1.162-.17-1.743-.262l-1.744-.239-1.924-.233c-.314-.046-.627-.087-.941-.145a5.946 5.946 0 0 1-.657-.151c-.668-.204-1.331-.437-1.994-.658a3.626 3.626 0 0 1-1.418-.919.42.42 0 0 1-.035-.582l.076-.064c.064-.052.128-.093.192-.145a.58.58 0 0 1 .47-.163.5.5 0 0 0 .303-.076 6.824 6.824 0 0 1 1.29-.378 5.98 5.98 0 0 1 .895-.169c.262-.029.523-.087.785-.14l1.005-.22c.262-.059.523-.128.785-.18a10.26 10.26 0 0 1 1.162-.21c.25-.017.495-.088.715-.21.142-.07.296-.113.453-.128 1.006-.18 2.023-.227 3.034-.32.907-.081 1.825-.046 2.738-.099.092-.01.186-.01.279 0 .249.026.5.026.75 0h.796c.157-.012.315.008.465.059.083.03.172.044.261.04.29-.024.582-.024.872 0h.075c.462-.02.925-.02 1.39 0 .476 0 .947.035 1.423.064.367 0 .739 0 1.11.035l1.163.04h.523l1.162.053h.28c.476 0 .947.041 1.423.047.477.006 1.081.064 1.628 0 .104 0 1.08-.093 1.464-.07a.894.894 0 0 0 .355 0 .935.935 0 0 1 .47 0c.17 0 .338.052.524.07.173.008.344.035.511.081.153.046.313.058.47.035.225-.026.451 0 .663.076l.378.128c.076 0 .146.064.221.081l1.261.355c.128.03.258.052.39.064.277.02.55.075.813.163.157.058.332.087.494.134l.983.314c.019.014.035.032.046.052h-.075c1.197.582 2.127.617 2.47 1.007.068.078.13.162.186.25l.087.04c.05.046.065.12.035.181l.023.041z"/>
        <path fill="#1A1A1A" d="M64.013 52.497l-.11.047-.785.401c-.262.14-.523.291-.808.425-.928.454-1.92.762-2.94.914l-.233.04c-.231.064-.473.078-.71.041h-.197a6.81 6.81 0 0 1-1.744-.262 3.826 3.826 0 0 0-.819-.145 2.665 2.665 0 0 1-1.035-.245.865.865 0 0 0-.186-.064c-.383-.098-.755-.244-1.133-.366a1.215 1.215 0 0 1-.657-.419 1.744 1.744 0 0 0-.226-.221.937.937 0 0 1-.302-.582 4.2 4.2 0 0 0-.064-.436 1.392 1.392 0 0 1 0-.629 6.98 6.98 0 0 1 .122-.5c.116-.413.4-.757.784-.948.151-.076.308-.152.46-.239.477-.283.933-.6 1.365-.948a1.25 1.25 0 0 1 .413-.227l.151-.047c.34-.095.605-.359.703-.698 0-.087.053-.18.076-.262a.582.582 0 0 0 0-.314 1.002 1.002 0 0 1-.035-.262c0-.174 0-.343.035-.523a.472.472 0 0 1 .087-.262c.064-.082.186-.733.261-.82.076-.088.152-.187.227-.28l.052-.058c.074-.093.163-.174.262-.239.994-.47 2.036-.827 3.11-1.064 1.394-.239 5.51-.838 6.718-1.018 2.74-.34 5.498-.535 8.259-.582 1.836 0 8.171.087 9.456.349 1.284.262 1.563.11 3.586.372 2.906.373 7.3 1.594 7.073 1.495-2.906-1.262-7.91-2.053-9.91-2.193-.58-.04-1.877-.169-2.975-.28-1.099-.11-6.289-.337-7.027-.372-.738-.035-11.002.687-12.321 1.048-1.32.36-3.057.581-4.266.948a7.55 7.55 0 0 0-1.86.733.582.582 0 0 0-.128.14h-.052l-.076.075c-.11.146-.238.582-.354.71-.116.128-.122.175-.186.262a2.656 2.656 0 0 0-.192.925c0 .213-.029.424-.087.628a.93.93 0 0 1-.686.838c-.229.068-.447.17-.645.303-.169.105-.343.198-.523.302a3.388 3.388 0 0 0-.36.239c-.303.238-.617.46-.93.68a2.065 2.065 0 0 0-.925 1.263c0 .076-.046.151-.063.233a3.11 3.11 0 0 0-.076 1.164c.037.453.22.882.523 1.221.244.262.506.507.761.757.116.11.255.194.407.244.161.06.327.108.494.146.221.036.438.096.645.18l.186.064.89.215c.103.024.208.038.313.04.33.013.657.072.971.175.624.181 1.269.277 1.918.286a5.644 5.644 0 0 0 1.842-.239 16.42 16.42 0 0 0 2.325-.896c.349-.163.68-.36 1.023-.524a.721.721 0 0 0 .36-.453.239.239 0 0 0-.08-.262.174.174 0 0 0-.152-.024zM44.246 72.943a10.302 10.302 0 0 0-.33-1.502 2.177 2.177 0 0 0-.291-.581 1.105 1.105 0 0 0-.43-.373 1.586 1.586 0 0 0-.355-.145c-.314-.07-.581-.221-.878-.314-.296-.093-.784-.134-.918-.291-.134-.157-.761-.582-.883-.681-.332-.314-1.488-1.524-1.872-1.78a2.325 2.325 0 0 1-.215-.175c-.261-.215-.5-.442-.761-.652-.262-.209-.401-.349-.581-.523a5.093 5.093 0 0 0-.407-.367l-.581-.523c-.378-.35-.756-.699-1.099-1.07-.116-.123-.261-.234-.383-.344l-.233-.204-1.081-1c-.157-.146-.325-.291-.482-.443-.5-.494-.669-.715-1.163-1.216-.11-.11-.372-.582-.482-.68-.11-.1-.28-.483-.442-.64a7.28 7.28 0 0 0-1.04-.931l-.116-.082-1.11-.826a1.586 1.586 0 0 0-.489-.262.778.778 0 0 0-.226-.046 2.038 2.038 0 0 0-.663.075 1.562 1.562 0 0 1-.523.11.261.261 0 0 0-.116 0 2.446 2.446 0 0 0-.75.402.54.54 0 0 1-.192.128.657.657 0 0 0-.395.396c-.035.093-.076.18-.11.262a1.27 1.27 0 0 0 0 .168 2.33 2.33 0 0 0 .174 1.048c.099.188.186.382.261.582.086.216.212.413.372.581.355.39.71.786 1.064 1.164.523.582 1.04 1.117 1.622 1.64.399.375.829.716 1.284 1.019.141.087.277.182.407.285.65.541 1.302 1.082 1.9 1.658.276.272.584.509.919.704.272.159.52.355.738.582.343.343 1.162 1.012 1.546 1.35l.081.064c1.011 1.03 1.162 1.088 1.744 2.217.039.424.12.843.244 1.25.099.192.697 1.903 1.476 1.833h.04a.378.378 0 0 0 .152-.262c.035-.093-.14-.192-.14-.232a3.609 3.609 0 0 1-1.214-2.479c-.088-.942-.686-1.57-1.628-2.327a28.174 28.174 0 0 0-2.563-2.24c-2.156-1.815-4.65-3.404-6.317-5.545-.233-.262-.477-.524-.71-.803a3.69 3.69 0 0 1-.86-1.67 1.165 1.165 0 0 1 .047-.686c0-.07.04-.146.064-.215a.669.669 0 0 1 .447-.402.105.105 0 0 1 .076 0c.01.016.01.036 0 .052-.05.112-.106.22-.169.326a.396.396 0 0 0-.075.274.18.18 0 0 1 0 .064c-.033.272.003.548.104.803.06.191.157.369.285.523.094.11.181.224.262.344.164.26.382.482.639.651.192.121.357.282.482.471 1.785 1.984 4.197 3.666 6.26 5.534a22.094 22.094 0 0 1 2.115 1.925c.837 1.019 1.674 1.746 1.744 2.211.145.908.692 2.368 1.511 2.98h.14a.285.285 0 0 0 .261-.449 1.489 1.489 0 0 1-.523-.54c-.134-.327-.442-.786-.535-1.007-.279-.652.064-.879-.924-2.235-.145-.197-.82-.698-.994-.872a136.072 136.072 0 0 0-2.162-2.048 5.755 5.755 0 0 0-.738-.582 1.43 1.43 0 0 1-.279-.262 1.099 1.099 0 0 0-.296-.239 1.628 1.628 0 0 1-.384-.302 3.97 3.97 0 0 0-.418-.36 4.03 4.03 0 0 1-.581-.524c-.19-.215-.4-.41-.628-.582a1.953 1.953 0 0 1-.21-.18c-.394-.39-.854-.74-1.266-1.118-.413-.378-.89-.872-1.32-1.326a29.63 29.63 0 0 0-.424-.437 5.537 5.537 0 0 1-.697-.785l-.041-.052a3.194 3.194 0 0 1-.674-.89 1.223 1.223 0 0 1 .087-1.56.662.662 0 0 1 .325-.198c.267-.088.557-.067.808.058.137.08.27.167.396.262.377.262.296.221.668.495.163.116.581.582.726.675.307.248.584.53.826.843.162.175.261.547.424.722a.582.582 0 0 1 .203.326c.012.041.034.08.064.11.222.318.467.62.733.902.284.29.552.582.83.884.28.303.524.524.785.786.144.135.295.261.454.378.222.15.418.334.58.547.076.098.164.186.262.262.291.262.582.523.884.785.197.163.407.314.581.471l.081.064c.425.425.907.81 1.355 1.222.073.073.15.141.232.204.378.262 1.5 1.379 1.825 1.699.192.192.895.582 1.087.774.192.192.668.133.837.174a2.8 2.8 0 0 1 .581.215c.168.095.348.165.535.21.062.012.12.04.168.081.247.21.462.456.64.728a.39.39 0 0 1 .046.122c.084.275.154.555.21.838.052.308.104.616.168.925.02.005.036.017.046.035.088.261.128.36.36.18.233-.18.117-.262.129-.495a.046.046 0 0 1-.041-.052l.011-.046z"/>
        <path fill="#1A1A1A" d="M28.479 59.421a.419.419 0 0 1-.303.32c-.052 0-.098.04-.15.052a.459.459 0 0 1-.5-.087 1.24 1.24 0 0 1-.43-.803.309.309 0 0 1 .29-.326.749.749 0 0 1 .355 0 .97.97 0 0 1 .738.617.722.722 0 0 1 0 .227zm-.582.082c.128 0 .227-.053.21-.128a.762.762 0 0 0-.326-.472l-.128-.04a.105.105 0 0 0-.133.064.32.32 0 0 0 0 .064c.057.173.155.33.284.46.029.017.06.029.093.034v.018zM107.65 90.816a6.907 6.907 0 0 0-.175-.524.238.238 0 0 0-.238-.174.14.14 0 0 1-.157-.117.582.582 0 0 0-.308-.349l-.669-.343a.325.325 0 0 0-.11-.046 2.602 2.602 0 0 1-.785-.286 3.484 3.484 0 0 0-.837-.261l-1.645-.262-1.528-.245a.76.76 0 0 1-.36-.15.72.72 0 0 0-.82-.065c-.186.1-.378.192-.581.303a1.366 1.366 0 0 0-.366.296c-.067.082-.141.158-.221.227a2.146 2.146 0 0 0-.482.524.826.826 0 0 1-.128.151l-.523.541-.715.687c-.467.43-.908.89-1.32 1.373-.17.204-.312.429-.424.67-.095.19-.14.403-.128.616.001.132.02.263.058.39.11.302.105.628.192.936.059.22.042.454-.046.664a4.721 4.721 0 0 1-.227.506c-.25.454-.5.907-.756 1.355-.055.091-.115.179-.18.262-.226.314-.459.617-.68.931-.179.252-.373.493-.58.722-.135.163-.262.337-.385.506a9.866 9.866 0 0 1-.58.727c-.367.471-.739.937-1.163 1.385-.134.145-.244.314-.36.471l-.215.285-1.04 1.344c-.152.198-.303.402-.466.582-.523.632-1.052 1.26-1.586 1.885-.122.14-.262.262-.378.407-.116.146-.36.39-.523.582-.365.455-.691.94-.977 1.449l-.081.134c-.28.436-.581.867-.837 1.309a1.624 1.624 0 0 0-.227.547.647.647 0 0 0 0 .232c.023.225.094.441.21.635.107.136.182.295.22.465a.21.21 0 0 0 .053.105c.203.203.331.483.616.582a.488.488 0 0 1 .186.145c.14.175.357.273.581.262h.553a3.793 3.793 0 0 0 1.254-.483c.221-.145.436-.303.663-.436.24-.14.455-.317.64-.524l1.266-1.373c.582-.67 1.203-1.344 1.744-2.06a11.8 11.8 0 0 0 1.04-1.547 4.8 4.8 0 0 1 .285-.477c.581-.786 1.116-1.571 1.744-2.328.29-.314.541-.662.75-1.035.153-.32.349-.617.58-.885.373-.43.721-.884 1.076-1.326l.07-.1c.546-.913 1.057-1.663 1.162-1.268 0 .146.22-.192.325-.296.274-.273.612-.473.983-.582.265-.084.515-.208.744-.367.317-.215.609-.465.871-.744.227-.245.465-.472.704-.699.365-.349.754-.673 1.162-.971.36-.262.72-.535 1.081-.809.049-.045.101-.086.157-.122a1.5 1.5 0 0 0 .43-.35c.36-.389.715-.785 1.093-1.163.268-.293.504-.615.703-.96.085-.119.156-.248.21-.384.087-.25.202-.49.342-.715a.635.635 0 0 0 .076-.18.42.42 0 0 0-.018-.187zm-22.784 20.945a.581.581 0 0 1-.296-.261.85.85 0 0 1-.064-.797c.072-.157.153-.308.244-.454.262-.442.535-.885.802-1.327l.349-.582c.266-.417.574-.807.918-1.163.186-.21.384-.408.581-.582a.849.849 0 0 1 .366-.297.378.378 0 0 0 .128-.093c.35-.305.68-.631.988-.977.308-.361.634-.71.948-1.07.314-.362.58-.664.842-1.002.14-.174.262-.366.39-.547.158-.261.354-.499.581-.704.107-.097.203-.206.285-.325.261-.361.546-.716.808-1.083.168-.232.32-.488.482-.733l.064-.099c.453-.535.849-1.117 1.279-1.675.075-.09.145-.186.209-.285l.785-1.344c.14-.27.246-.558.313-.856a.874.874 0 0 0 0-.523 2.47 2.47 0 0 1-.104-.582 1.84 1.84 0 0 0-.099-.582.361.361 0 0 1 0-.198c.07-.363.19-.715.354-1.047a.582.582 0 0 1 .1-.128c.238-.262.464-.541.726-.785.395-.373.784-.757 1.162-1.164.078-.071.15-.15.215-.233.215-.302.483-.582.715-.85a.581.581 0 0 1 .204-.185c.176-.09.342-.199.494-.326.231-.188.516-.297.813-.314.5-.344.163 0 .814 0 .314 0 1.162.174 2.04.349.465.081.93.157 1.4.22.216.037.424.108.617.21l.261.064a.93.93 0 0 1 .424.157.087.087 0 0 1 .122-.04l.14.07c.088.057.18.11.273.157.165.087.307.213.413.366.039.04.039.105 0 .146-.09.112-.188.219-.29.32a59.47 59.47 0 0 1-1.285 1.163l-.087.082c-.651.715-1.395 1.338-2.064 2.036-.093.099-.186.192-.261.285-.25.28-.523.524-.785.803a9.773 9.773 0 0 1-1.017.884 4.88 4.88 0 0 1-.883.524 2.613 2.613 0 0 1-.378.128l-.494.145a1.389 1.389 0 0 0-.523.291 1.564 1.564 0 0 1-.32.239 3.488 3.488 0 0 0-.9.774c-.198.215-.39.43-.582.651a2.151 2.151 0 0 1-.523.472 1.396 1.396 0 0 0-.477.47c-.098.158-.215.303-.325.455a2.13 2.13 0 0 0-.169.262c-.19.363-.413.708-.668 1.03-.218.29-.412.597-.581.919-.072.126-.16.244-.262.349a1.326 1.326 0 0 0-.261.355c-.08.167-.184.322-.308.46-.138.165-.264.34-.378.523-.171.258-.366.5-.581.721a5.445 5.445 0 0 0-.616.786 2.403 2.403 0 0 1-.186.262c-.419.494-.767 1.047-1.163 1.57-.395.524-.93 1.123-1.412 1.67-.157.18-.314.361-.465.541a7.415 7.415 0 0 1-.837.902l-.058.053c-.282.352-.615.66-.988.913a1.98 1.98 0 0 1-1.162.5 1.516 1.516 0 0 1-.78-.145l-.017.081zm21.86-19.933a.611.611 0 0 0-.07.14c-.156.32-.373.604-.64.838-.308.331-.442.471-.738.809a7.187 7.187 0 0 1-.663.64c-.354.279-.58.494-.912.762-.262.198-.535.384-.802.582-.224.173-.43.368-.616.581-.1.106-.21.203-.326.291l-1.162.937c-.23.188-.497.323-.785.396-.51.142-.976.413-1.354.785-.174.157-.354.314-.523.483a3.49 3.49 0 0 0-.581.663 4.375 4.375 0 0 1-.5.67l-.105.122c-.313.407-.633.814-.97 1.204-.221.25-.398.535-.523.844-.062.145-.14.284-.233.413a5.19 5.19 0 0 1-.424.581c-.384.472-.738.972-1.087 1.467-.174.261-.366.488-.54.733-.126.154-.237.32-.332.494a7.565 7.565 0 0 1-.633 1.007c-.248.36-.518.707-.808 1.035-.285.332-.552.681-.837 1.007-.285.326-.581.617-.872.925l-.872.925a5.65 5.65 0 0 1-1.906 1.333c-.266.12-.557.173-.848.157h-.28a.686.686 0 0 1-.58-.309.07.07 0 0 1 .034-.087h.035c.145.015.288.039.43.07a.58.58 0 0 0 .349 0h.076a2.7 2.7 0 0 0 .964-.343c.215-.115.411-.262.582-.437.122-.122.261-.233.383-.343.28-.223.515-.497.692-.809.13-.224.302-.421.505-.582a.745.745 0 0 0 .262-.378.698.698 0 0 1 .174-.262c.332-.378.674-.75.988-1.163.314-.413.506-.646.785-.954a.64.64 0 0 0 .099-.128c.18-.344.418-.646.622-.972.106-.152.185-.321.232-.5.031-.13.091-.251.174-.355.088-.116.166-.238.233-.367.1-.186.218-.362.354-.524a.814.814 0 0 1 .204-.186c.163-.113.31-.248.436-.401a.879.879 0 0 0 .203-.338.785.785 0 0 1 .343-.47l.058-.053c.256-.19.473-.427.64-.698.066-.1.142-.194.226-.28.254-.29.463-.615.622-.966.051-.107.113-.208.186-.302.151-.215.32-.425.46-.652a.866.866 0 0 1 .406-.366c.257-.116.479-.297.645-.524.042-.05.09-.097.14-.14.223-.2.419-.428.58-.68.135-.2.314-.366.524-.483.124-.075.244-.157.36-.245a.47.47 0 0 1 .297-.087c.411.011.816-.102 1.162-.326a8.428 8.428 0 0 0 1.255-.907c.332-.285.622-.611.93-.925.122-.123.233-.262.35-.384.164-.19.345-.365.54-.524.08-.066.158-.135.232-.21.32-.32.645-.628.942-.965.418-.466.877-.885 1.33-1.31.13-.112.246-.241.343-.383.1-.153.236-.28.396-.367.197.524-.1.524-.28.786l.018.005zM62.142 102.313a1.048 1.048 0 0 1-.11-.42 1.234 1.234 0 0 0-.303-.802.18.18 0 0 1 0-.221c.045-.084.084-.172.116-.262a.35.35 0 0 0 0-.192.442.442 0 0 0-.21-.28 1.852 1.852 0 0 0-1.161-.261c-.171.024-.336.077-.489.157a.291.291 0 0 0-.157.332.302.302 0 0 0 .32.186c.077-.013.153-.032.227-.058a2.16 2.16 0 0 1 .825-.076.105.105 0 0 1 .093.122c-.058.105-.128.204-.18.309a.402.402 0 0 0 .14.546h.04c.098.042.191.092.279.152.03.026.045.065.04.104-.019.078-.044.154-.075.227a.478.478 0 0 0 .047.42c.04.07.087.127.127.197a.169.169 0 0 1-.034.215.302.302 0 0 1-.204.117h-.157a.285.285 0 0 0-.22.262v.238a.204.204 0 0 1-.204.21h-.151a.262.262 0 0 0-.238.226.623.623 0 0 1-.262.425c-.15.11-.307.21-.47.297-.156.072-.318.13-.483.174a.238.238 0 0 1-.302-.128 1.536 1.536 0 0 0-.297-.372c-.087-.081-.087-.087 0-.227a.081.081 0 0 0 0-.116l-.261-.1c-.163-.057-.326-.11-.483-.174a.186.186 0 0 1-.07-.296c.064-.07.134-.128.204-.187a.291.291 0 0 0 .099-.209 3.238 3.238 0 0 0-.04-.436.262.262 0 0 0-.181-.204.888.888 0 0 0-.227-.052h-.279a.18.18 0 0 1-.18-.21.675.675 0 0 1 .442-.582c.099-.04.197-.075.296-.116a.227.227 0 0 0 .122-.192.413.413 0 0 0-.122-.367c-.07-.064-.14-.122-.203-.186a.262.262 0 0 1-.07-.262.582.582 0 0 1 .047-.157.343.343 0 0 1 .244-.238c.076-.02.154-.034.232-.04l.43-.053a.58.58 0 0 0 .29-.122.239.239 0 0 0 .042-.338l-.041-.04a.122.122 0 0 0-.145 0 .489.489 0 0 0-.07.098.262.262 0 0 1-.262.157h-.436a.581.581 0 0 0-.505.262 1.1 1.1 0 0 0-.151.838 4.107 4.107 0 0 0-.622.32s-.634.343-.738.582c-.105.238-.198.099-.146.54.053.443-.145.495.053.74a1 1 0 0 1 .296.442c.145.343 0 .39.145.541.033.101.075.199.128.291.113.197.28.357.483.46.349.159.733.227 1.115.197a.75.75 0 0 0 .227-.064c.052 0 .093-.052.14-.07a.14.14 0 0 1 .14.053c.034.076.063.145.092.221.029.074.062.146.099.215.082.159.253.25.43.233a.987.987 0 0 0 .262-.046 2.43 2.43 0 0 0 1.267-.908l.145-.239c.033-.06.1-.092.168-.081h.198a.314.314 0 0 0 .32-.192c.069-.141.157-.272.261-.39.062-.069.12-.14.175-.215a.873.873 0 0 0 .093-.925zm-4.069 2.001h-.744a.616.616 0 0 1-.447-.233c-.13-.15-.22-.33-.262-.523-.029-.239-.081-.477-.081-.477a.151.151 0 0 0-.076-.076l-.087-.023c-.32-.582-.465-.477-.122-.966.186-.235.415-.432.674-.582a1.31 1.31 0 0 0-.081.245 1.444 1.444 0 0 0 0 .634c.04.228.2.418.418.494.053 0 .1 0 .151.047.02.015.03.039.03.064 0 .116-.064.233-.1.343-.071.2-.029.423.111.582a.884.884 0 0 0 .413.343l.18.076c.01.02.01.044 0 .064a.128.128 0 0 1-.052.04l.075-.052zM56.22 50.455a.838.838 0 0 1-.204-.372.157.157 0 0 0-.105 0 .169.169 0 0 0-.128.14.547.547 0 0 0 0 .157c.035.46.053.913.11 1.373a.43.43 0 0 0 .192.366c.123.053.28.122.35 0 .041-.091.074-.187.098-.285v-.128a4.659 4.659 0 0 0-.203-.971.88.88 0 0 0-.11-.28z"/>
        <path fill="#1A1A1A" d="M61.531 51.456a.262.262 0 0 0-.308-.186 3.415 3.415 0 0 0-.523.18c-.581.274-1.162.582-1.743.85a4.39 4.39 0 0 1-1.744.413c-.2.007-.4-.035-.581-.122a3.316 3.316 0 0 1-.616-.158l-.239-.104-.186-.047c-.186-.064-.377-.122-.58-.198a.657.657 0 0 1-.42-.663c.008-.296.119-.58.315-.803.145-.174.302-.337.447-.506a.785.785 0 0 0 .151-.18.925.925 0 0 1 .454-.425c.116-.064.232-.122.348-.192a.454.454 0 0 0 .21-.32.122.122 0 0 0-.14-.122.366.366 0 0 0-.116 0l-.634.331-.128.088-.464.366c-.289.214-.541.47-.75.762a1.165 1.165 0 0 0-.146 1.135c.113.34.313.646.582.884.03.024.057.052.081.082a1 1 0 0 0 .494.314c.34.12.687.215 1.04.285.156.03.308.076.454.14.146.06.295.112.447.157a.854.854 0 0 0 .657-.053c.217-.099.445-.169.68-.21.155-.032.307-.079.453-.139.715-.285 1.378-.675 2.087-.977.106-.053.204-.122.29-.204a.378.378 0 0 0 .128-.378zM89.254 87.564c0-.226-.016-.452-.046-.675a.843.843 0 0 0-.581-.733 1.638 1.638 0 0 1-.221-.093 2.381 2.381 0 0 0-.581-.198 1.394 1.394 0 0 1-.227-.058 3.09 3.09 0 0 0-.93-.187.32.32 0 0 1-.18-.064.476.476 0 0 0-.523-.104l-.03.04c-.091.097-.166.21-.22.332a5.063 5.063 0 0 0-.669 1.222 2.574 2.574 0 0 0-.337-.192 2.02 2.02 0 0 0-.61-.146 4.964 4.964 0 0 0-.947 0c-.318.017-.629.1-.913.245-.117.058-.237.11-.36.157-.264.12-.51.279-.727.471a.262.262 0 0 0-.104.244c.017.239.049.476.093.71.05.207.082.417.099.629.026.21.076.417.15.616a.675.675 0 0 0 .28.373c.27.214.598.344.941.372.117 0 .233.035.355.047.21.025.41.103.581.227a.105.105 0 0 1 0 .15 2.842 2.842 0 0 1-.866.548 4.59 4.59 0 0 0-.494.244c-.09.056-.17.124-.238.204a.338.338 0 0 0-.087.366.32.32 0 0 1 .029.157c-.011.212.01.424.064.629.059.408.19.802.389 1.163.07.146.203.251.36.285.262.07.523.134.762.21.248.039.498.056.75.052a.21.21 0 0 0 .11-.029c.188-.099.382-.186.581-.262.107-.053.206-.12.296-.197a.309.309 0 0 0 .093-.425v-.035a.151.151 0 0 0-.203-.064c-.11.07-.22.145-.325.227-.202.15-.423.274-.657.366a.766.766 0 0 1-.465.035l-.651-.174a.46.46 0 0 1-.29-.262 2.911 2.911 0 0 1-.297-.99 2.33 2.33 0 0 1 0-.715.367.367 0 0 1 .22-.308l.262-.122c.398-.18.778-.399 1.134-.652.177-.132.373-.238.58-.314a1.19 1.19 0 0 1 .384-.076c.12-.01.238.04.314.134.11.134.213.274.308.419a.396.396 0 0 1 0 .448.523.523 0 0 1-.168.157c-.239.14-.488.262-.727.413-.171.1-.35.188-.534.262a.9.9 0 0 1-.617.035l-.226-.07c-.186-.064-.372-.134-.581-.192a.128.128 0 0 0-.105.04.157.157 0 0 0-.035.105.21.21 0 0 0 .047.105.477.477 0 0 0 .22.157c.376.142.766.245 1.163.309a.58.58 0 0 0 .279 0c.197-.076.395-.146.581-.233.16-.064.325-.11.494-.14a.122.122 0 0 1 .151.134c.007.093.007.186 0 .28 0 .127-.058.261-.075.39a1.09 1.09 0 0 0 0 .273.163.163 0 0 0 .203.11.61.61 0 0 0 .18-.145c.146-.207.236-.447.262-.698.038-.29.038-.584 0-.873a1.048 1.048 0 0 1 0-.28 1.165 1.165 0 0 0-.221-.86c0-.047-.047-.1-.076-.14a3.397 3.397 0 0 0-.226-.262.465.465 0 0 0-.28-.14 1.742 1.742 0 0 0-.784 0h-.116a.192.192 0 0 1-.18-.058.505.505 0 0 0-.477-.215.261.261 0 0 1-.11-.035c-.2-.07-.406-.12-.616-.145l-.39-.076a1.26 1.26 0 0 1-.47-.058c-.262-.076-.297-.076-.297-.303 0-.227-.105-.523-.145-.785-.076-.5 0-.408.377-.437.131.003.26.026.384.07.215.058.43.128.645.192.102.03.201.07.297.117.137.083.302.11.459.075a.14.14 0 0 1 .157.093l.354.71c.04.082.085.162.134.239a.285.285 0 0 0 .197.122.169.169 0 0 0 .18-.151.786.786 0 0 0-.046-.192 3.86 3.86 0 0 0-.244-.5.332.332 0 0 1 0-.373c.052-.093.099-.186.157-.274.192-.296.384-.581.581-.89.08.102.15.211.21.326.116.145.215.303.296.471.084.149.12.32.104.489 0 .262.07.419.245.419.174 0 .133-.617-.105-1.193a.9.9 0 0 0 .447.058l.75-.081a.923.923 0 0 1 .198 0 .227.227 0 0 1 .261.238v.675a.122.122 0 0 1-.11.1c-.401-.053-.808-.065-1.197-.158.025.125.041.251.046.378.208.11.435.179.668.204.158 0 .315.011.471.035.21.035.424.035.634 0a.418.418 0 0 0 .238-.128c.17-.186.332-.38.482-.582.196-.256.289-.575.262-.896 0-.174-.006-.32-.012-.465zm-4.504-.128a6.85 6.85 0 0 1-.494.814.261.261 0 0 1-.261.122h-.163a.87.87 0 0 1-.616-.052l-.523-.18-.721-.221-.186-.059a.122.122 0 0 1-.035-.168v-.03c.245-.18.516-.323.802-.424a.58.58 0 0 1 .233-.04c.183.01.368-.007.546-.053.355-.051.715-.051 1.07 0 .053.01.108.01.162 0 .042.061.09.118.145.168a.116.116 0 0 1 0 .128l.041-.005zm3.406-.856c-.058.216-.11.437-.169.652-.058.215-.087.28-.133.419a.198.198 0 0 1-.18.14 4.11 4.11 0 0 1-.524 0c-.328-.031-.659-.031-.988 0a.935.935 0 0 1-.261 0 1.098 1.098 0 0 1-.18-.064l-.117-.123-.238-.22.151-.076.366-.757.152-.372a.691.691 0 0 1 .482-.169c.191-.042.39-.042.581 0l.72.21c.091.022.175.066.245.128a.227.227 0 0 1 .087.232h.006zm.581 1.816s-.366.739-.407.628a3.593 3.593 0 0 0-.11-.407c-.076-.186.035-.221.075-.477.02-.197.057-.392.11-.582.076-.262.187-.367.332-.262.145.105 0 .925 0 1.111v-.011z"/>
        <path fill="#C6C6C6" d="M88.667 16.721c.038.677.024 1.356-.04 2.031-.035.343-.117.68-.186 1.018a10.072 10.072 0 0 1-1.081 2.91c-.483.872-1.023 1.704-1.564 2.53-.29.437-.581.879-.854 1.32-.109.176-.235.34-.378.49a3.717 3.717 0 0 0-.436.547 9.016 9.016 0 0 0-.581 1.082c-.21.436-.39.884-.633 1.309a3.493 3.493 0 0 0-.204.454c-.261.68-.54 1.361-.802 2.048a4.46 4.46 0 0 0-.262 1.379c-.015.304-.015.609 0 .913.012.305.057.607.134.902.131.456.327.891.581 1.291.198.302.445.568.733.786.224.16.486.261.761.29.164.027.329.045.494.053.404.02.806-.071 1.162-.262.505-.254.977-.569 1.407-.936.191-.167.354-.363.482-.582.228-.359.396-.752.5-1.164.101-.474.127-.96.076-1.443a1.164 1.164 0 0 0-.186-.5 1.745 1.745 0 0 0-.442-.489.4.4 0 0 0-.349-.087 1.162 1.162 0 0 0-.523.204.168.168 0 0 1-.15 0 2.47 2.47 0 0 1-.326-.262.186.186 0 0 1 0-.268.848.848 0 0 1 .191-.076c.231-.042.467-.042.698 0a2.324 2.324 0 0 1 1.366.722.896.896 0 0 1 .226.343c.11.24.15.506.117.768a.681.681 0 0 0 0 .163c0 .472-.081.94-.239 1.385a3.177 3.177 0 0 1-.918 1.454c-.262.239-.54.472-.808.71a1.745 1.745 0 0 0-.22.245.692.692 0 0 1-.285.232c-.332.134-.651.303-.994.413-.21.066-.432.088-.651.064-.192 0-.384-.058-.581-.075a1.684 1.684 0 0 1-.657-.233 4.069 4.069 0 0 1-.785-.582 4.859 4.859 0 0 1-1.092-1.745 4.624 4.624 0 0 1-.355-1.653c-.051-.942.1-1.884.442-2.763.331-.838.633-1.682 1.023-2.49.168-.35.313-.704.47-1.065.184-.418.403-.82.657-1.199.488-.739.965-1.483 1.441-2.222.477-.74.86-1.35 1.273-2.037.355-.581.675-1.204.977-1.832.166-.351.296-.717.39-1.094a11.03 11.03 0 0 0 .325-1.96c0-.193 0-.385.029-.583.029-.198 0-.279 0-.413.02-.36.005-.72-.047-1.076-.04-.314-.104-.629-.15-.943 0-.134-.042-.262-.053-.413a2.33 2.33 0 0 0-.163-.68c-.087-.222-.163-.443-.262-.658a2.811 2.811 0 0 0-.145-.297c-.18-.326-.36-.651-.54-.983a1.787 1.787 0 0 1-.105-.262.082.082 0 0 1 0-.075.226.226 0 0 1 .11 0c.027.007.05.02.07.04.128.106.238.232.326.373.122.203.244.401.383.581.16.225.285.472.372.734.099.261.192.546.308.814.085.204.148.417.186.634.097.543.184 1.09.262 1.641.042.174.067.351.075.53zM73.876 21.638c.116-.343.296-.937.546-1.513.116-.262.215-.541.326-.809.046-.115.103-.226.168-.331l.785-1.216c.046-.07.093-.134.134-.21a6.98 6.98 0 0 1 1.22-1.512c.128-.123.244-.262.36-.396.117-.134.332-.407.523-.582.465-.471.884-.989 1.302-1.495a8.221 8.221 0 0 0 1.11-1.594c.093-.186.196-.367.308-.541.208-.342.383-.702.524-1.077.196-.448.22-.954.07-1.42a4.6 4.6 0 0 1-.21-.965 1.013 1.013 0 0 0-.157-.42 1.546 1.546 0 0 0-.825-.65c-.151-.059-.308-.129-.46-.187a2.41 2.41 0 0 0-1.336-.128c-.262.052-.523.105-.785.145-.32.083-.617.24-.866.46a.297.297 0 0 0-.128.21 2.23 2.23 0 0 1-.32.715.581.581 0 0 1-.278.239.075.075 0 0 1-.076 0 .978.978 0 0 1-.174-.42.262.262 0 0 1 0-.156c.085-.19.188-.371.308-.541a1.57 1.57 0 0 0 .192-.262c.203-.349.528-.61.912-.733a7.99 7.99 0 0 1 .913-.274c.12-.03.243-.043.366-.035.484.007.962.11 1.406.303.1.046.204.081.308.122.209.087.405.203.582.343a.704.704 0 0 1 .15.14c.18.244.367.483.524.745a.984.984 0 0 1 .104.395c.041.344.121.682.239 1.007a2.912 2.912 0 0 1 0 1.873 8.15 8.15 0 0 1-.715 1.49c-.087.14-.169.285-.262.43-.093.146-.075.146-.116.221a4.452 4.452 0 0 1-.227.396c-.261.384-.58.739-.825 1.164a.651.651 0 0 1-.081.093c-.303.326-.581.651-.901.971-.32.32-.54.512-.796.786-.256.273-.483.582-.762.82a2.56 2.56 0 0 0-.354.402c-.266.373-.508.761-.727 1.163-.075.146-.168.285-.261.43-.14.263-.28.507-.413.769-.046.1-.08.206-.105.314a7.459 7.459 0 0 1-.366 1.1 2.195 2.195 0 0 0-.093.36c-.028.178-.07.353-.128.524-.174.422-.278.87-.308 1.327 0 .163-.046.331-.052.494-.015.235-.015.47 0 .704.035.495.076.99.151 1.484.08.449.183.894.308 1.332.02.08.047.158.082.233.309.74.836 1.366 1.51 1.798.297.174.582.36.884.523.276.163.593.24.913.221h.08a.714.714 0 0 1 .582.222.221.221 0 0 1 .047.314l-.047.046a.447.447 0 0 1-.104.064c-.37.15-.78.173-1.163.064l-.122-.035a2.522 2.522 0 0 1-1.162-.634c-.37-.313-.7-.67-.983-1.065a41.038 41.038 0 0 1-.691-.983c-.17-.268-.3-.56-.384-.867-.035-.104-.058-.21-.087-.32a58.46 58.46 0 0 1-.238-.966 3.902 3.902 0 0 1-.082-.448c-.104-.77-.14-1.55-.104-2.327.037-.626.15-1.245.337-1.844zM62.345 24.913c.094.346.209.686.343 1.019.219.568.481 1.118.784 1.646.238.437.514.852.826 1.24.104.127.203.261.296.4.465.653.988 1.263 1.494 1.88.331.407.657.82.982 1.228.326.407.72.942 1.064 1.431.21.306.404.622.58.948.239.425.454.862.646 1.31.176.406.294.835.349 1.274 0 .168.046.337.064.5a.74.74 0 0 1 .046.36c.043.316.043.634 0 .95 0 .18-.04.366-.058.552-.017.186.14.128.325 0a1.45 1.45 0 0 0 .338-.582 6.022 6.022 0 0 0 0-1.449c-.047-.413-.088-.826-.14-1.233a3.412 3.412 0 0 0-.279-.954 15.98 15.98 0 0 0-.372-.786 13.034 13.034 0 0 0-1.453-2.263c-.279-.343-.54-.698-.82-1.047-.383-.472-.784-.937-1.162-1.408l-.75-.937c-.29-.368-.579-.739-.865-1.111-.29-.39-.553-.8-.785-1.228-.262-.471-.47-.966-.71-1.454a3.325 3.325 0 0 1-.33-1.164c0-.36-.076-.716-.11-1.07a7.286 7.286 0 0 1 0-1.368c.013-.25.07-.496.168-.727.122-.28.226-.582.354-.838.199-.41.468-.783.796-1.1.16-.166.36-.288.582-.355l1.028-.314c.305-.098.63-.114.942-.046h.122c.692.128.482.052 1.104.506.218.168.414.363.581.582.098.116.186.24.262.372a.582.582 0 0 1 .047.524.297.297 0 0 0 0 .081c0 .058.046.105.104.105.11-.01.218-.028.326-.052a.454.454 0 0 0 .325-.472 1.31 1.31 0 0 0-.07-.32 3.195 3.195 0 0 0-.383-.727c-.105-.151-.215-.285-.32-.43a1.524 1.524 0 0 0-.308-.332L68.244 18a2.12 2.12 0 0 0-1.162-.581 1.469 1.469 0 0 0-.698-.047c-.366.07-.738.116-1.092.21-.458.114-.88.337-1.233.651a5.428 5.428 0 0 0-1.458 1.932c-.047.116-.11.22-.169.337-.176.37-.304.762-.383 1.164-.049.272-.065.55-.047.826.024.817.139 1.629.343 2.42z"/>
    </g>
</svg>
