<svg xmlns="http://www.w3.org/2000/svg" width="136" height="128" viewBox="0 0 136 128">
    <g fill="none" fill-rule="evenodd">
        <path fill="#FFF" d="M0 0h136v127.863H0z" opacity=".01"/>
        <path fill="#E0D5C0" d="M14.396 72.376c-3.97.285-12.786-5.66-7.09-15.28C13 47.479 19.76 51.147 26.59 44.085c0 0 3.12-2.83-1.418-7.637-4.54-4.807-7.94-5.946 3.405-13.019s56.161-4.83 56.161-4.83 17.587 0 24.963 5.376c7.375 5.376 14.466 16.977 17.302 24.335 2.836 7.358 4.824 15.559-.581 16.413-5.405.854-5.957 1.982-8.509-5.66-2.551-7.644.779-10.573-2.836-12.45-3.615-1.877-13.949-2.26-17.018-.849-3.068 1.413 0 2.779-2.97 3.796s.14-.971-4.114-2.674c-4.255-1.703-10.497-2.26-19.29-1.982-8.794.28-12.205-.848-17.018 1.982-4.812 2.83-9.63 5.115-8.752 7.376.877 2.26 3.405 1.133 3.97 5.94.563 4.806 1.417 14.146.284 15.843-1.133 1.697-5.388 1.412-3.97-.581 1.418-1.994 2.017-6.394.442-10.27-1.575-3.877.976-7.556-5.812-7.84-6.788-.285-8.509 0-13.896 3.963-5.388 3.964-7.945 6.789-9.079 8.207a16.535 16.535 0 0 1-3.458 2.853z"/>
        <path fill="#FBDF95" d="M54.632 63.746c2.395-1.558 19.57-2.261 19.57-2.261s12.123-1.697 13.855 1.982c1.732 3.679 1.07 7.782.668 13.297-.4 5.516-.4 14.147-1.598 15.28-1.197 1.133-.267.71-3.063.849a8.422 8.422 0 0 0-4.795 1.982s-2.795 1.412-3.998 1.412c-1.203 0-1.331.709-4.133-.71-2.8-1.417-4.393-3.818-6.131-3.963a30.373 30.373 0 0 1-3.999-.709s-1.865-2.83-4.254-2.97c-2.389-.14-2.906-11.316-2.662-14.995.244-3.679.54-9.194.54-9.194z"/>
        <path fill="#FFD571" d="M61.34 92.463c-2.412-1.134-7.945-2.407-7.945-2.407s-6.975 0-9.927 2.261c-2.953 2.261-2.552.285-3.685 3.394-1.133 3.11-1.703 3.395-.71 5.231.995 1.837-.423 2.261 2.268 2.83 2.69.57 2.696.71 4.823.582 2.128-.128 0 .424 1.28 2.83 1.278 2.406 2.696 4.952 5.23 4.528 2.534-.424 3.97-1.982 5.812-3.394 1.842-1.413 4.824-1.413 4.824-1.413s3.97-.14 5.672-1.133c1.703-.994 3.685-2.685 3.685-4.103 0-1.418 0-2.685-.849-4.243-.848-1.558-3.684-3.54-3.684-3.54l-3.83-1.133-2.965-.29z"/>
        <path fill="#7FA22B" d="M83.605 98.972c-1.162.14-4.963-.424-4.963-.849 0-.424-.994-3.109-1.163-1.133a14.396 14.396 0 0 0 .582 5.091c.424 1.558-.14 2.97 3.405 2.83 3.546-.139 6.521-.284 6.521-.284l2.697-2.121.424-4.388a1.93 1.93 0 0 1-.709-1.273c0-.71-.58-1.134-1.162-.14-.581.994-.71 1.558-1.558 1.558-1.37.165-2.73.401-4.074.709z"/>
        <path fill="#7FA22B" d="M88.43 95.717c2.266-.848 14.89-6.788 16.023-6.933 1.133-.146 2.696-.849 3.12-.285.425.564 1.843.14 1.163 1.412-.68 1.273 0 1.133-1.279 1.412-1.278.28-2.266.425-4.114.71-1.55.21-3.073.59-4.54 1.133-1.557.581-4.539 1.412-5.812 2.26a19.441 19.441 0 0 1-2.551 1.413l-2.01-1.122z"/>
        <path fill="#EF7E70" d="M92.538 76.195c2.127.424 12.786 1.982 12.786 1.982 5.231-.71 7.8-1.134 8.794-1.982.994-.849 1.162-.285.994 1.697-.169 1.982-.14 5.66-1.163 7.358-1.023 1.697.285 1.836-1.278 2.546-1.111.486-2.248.91-3.406 1.272 0 0 .285-2.26-1.842-1.982-2.128.28-2.128.285-3.685.989a31.75 31.75 0 0 0-2.976 1.412c-.709.424-.848.709-2.267.285-1.418-.425-2.836-.849-2.975-1.558a27.432 27.432 0 0 0-1.558-3.394 9.072 9.072 0 0 0-.424-2.546c-.43-1.267-1-6.08-1-6.08z"/>
        <path fill="#FFD571" d="M95.374 74.498c.285-.71 3.406-3.68 3.406-3.68s-.994-.284.581-1.412A7.556 7.556 0 0 1 104.034 68a7.311 7.311 0 0 1 3.83.849c.849.58 2.412 1.836 2.412 1.836l2.412 1.412.424 1.982a5.353 5.353 0 0 1-1.842 1.697c-.994.425-4.54.582-4.54.582s-3.12 0-3.969.284c-.848.285-1.842 0-3.12-.14-1.28-.139-1.419-.139-2.552-.284a3.975 3.975 0 0 1-1.843-.709l.128-1.011z"/>
        <path fill="#91C020" d="M49.85 79.874c-1.28-.14-5.673-2.122-6.243-3.54-.57-1.418-1.842-.284-.14-2.121a31.92 31.92 0 0 0 3.122-4.103l-2.837-5.516-4.23-3.679-5.673-.424s-2.127 1.412-5.388 3.394a43.351 43.351 0 0 0-6.393 4.388c-1.842 1.558-2.127.849-2.976 3.11a15.175 15.175 0 0 0-.994 3.54c-.101.939-.148 1.884-.139 2.83 0 0-.994 1.981-1.558 3.254-.563 1.273-.848 1.412-.848 2.685 0 1.273.994 2.122 1.418 4.104.424 1.981-.424 1.981 1.703 3.679 2.127 1.697 1.842 2.545 4.963 3.109 1.5.224 2.973.604 4.394 1.133 0 0 1.843 2.83 4.115 2.122a29.164 29.164 0 0 0 5.23-2.546s-.284-2.121.995-3.11c1.278-.987 5.672-2.406 7.945-3.254a44.113 44.113 0 0 1 4.678-1.412v-4.65c-.006-1.157-1.145-2.993-1.145-2.993zm-12.91.285c.425-1.273.425-1.697.14-2.546-.284-.849 1.558-.14 1.558-.14.709.989 3.97 2.83 2.267 3.11-1.703.279-4.383.848-3.958-.424h-.006zm-.708 3.818l1.418-1.558c.709.285 2.127.989 1.418 1.413-.709.424-2.83.145-2.83.145h-.006zm5.387 2.406c-.424.849-3.12 2.122-3.26 2.261-.14.14-.849-1.982-.849-1.982l.71-.988c.43 0 3.83-.14 3.405.71h-.006zm2.128-6.51c-1.418 0-4.679-4.242-4.679-4.242l2.267-.14c.29.564 3.836 4.383 2.417 4.383h-.005zM96.229 53.278c.14-.848.994-5.376.994-5.376l14.041.285 3.685 3.11s4.963 24.613 4.115 26.031a2.209 2.209 0 0 1-2.412.988s.581-2.545.285-4.103c-.297-1.558-1.703-3.818-1.703-3.818s-2.552-.71-3.685-.989c-1.133-.278-2.412-1.272-3.685-1.697a30.13 30.13 0 0 0-4.539-.709s-3.26.14-3.97.285c-.709.145-.848-1.557-.139-1.982.71-.424.849-1.133 2.976-.848 2.127.284 7.375.58 7.375.58s.71-9.194.994-10.187c.285-.994-3.406-.849-3.406-.849s-7.375-1.558-7.515-.71c-.14.85.14 3.11-.709 2.407a13.31 13.31 0 0 0-2.412-1.412l-.29-1.006z"/>
        <path fill="#91C020" d="M96.368 57.382c.581 0 1.279 1.697 1.279 1.697s.424-.425 0 .58c-.424 1.006-.285 1.413-.994 2.546-.71 1.134-1.418 1.413-.994-.424.424-1.836.71-4.4.71-4.4z"/>
        <path fill="#F49849" d="M88.307 96.52c-1.162-.739-3.545-2.947-4.73-2.506a9.258 9.258 0 0 0-2.366 1.477s-2.662 1.476-1.773 1.918c.89.441 2.981 1.272 4.138 1.162 1.157-.11 3.685-.145 3.685-.145l1.046-1.907z"/>
        <path fill="#7FA22B" d="M101 54.36c1.325.377 7.945-.378 7.945 1.505s-.377 6.393-.58 7.555c-.204 1.163-7.946 0-7.946 0s.947-3.964.378-5.091a19.586 19.586 0 0 1-.947-2.261l1.15-1.709z"/>
        <path fill="#FFF" d="M61.508 68.325c-1.302.035-2.325-.459-2.743.704-.419 1.162 1.435 1.697 1.435 1.697s1.825.4 1.436 2.051c-.39 1.651-.523 16.413.39 16.92.912.505 1.301 1.202 1.702-1.076s-1.046-9.683.273-9.968c1.32-.284 3.267-1.133 3.121-1.982-.145-.848.262-1.272-.912-1.499-1.174-.227-1.162-2.209-1.162-2.209s2.324.71 3.527-1.046c1.203-1.755 1.564-2.667.651-3.051-.912-.384-.39-.645-2.61-.302-3.48.546-5.213-.21-5.108-.239z"/>
        <path fill="#1A1A1A" d="M72.777 46.02c.907 0 1.116.04 1.953.057 6.521.128 16.855.72 17.68 4.005a.535.535 0 0 0 0 .325c.077.184.111.383.1.581.004.284-.013.568-.053.849-.064.488-.18.965-.268 1.453a4.65 4.65 0 0 0-.058.616.151.151 0 0 0 .21.169c.093 0 .18-.064.284-.093.134-.049.272-.086.413-.11.46-.053.918-.106 1.377-.135.391-.007.782.034 1.163.122.098.02.194.05.285.093.35.15.69.325 1.017.524.273.16.525.356.75.58.085.097.18.185.284.262.322.262.628.541.918.837.177.166.32.363.425.581.116.227.25.442.383.657.134.215.25.372.355.581.09.15.157.313.197.483.041.232.11.465.157.697.092.37.12.754.082 1.134-.058.406-.064.825-.116 1.232a9.06 9.06 0 0 1-.849 3.11c-.134.249-.285.499-.43.743-.442.697-.849 1.412-1.348 2.08a1.79 1.79 0 0 0-.303.582 1.36 1.36 0 0 1-.284.5 15.948 15.948 0 0 1-1.43 1.662 5.324 5.324 0 0 0-.419.46 1.744 1.744 0 0 1-.529.47.796.796 0 0 0-.308.285 5.748 5.748 0 0 1-.72.825l-.105.099a11.78 11.78 0 0 0-1.348 1.743c-.14.25-.303.483-.46.727a.343.343 0 0 1-.32.168h-.43a.134.134 0 0 1-.092-.145c.08-.29.198-.57.349-.831.174-.285.348-.581.534-.849.102-.162.216-.315.343-.459.529-.58.994-1.197 1.482-1.807.042-.048.08-.099.116-.151.385-.546.817-1.058 1.29-1.529a19.412 19.412 0 0 0 1.587-1.906c.425-.581.814-1.163 1.22-1.744.233-.325.431-.668.634-1.005.288-.513.537-1.048.744-1.599a4.65 4.65 0 0 0 .192-.639c.087-.337.163-.68.233-1.023.024-.124.038-.25.04-.378a9.613 9.613 0 0 1 .041-1.389.9.9 0 0 0 0-.33c-.07-.344-.151-.68-.233-1.024a1.744 1.744 0 0 0-.284-.546 5.027 5.027 0 0 1-.442-.732.994.994 0 0 0-.267-.332c-.169-.145-.332-.302-.489-.453l-.215-.308c-.226-.204-.459-.395-.68-.581a3.121 3.121 0 0 0-.755-.494 3.534 3.534 0 0 0-1.668-.332 9.02 9.02 0 0 0-1.61.21.738.738 0 0 0-.186.052 3.911 3.911 0 0 1-.668.25.244.244 0 0 0-.175.21c-.013.11-.013.22 0 .33.008.494-.036.987-.134 1.47-.02.11-.034.22-.04.332a.482.482 0 0 0 .058.401.581.581 0 0 0 .331-.168l1.407-.907c.45-.273.95-.456 1.47-.54l.285-.047c.19-.051.39-.051.581 0l.233.052c.517.107.996.35 1.389.703.098.082.191.169.284.245.15.119.282.26.39.418.086.134.182.262.285.384.158.2.27.432.33.68a.5.5 0 0 1 0 .284c-.054.19-.054.392 0 .582 0 .104.053.215.07.325a.872.872 0 0 1 0 .285c-.033.22-.033.443 0 .662.049.331.023.669-.075.988-.07.227-.11.465-.163.698a.488.488 0 0 1-.18.325 1.383 1.383 0 0 0-.256.337.36.36 0 0 1-.116.076.116.116 0 0 1-.14-.076.849.849 0 0 1 0-.14c.09-.468.185-.939.286-1.411.015-.097.038-.192.07-.285.108-.301.142-.625.098-.942a1.308 1.308 0 0 1 0-.238 4.65 4.65 0 0 0-.081-1.162 2.22 2.22 0 0 0-.372-.913l-.053-.075a2.209 2.209 0 0 0-.755-.826 1.744 1.744 0 0 0-.72-.354c-.286-.058-.582-.134-.85-.186a1.802 1.802 0 0 0-.987.081 3.487 3.487 0 0 0-.692.326l-1.162.714c-.13.087-.255.182-.372.285-.1.082-.186.18-.285.262a.413.413 0 0 1-.285.128.256.256 0 0 0-.261.232c-.14 1.163-.396 2.191-.442 3.54a4.69 4.69 0 0 0-.064.616c-.015.379-.05.757-.105 1.133 0 .267-.099.535-.14.796a2.732 2.732 0 0 0 0 .378c.002.493-.025.986-.08 1.476a7.51 7.51 0 0 0 0 .953v1.86c-.01.08-.01.16 0 .239a.04.04 0 0 0 .028 0 .052.052 0 0 0 .041 0c.419-.622.936-1.163 1.395-1.744.222-.27.46-.527.715-.767.535-.523 1.08-1.035 1.616-1.558.284-.285.546-.581.807-.877.477-.535.849-1.134 1.32-1.698.19-.237.313-.52.36-.819a6.085 6.085 0 0 1 .581-1.61.581.581 0 0 1 .117-.145.099.099 0 0 1 .087 0c.025.014.043.04.046.07-.002.109-.013.218-.035.325-.034.157-.093.302-.133.46-.122.458-.244.917-.36 1.382-.052.204-.13.4-.233.582l-.413.75c-.237.469-.54.901-.9 1.284-.085.09-.165.185-.239.285-.244.313-.482.633-.732.941-.08.1-.165.195-.256.285-.285.285-.581.581-.883.866a11.85 11.85 0 0 0-1.418 1.598c-.078.1-.162.195-.25.285a3.94 3.94 0 0 0-.582.848c-.081.169-.197.326-.284.489a.349.349 0 0 1-.221.168.203.203 0 0 0-.157.215v.622c.024.471.012.943-.035 1.412-.008.08-.008.16 0 .239a8.468 8.468 0 0 1 0 1.9 2.796 2.796 0 0 0 0 .384c0 1.098 0 2.191-.03 3.29v1.476c0 .284-.028.58-.046.848-.017.268 0 .448 0 .669a9.7 9.7 0 0 1-.093 1.476.785.785 0 0 0 0 .14c0 .65-.064 1.295-.116 1.946 0 .157 0 .32-.04.477-.041.157 0 .192-.03.285a13.658 13.658 0 0 1-.354 2.685c-.052.25-.099.5-.134.75-.107.572-.245 1.139-.412 1.697-.021.076-.05.15-.088.22a.337.337 0 0 1-.261.187c-.157.032-.32.032-.477 0a.145.145 0 0 1-.087-.152l.366-1.278c.027-.075.05-.15.07-.227.07-.407.134-.814.21-1.22.042-.252.09-.502.145-.75.07-.294.117-.594.139-.895 0-.25.076-.506.11-.756.032-.204.051-.41.059-.616.018-.793.076-1.584.174-2.371.073-.552.117-1.106.134-1.662 0-.256.034-.506.046-.762.012-.255.03-.668.035-1v-4.004c.07-.633.035-1.273.134-1.9a3.615 3.615 0 0 0 0-.43c0-.396.035-.797 0-1.163 0-.64.046-1.273.081-1.906a2.365 2.365 0 0 1 0-.285c.044-.298.061-.6.052-.9V66.71c-.01-.335.012-.67.064-1a2.07 2.07 0 0 0 0-.331c.024-.634.08-1.267.169-1.895.052-.424.075-.848.122-1.279.505-1.325 0-2.847.465-4.498.021-.666.101-1.33.238-1.982.02-.094.036-.189.047-.285.046-.585.089-1.166.127-1.743.037-.587.116-1.17.239-1.744a.11.11 0 0 0 0-.046.151.151 0 0 0-.07 0c-.041.049-.078.101-.11.157-.047.081-.1.162-.14.25a2.174 2.174 0 0 1-.65.75c-.405.298-.793.618-1.163.958a55.272 55.272 0 0 1-30.17 1.5 3.383 3.383 0 0 1-.477-.041 2.743 2.743 0 0 1-.906-.285c-.396-.215-.808 0-1.25.04a9.88 9.88 0 0 1-1 0H54.93c-.691.026-1.38.094-2.063.204h-.192c-.495-.013-.99.001-1.482.041a6.568 6.568 0 0 0-.71.087.046.046 0 0 0 0 .035.052.052 0 0 0 0 .04.581.581 0 0 0 .117.088c.353.185.676.422.959.703.488.436.853.994 1.058 1.616.058.206.148.402.267.581.224.357.384.75.47 1.163a.227.227 0 0 1 0 .18.942.942 0 0 0-.226.459.169.169 0 0 1-.116.064.093.093 0 0 1-.076-.04 3.348 3.348 0 0 1-.157-.448 7.503 7.503 0 0 0-.709-1.866 5.888 5.888 0 0 1-.255-.616 2.83 2.83 0 0 0-.727-1.046.128.128 0 0 0-.116 0 .169.169 0 0 0-.03.128c.014.077.036.153.065.226.033.106.054.215.064.326.013.255.068.506.162.744a3.97 3.97 0 0 1 .233 1.592 7.143 7.143 0 0 0 0 .849c0 .395 0 .796.035 1.162a.535.535 0 0 1 0 .14c-.017.633.023 1.268.122 1.894.026.204.038.41.035.616-.006.412.02.824.075 1.232.064.454.117.913.192 1.366.004.064.004.128 0 .192.035 1.162.151 2.325.122 3.487 0 .32 0 .634.047.953.046.32.035.54.04.808 0 .54 0 1.075.07 1.616.074.68.113 1.362.116 2.046-.008.095-.008.19 0 .285.057.468.088.94.093 1.412.03.581.064 1.162.1 1.743v.524a2.906 2.906 0 0 0 0 .383c.048.426.068.856.057 1.285 0 .507.02 1.015.058 1.522.041.68.035 1.366.041 2.046 0 .779 0 1.558.035 2.325 0 .36 0 .732.035 1.093a.343.343 0 0 1-.36.325h-.035a.232.232 0 0 1-.186-.128.697.697 0 0 1-.059-.18 1.994 1.994 0 0 1 0-.285c0-.459-.046-.918-.075-1.377-.064-1.075-.087-2.156-.128-3.237 0-.21 0-.413-.035-.617-.035-.203-.029-.412-.035-.621v-2.767c0-.21 0-.413-.046-.616v-.238c-.04-.808-.07-1.616-.134-2.43-.064-.813-.052-1.493-.075-2.237.004-.095.004-.19 0-.285a17.436 17.436 0 0 1-.088-1.744c0-.238-.034-.476-.046-.715-.012-.238 0-.58 0-.906v-2.29a15.17 15.17 0 0 0-.105-2.185 12.7 12.7 0 0 1-.064-1.384 5.58 5.58 0 0 0-.07-.848 4.545 4.545 0 0 1-.04-.523c0-.239-.128-1.494-.169-1.744a2.569 2.569 0 0 1 0-.378 3.778 3.778 0 0 0 0-.43c-.04-.363-.04-.73 0-1.092 0-.157 0-.32.03-.477a3.435 3.435 0 0 0-.134-1.162 3.417 3.417 0 0 1-.146-1.134v-.285a.506.506 0 0 0-.093-.267 1.598 1.598 0 0 0-1.022-.726 2.325 2.325 0 0 1-.849-.407c-.361-.26-.56-.69-.523-1.134a.645.645 0 0 1-.012-.25 2.04 2.04 0 0 1 .425-.424 9.235 9.235 0 0 1 1.598-1.034c.186-.099.203-.047.378-.151 5.736-4.58 9.804-5.597 21.155-6.039.355 0 .715-.023.982-.035zm18.698 3.486c-1.401-1.743-10.195-2.284-15.269-2.784h-1.702c-.768 0-1.744-.087-2.488-.07-9.88.198-16.273 1.895-20.284 5.569-.348.313-.191.488-.639.674a1.162 1.162 0 0 0-.244.14 3.36 3.36 0 0 1-.715.377c-.131.058-.256.13-.372.215a6.17 6.17 0 0 0-.494.378c-.157.133-.21.197-.308.285a.105.105 0 0 0 .046.14h.14l.761.034c.284.018.568.005.849-.04a4.423 4.423 0 0 1 1.046-.065c.112.006.225.006.337 0l.75-.035h.622l1.621-.052h.239c.43 0 .848.058 1.29.07a3.22 3.22 0 0 1 1.296.035c.304.142.63.23.965.261.634.07 1.262.19 1.877.36 9.415 2.442 19.08.919 28.304-1.696.198-.106.378-.242.535-.401.243-.254.516-.477.814-.663.081-.052.15-.116.232-.169.301-.21.542-.497.698-.83.104-.198.191-.408.308-.582a2.743 2.743 0 0 1-.215-1.174v.023zM65.675 107.161h-.622a3.43 3.43 0 0 0-.848.087c-.484.096-.973.164-1.465.204l-.755.098a1.616 1.616 0 0 0-.285.076c-.331.11-.663.232-.994.337-.471.155-.91.397-1.29.715-.227.18-.43.378-.645.581-.36.314-.715.634-1.081.936-.25.198-.465.438-.634.709-.04.07-.093.128-.128.203a.994.994 0 0 1-.581.483l-.18.07c-.259.08-.507.19-.738.33-.094.06-.193.11-.297.152a3.127 3.127 0 0 1-.412.11c-.122 0-.256 0-.378.053a7.556 7.556 0 0 1-2.61.07 2.906 2.906 0 0 1-1.517-.64l-1.098-.849a4.161 4.161 0 0 1-.581-.58c-.128-.14-.244-.285-.384-.43a2.15 2.15 0 0 1-.54-.942 2.906 2.906 0 0 0-.367-.826 2.191 2.191 0 0 1-.32-.941c-.04-.314-.069-.634-.104-.948a1.494 1.494 0 0 0-.046-.325 2.203 2.203 0 0 1 .064-1.447.523.523 0 0 0 0-.134.046.046 0 0 0-.035 0c-.059.053-.121.101-.186.145-.418.268-.89.44-1.383.5a3.37 3.37 0 0 0-.651.146c-.285.093-.582.162-.878.232a1.83 1.83 0 0 1-.616 0c-.302-.029-.581-.052-.9-.099a3.127 3.127 0 0 1-.582-.128 11.514 11.514 0 0 1-1.505-.685 2.08 2.08 0 0 1-.326-.204l-1.162-.877a2.046 2.046 0 0 1-.645-.925c-.117-.313-.245-.621-.355-.935a3.667 3.667 0 0 1-.186-1.825c.028-.156.047-.313.058-.471.016-.289.071-.574.163-.849.116-.33.211-.668.285-1.01a9.57 9.57 0 0 1 .14-.582c.065-.263.179-.512.336-.732.163-.233.308-.483.46-.727.15-.244.284-.43.412-.645a5.643 5.643 0 0 1 1.744-1.598c.348-.221.709-.43 1.063-.645l.122-.07a8.578 8.578 0 0 1 2.308-1.081c.523-.19 1.044-.384 1.563-.581.686-.262 1.4-.425 2.11-.616l1.796-.489a4.55 4.55 0 0 1 .58-.116 9.59 9.59 0 0 1 1.663-.145c.571 0 1.141-.05 1.703-.151.252-.037.507-.05.761-.04a.511.511 0 0 1 .314.092c.09.064.198.1.308.105.22.037.44.06.663.07.48.008.954.11 1.395.302.476.18.941.395 1.418.58.13.062.249.143.354.24.2.183.41.356.628.516.128.095.247.202.355.32.197.229.415.44.65.628a.151.151 0 0 1-.052.267l-.133.047a.314.314 0 0 1-.35-.1 3.569 3.569 0 0 0-.284-.319c-.244-.227-.5-.442-.75-.657a.761.761 0 0 0-.157-.11l-1.028-.5c-.1-.046-.21-.087-.303-.14a3.202 3.202 0 0 0-1.36-.4 5.23 5.23 0 0 1-.662-.07 1.912 1.912 0 0 1-.372-.076 3.29 3.29 0 0 0-.988-.14h-1.337a3.656 3.656 0 0 1-.43 0 10.555 10.555 0 0 0-1.621.105c-.16.015-.317.06-.46.134-.413.208-.85.366-1.302.47l-1.25.32a3.202 3.202 0 0 1-.656.128c-.097.008-.193.03-.285.064l-1.162.396c-.35.11-.69.253-1.011.43-.128.063-.26.118-.396.162-.284.11-.58.215-.848.332-.162.068-.317.15-.465.244-.461.294-.922.558-1.383.79-.37.187-.71.43-1.006.72-.168.17-.354.32-.529.483-.228.22-.423.47-.58.744a22.07 22.07 0 0 0-.5.866 5.12 5.12 0 0 1-.384.657c-.148.19-.23.422-.233.662a3.446 3.446 0 0 1-.075.617c-.078.437-.153.875-.227 1.313 0 .157-.046.314-.064.47-.017.158-.04.379-.07.582-.054.297-.042.603.035.895.082.285.169.546.268.814.051.116.12.223.203.32.07.086.147.166.232.238.303.255.582.523.919.761.152.111.316.207.488.285.244.116.494.22.744.325.174.079.358.134.546.163.174.021.347.052.518.093.406.085.823.11 1.237.076a2.68 2.68 0 0 0 .582-.11c.278-.077.562-.136.848-.175.28-.053.558-.12.831-.204.215-.058.43-.11.645-.18a.947.947 0 0 1 .739.053.128.128 0 0 0 .174-.053v-.035c.038-.104.069-.21.093-.32.083-.399.207-.788.372-1.162.128-.284.238-.58.354-.883.171-.463.41-.898.71-1.29.197-.25.36-.523.54-.785.205-.301.434-.585.686-.849.484-.482.94-.993 1.366-1.528.26-.319.559-.604.889-.849a15.89 15.89 0 0 1 2.807-1.743c.372-.18.744-.366 1.11-.581.298-.154.61-.28.93-.378a31.06 31.06 0 0 1 3.383-.831 8.91 8.91 0 0 0 .976-.227c.214-.062.434-.095.657-.099.194-.005.388-.023.58-.052.314-.055.635-.055.948 0 .355.091.72.14 1.087.145.225-.001.446.06.64.175.223.12.465.204.714.25.402.08.792.209 1.163.383.1.048.203.09.308.128.378.139.733.335 1.052.581.101.078.213.143.331.192.529.23 1.01.557 1.418.965.513.477.975 1.007 1.378 1.58.215.297.43.582.627.901.36.507.626 1.074.785 1.674.015.062.035.122.058.18.196.589.292 1.205.285 1.825.009.08.009.16 0 .239a5.08 5.08 0 0 0-.087.947.732.732 0 0 1-.175.482 1.22 1.22 0 0 0-.174.285 1.058 1.058 0 0 1-.233.355.413.413 0 0 0-.145.337.22.22 0 0 1-.046.128c-.12.213-.269.409-.442.58-.05.04-.097.082-.14.129a4.806 4.806 0 0 1-1.9 1.232.773.773 0 0 0-.401.244.198.198 0 0 1-.07.064 6.027 6.027 0 0 1-1.098.581c-.413.105-.75.256-1.163.331-.326.069-.66.1-.994.093h-.58v.012zm-.581-.802h.238a7.248 7.248 0 0 0 2.127-.262c.418-.102.83-.228 1.233-.377l1.336-.518a6.137 6.137 0 0 0 1.058-.645c.175-.11.317-.264.413-.447l.848-1.65c.062-.13.116-.261.163-.396.073-.185.113-.382.116-.581v-1.052a4.388 4.388 0 0 0-.4-1.662 10.095 10.095 0 0 0-.983-1.744 7.846 7.846 0 0 0-1.57-1.656 1.39 1.39 0 0 0-.36-.221 2.325 2.325 0 0 1-.895-.622 1.575 1.575 0 0 0-.546-.378c-.203-.093-.413-.174-.581-.285a3.923 3.923 0 0 0-1.209-.436 2.243 2.243 0 0 1-.761-.267c-.19-.12-.41-.182-.634-.18a3.749 3.749 0 0 1-.848-.116 2.54 2.54 0 0 0-1.325 0 3.08 3.08 0 0 1-1.163.104 1.61 1.61 0 0 0-.337 0c-.267.04-.535.082-.802.134a4.481 4.481 0 0 0-.831.215c-.291.08-.589.134-.89.163-.58.133-1.092.337-1.65.482a.825.825 0 0 0-.302.14c-.337.284-.767.284-1.163.464-.362.061-.698.23-.964.483a3.37 3.37 0 0 1-.715.465c-.315.13-.596.33-.826.581-.26.302-.552.574-.871.814a2.116 2.116 0 0 0-.535.58l-.227.367a6.074 6.074 0 0 1-1.25 1.436c-.232.205-.43.446-.586.714-.17.287-.364.557-.581.808a1.412 1.412 0 0 0-.285.489c-.058.162-.122.325-.169.494a7.102 7.102 0 0 1-.285.807 4.475 4.475 0 0 0-.308.849c-.098.5-.25.986-.453 1.453a.89.89 0 0 0-.046.134 2.325 2.325 0 0 0-.088 1.08c.06.296.098.595.117.896.013.238.079.47.191.68.207.36.376.74.506 1.133.027.09.07.175.128.25.307.408.666.773 1.07 1.087l.685.517.5.372c.141.105.304.178.477.215.38.097.77.151 1.162.163h1.098c.111-.003.222-.012.332-.03.191 0 .377-.052.58-.092.19-.026.376-.075.553-.146a9.845 9.845 0 0 1 1.064-.43c.287-.098.542-.272.738-.505.279-.327.593-.624.935-.884.23-.182.449-.376.657-.58.368-.347.756-.67 1.163-.971.33-.255.702-.451 1.098-.582.227-.072.45-.155.668-.25.278-.122.572-.206.872-.25.477-.07.948-.133 1.418-.22a9.3 9.3 0 0 1 1.895-.134z"/>
        <path fill="#1A1A1A" d="M76.764 82.53v-1a.47.47 0 0 0-.302-.529c-.058 0-.116-.058-.168-.087a.39.39 0 0 1-.169-.22.169.169 0 0 1 .07-.227h.11c.581-.093.53-.122.581-.669a7.881 7.881 0 0 0 0-1 .198.198 0 0 0-.18-.209h.012c-.08.009-.16.009-.238 0a.477.477 0 0 1-.39-.424.21.21 0 0 1 .151-.215l.477-.064a.25.25 0 0 0 .215-.22v-.094l.07-1v-.145c0-.22-.058-.284-.285-.302-.227-.017-.581 0-.907 0a8.91 8.91 0 0 1-1.284-.104.616.616 0 0 1-.448-.245c-.052-.059-.099-.123-.14-.191-.051-.105-.174-.215-.069-.343a.302.302 0 0 1 .314-.047c.426.057.855.08 1.284.07a8.532 8.532 0 0 1 1.384.046.174.174 0 0 0 .232-.168v-1.575a.215.215 0 0 0-.122-.192c-.099-.052-.192-.116-.285-.174a.581.581 0 0 1-.22-.355.25.25 0 0 1 .104-.244c.126-.07.264-.115.407-.134a.227.227 0 0 0 .192-.238v-1.86a.21.21 0 0 0-.163-.244l-.36-.116a.331.331 0 0 1-.192-.203.174.174 0 0 1 .075-.239c.169-.052.337-.093.506-.133a.21.21 0 0 0 .157-.163c.019-.06.032-.123.04-.186.041-.535.134-1.075.14-1.61a1.197 1.197 0 0 0 0-.233.151.151 0 0 0-.128-.122 2.174 2.174 0 0 0-.709 0c-.31.07-.63.096-.947.076-.128 0-.255.015-.378.046a4.876 4.876 0 0 1-1.284 0 .32.32 0 0 1-.233-.36.169.169 0 0 1 .087-.105 1.58 1.58 0 0 1 .366-.087c.814-.046 1.622-.128 2.436-.104h.622a.244.244 0 0 0 .238-.204c0-.14.029-.285.04-.43 0-.24.017-.478.053-.715a.308.308 0 0 0-.186-.39h-.04a.442.442 0 0 1-.152-.104.308.308 0 0 1 .058-.517c.072-.038.145-.07.221-.099a.22.22 0 0 0 .134-.18 5.004 5.004 0 0 1 .081-.994.314.314 0 0 0-.14-.372 2.162 2.162 0 0 1-.255-.215.418.418 0 0 1-.134-.244.262.262 0 0 1 .151-.337l.366-.105a.256.256 0 0 0 .175-.209c.035-.22.064-.436.099-.657a.232.232 0 0 0-.035-.226.622.622 0 0 0-.169-.076h-.04a.256.256 0 0 1 0-.081.052.052 0 0 1 0-.035.9.9 0 0 1 .418-.07.22.22 0 0 1 .134.116.407.407 0 0 1 .04.186v.762c-.01.1.062.191.163.203h.482l.186.035c.042.02.066.065.059.11a.959.959 0 0 1-.134.25c-.18.247-.417.447-.692.582a.285.285 0 0 0-.18.255c0 .332-.046.663-.064 1a.244.244 0 0 0 .204.279l.33.052c.111 0 .21 0 .228.122 0 .1-.053.191-.14.239a4.696 4.696 0 0 1-.453.261c-.101.051-.169.15-.18.262a.715.715 0 0 1 0 .192c0 .284-.053.58-.082.848v.174a.14.14 0 0 0 .134.146c.267-.035.535-.064.802-.11.378-.07.755-.134 1.162-.227.71-.186 1.447-.215 2.15-.419a.9.9 0 0 1 .187 0 .11.11 0 0 1 .098.128.407.407 0 0 1-.052.128.9.9 0 0 1-.203.197 1.86 1.86 0 0 1-.849.285c-.367.013-.73.092-1.07.233a.779.779 0 0 1-.284.046c-.196.01-.39.037-.581.082-.372.075-.75.127-1.163.203-.412.076-.366.081-.395.46-.029.377-.093.819-.133 1.231 0 .093-.03.192-.035.285 0 .343 0 .424.39.419a.825.825 0 0 1 .19 0 .128.128 0 0 1 .053.063.046.046 0 0 1 0 .041 1.302 1.302 0 0 1-.511.413.285.285 0 0 0-.18.261V71.848c-.005.079-.005.158 0 .238a.186.186 0 0 0 .191.18h.041c.216-.057.44-.075.663-.052a.163.163 0 0 1 .064.104c0 .032-.01.062-.03.087a.453.453 0 0 1-.08.117c-.22.25-.463.478-.727.68a.285.285 0 0 0-.14.232v.285c0 .331-.029.663-.04 1a3.086 3.086 0 0 0 0 .377c.005.067.06.12.127.122.302.035.607.013.901-.063.233-.064.465-.11.698-.163l1.162-.285c.633-.14 1.279-.267 1.9-.46h.047a.22.22 0 0 1 .22.047.244.244 0 0 1-.028.308c-.077.08-.165.146-.262.198a3.545 3.545 0 0 1-.447.163 7.387 7.387 0 0 0-.814.267c-.16.07-.331.109-.506.116-.391.035-.78.097-1.162.186a1.093 1.093 0 0 0-.482.186c-.117.083-.25.14-.39.169-.122.029-.238.075-.36.116a1.33 1.33 0 0 1-.227.076c-.494.07-.407.081-.488.54a2.871 2.871 0 0 0 0 .762.232.232 0 0 0 .238.232h.704c.094-.007.19-.007.284 0 .06.026.097.086.093.151a.715.715 0 0 1-.209.419.482.482 0 0 1-.215.098l-.581.14a.337.337 0 0 0-.285.285 2.046 2.046 0 0 0-.04.232v1a.256.256 0 0 0 .209.302h.598c.169 0 .285 0 .43.03.146.028.169.121.1.243a.488.488 0 0 1-.25.21c-.326.133-.64.284-.96.418a.22.22 0 0 0-.133.186c-.006.095-.006.19 0 .285.012.492-.005.985-.053 1.476a3.79 3.79 0 0 0 0 .476c0 .262.047.285.314.262.125-.022.251-.035.378-.04.43-.016.86-.058 1.284-.129.197-.028.391-.07.582-.127l1.743-.483c.308-.084.623-.14.942-.168a.157.157 0 0 1 .168.244c-.046.104-.104.197-.15.285a.581.581 0 0 1-.402.308c-.232.058-.465.122-.692.191-.203.045-.399.12-.58.221a.732.732 0 0 1-.268.099c-.331.052-.663.099-.994.134l-1.854.197c-.096.01-.191.027-.285.053a.21.21 0 0 0-.168.203v1.383a.227.227 0 0 0 .226.233c.194.01.388.01.582 0a.808.808 0 0 1 .372.046.052.052 0 0 1 0 .035c.01.026.01.055 0 .081l-.739.32c-.075.03-.15.047-.226.082a.232.232 0 0 0-.14.18v.377c0 .221-.035.442-.046.663a5.23 5.23 0 0 0 0 .663.22.22 0 0 0 .197.25h.088l.848-.128a.331.331 0 0 1 .14 0 .087.087 0 0 1 .04.075.628.628 0 0 1-.11.21 7.905 7.905 0 0 1-.546.534 1.058 1.058 0 0 1-.524.215.302.302 0 0 0-.261.238c-.092.274-.137.56-.134.849 0 .196-.026.391-.075.581a.14.14 0 0 1-.105.082.14.14 0 0 1-.116-.064 1.906 1.906 0 0 1-.25-.96c.008-.11.008-.22 0-.33a.134.134 0 0 0-.116-.128l-.186-.041a3.086 3.086 0 0 1-.36-.128.349.349 0 0 1-.07-.616 1.33 1.33 0 0 1 .284-.157l.285-.087c.096-.022.17-.1.186-.198.034-.155.057-.312.07-.47v-1.018a.32.32 0 0 0-.192-.308l-.157-.104a.448.448 0 0 1-.145-.239.174.174 0 0 1 .07-.209l.168-.081a.285.285 0 0 0 .192-.302v-1.29a.244.244 0 0 0-.21-.28h-.04l-.581-.075a2.325 2.325 0 0 1-.645-.163.511.511 0 0 1-.32-.488.093.093 0 0 1 .047-.076c.316-.038.634-.055.953-.052.22 0 .447 0 .668.029a.174.174 0 0 0 .163-.145v-1.238l.011-.035zM107.062 88.284a2.621 2.621 0 0 0-.9.064c-.285.075-.582.116-.89.18a.814.814 0 0 0-.424.197 1.197 1.197 0 0 1-.512.245c-.761.22-1.517.482-2.324.639-.204.04-.4.113-.582.215a9.88 9.88 0 0 1-1.743.732c-.319.107-.63.235-.93.384a5.65 5.65 0 0 1-1.331.511 1.744 1.744 0 0 0-.355.146 5.23 5.23 0 0 1-.58.255c-.448.163-.883.357-1.303.582a3.772 3.772 0 0 0-.744.43c-.112.088-.24.155-.377.197-.606.21-1.19.48-1.744.802-.337.175-.662.378-.994.581a1.842 1.842 0 0 1-.627.221 3.801 3.801 0 0 0-1.355.436 1.68 1.68 0 0 1-.83.18.285.285 0 0 1-.24-.133.174.174 0 0 1 .082-.285l.32-.093c.096-.02.192-.044.285-.076.779-.325 1.598-.546 2.365-.895.147-.062.29-.136.425-.22a5.15 5.15 0 0 1 .848-.436 9.369 9.369 0 0 0 1.226-.64 8.863 8.863 0 0 1 1.988-.935c.331-.115.652-.257.959-.425.581-.285 1.162-.58 1.744-.877.397-.202.807-.378 1.226-.53a6.457 6.457 0 0 0 1.046-.47c.29-.169.607-.289.936-.355.72-.145 1.418-.389 2.115-.58l.093-.03a11.77 11.77 0 0 1 2.441-.645 3.295 3.295 0 0 1 1.378 0c.426.089.798.344 1.034.71.139.212.265.434.378.662.096.177.13.382.099.58-.04.268-.07.536-.099.803a1.412 1.412 0 0 0 0 .232v.378a.215.215 0 0 1-.093.21l-.116.087c-.36.203-.715.412-1.081.58a3.127 3.127 0 0 1-.808.286 8.596 8.596 0 0 1-1.226.191c-.396 0-.785.117-1.163.18a.453.453 0 0 0-.25.128.54.54 0 0 1-.348.14 1.61 1.61 0 0 0-.582.168.988.988 0 0 1-.284.088c-.628.11-1.232.313-1.854.47-.466.12-.94.204-1.418.25a3.638 3.638 0 0 0-1.064.256c-.235.098-.48.168-.732.21a4.65 4.65 0 0 0-.686.209.349.349 0 0 0-.163.098.97.97 0 0 1-.535.285l-1.278.401c-.107.032-.212.07-.314.116-.302.146-.581.303-.9.436-.495.221-.96.5-1.436.75-.099.054-.2.102-.303.145a.442.442 0 0 1-.186 0 .192.192 0 0 1-.122-.058.151.151 0 0 1 0-.18.511.511 0 0 1 .117-.145c.136-.108.28-.207.43-.297.36-.203.72-.4 1.086-.58.367-.181.884-.443 1.314-.675.21-.114.43-.209.657-.285l1.633-.546c.285-.093.535-.198.808-.285.39-.14.779-.285 1.162-.407.188-.066.383-.111.581-.133a7.922 7.922 0 0 0 1.535-.355 16.698 16.698 0 0 1 1.952-.442c.35-.058.692-.128 1.035-.197.423-.083.85-.143 1.279-.18a4.72 4.72 0 0 0 2.29-.692c.116-.082.25-.14.366-.221.11-.07.179-.19.186-.32a.11.11 0 0 0-.11-.116l-.814.285-.088.04c-.69.333-1.434.541-2.197.617-.173.016-.344.05-.511.098a8.433 8.433 0 0 1-1.116.245c-.31.07-.625.12-.941.15-.255.02-.508.06-.756.123-.581.15-1.203.314-1.796.482-.43.122-.848.285-1.273.419-.104.039-.21.07-.32.093-.4.07-.79.187-1.162.348l-1.772.71c-.077.025-.151.058-.221.098-.302.204-.663.314-.96.529-.11.063-.23.112-.354.145-.39.134-.758.33-1.087.582a4.65 4.65 0 0 1-.58.337l-.907.529a.22.22 0 0 1-.303-.047 1.43 1.43 0 0 1-.162-.232.22.22 0 0 1 .034-.303 2.43 2.43 0 0 1 .285-.238 2.97 2.97 0 0 1 .332-.186 5.26 5.26 0 0 0 .848-.523 2.76 2.76 0 0 1 .89-.453 5.428 5.428 0 0 0 1.162-.483c.097-.055.198-.104.302-.145.918-.366 1.83-.744 2.749-1.093.727-.284 1.465-.54 2.197-.802.285-.093.552-.157.825-.232a15.605 15.605 0 0 1 1.959-.43 9.77 9.77 0 0 0 1.528-.366 5.498 5.498 0 0 1 1.163-.227 5.853 5.853 0 0 0 1.662-.413c.262-.11.535-.209.802-.314.267-.104.413-.162.628-.232a.378.378 0 0 0 .244-.581 1.209 1.209 0 0 0-.727-.71 1.744 1.744 0 0 0-.58-.127h-.466z"/>
        <path fill="#1A1A1A" d="M91.37 99.257v.662c.023.333 0 .668-.07.994a2.278 2.278 0 0 0-.035.523v1.383a.796.796 0 0 1 0 .1.215.215 0 0 1-.157.214.46.46 0 0 0-.383.378.924.924 0 0 1-.366.483 6.846 6.846 0 0 0-.582.505.808.808 0 0 1-.313.204c-.182.06-.36.13-.535.209a7.02 7.02 0 0 1-1.779.534c-.406.07-.82.117-1.226.186l-.848.152a2.94 2.94 0 0 1-.378.052 6.614 6.614 0 0 0-1 .07 2.07 2.07 0 0 1-.476 0 1.465 1.465 0 0 0-.378 0c-.236.043-.48.013-.698-.088a5.056 5.056 0 0 0-1.383-.342 3.08 3.08 0 0 1-.953-.285 1.035 1.035 0 0 1-.308-.221 1.191 1.191 0 0 0-.46-.355.581.581 0 0 1-.348-.302.657.657 0 0 0-.285-.32.314.314 0 0 1-.122-.145 1.83 1.83 0 0 1-.25-.848c.006-.2-.033-.4-.116-.582a4.173 4.173 0 0 1-.192-.738c-.07-.374-.158-.745-.267-1.11a13.879 13.879 0 0 1-.36-1.674 1.616 1.616 0 0 1 0-.284 7.317 7.317 0 0 0-.169-1.657.43.43 0 0 1 .081-.354c.153-.211.352-.384.582-.506a5.992 5.992 0 0 1 1.243-.482.395.395 0 0 1 .233 0 .267.267 0 0 1 .122.128.174.174 0 0 1-.093.203c-.227.075-.453.163-.68.215a3.197 3.197 0 0 0-.703.302.715.715 0 0 0-.285.256.232.232 0 0 0 0 .267 2.627 2.627 0 0 0 1.592 1.145c.512.122 1.012.285 1.529.372.356.084.72.13 1.087.14a6.69 6.69 0 0 0 1.383.07c.255.003.51-.014.761-.053.174-.02.349-.03.523-.029l1.384-.046h.098c.46.017.92-.02 1.372-.11.426-.047.85-.119 1.267-.216.248-.054.489-.14.715-.256.21-.11.43-.215.65-.302.198-.068.37-.194.495-.36.075-.105.168-.192.25-.285a.256.256 0 0 0 0-.314 1.662 1.662 0 0 0-.825-.622 1.029 1.029 0 0 0-.518 0 .198.198 0 0 0-.11.082.616.616 0 0 0-.134.488.407.407 0 0 1 0 .186.157.157 0 0 1-.087.099.186.186 0 0 1-.134 0 .238.238 0 0 1-.093-.105c-.046-.105-.081-.21-.122-.314a.145.145 0 0 0-.133-.116.448.448 0 0 1-.413-.285.634.634 0 0 0-.11-.157.372.372 0 0 0-.163-.093 1.064 1.064 0 0 0-.239 0h-.43a.401.401 0 0 1-.488-.395c-.04-.186-.128-.36-.15-.546a.39.39 0 0 0-.309-.372 2.644 2.644 0 0 0-.703-.134.337.337 0 0 1-.337-.285c0-.104-.047-.215-.064-.325a.157.157 0 0 1 .11-.14h.047a1.744 1.744 0 0 1 1.703.849c.022.04.042.084.058.128a.192.192 0 0 0 .174.14c.407-.017.79.193.994.546a.546.546 0 0 0 .308.215c.164.061.336.096.511.104h.477c.386.01.755.158 1.04.419.13.138.29.247.465.32a.285.285 0 0 1 .14.121c.14.23.236.485.285.75.076.65.103 1.305.08 1.959zm-.703 2.26v-.238a5.289 5.289 0 0 1 .128-1.464.72.72 0 0 0 0-.285 8.294 8.294 0 0 1-.059-1.412v-.715a.093.093 0 0 0-.052-.064.134.134 0 0 0-.087 0 .232.232 0 0 0-.081.052l-.326.349c-.1.124-.222.228-.36.308-.198.099-.39.21-.581.302a4.702 4.702 0 0 1-1.262.43l-1.226.169a6.94 6.94 0 0 1-.709.075c-.668 0-1.331.117-1.988.175a8.817 8.817 0 0 1-1.743 0c-.523-.058-1.04-.134-1.558-.21l-.238-.034a1.32 1.32 0 0 1-.64-.157.668.668 0 0 0-.232-.059l-.895-.127a.65.65 0 0 1-.384-.18c-.232-.239-.552-.378-.767-.64a.116.116 0 0 0-.081 0 .046.046 0 0 0 0 .04c.044.281.066.565.064.85 0 .11.01.221.029.33.122.582.244 1.163.39 1.744.092.39.168.773.237 1.163.016.126.044.25.082.372.131.307.206.636.22.97 0 .163.078.317.21.413.283.231.593.426.924.581.407.186.844.294 1.29.32.176 0 .35.036.512.104a2.75 2.75 0 0 0 1.023.21c.144.005.287.018.43.04.523.07 1.052-.058 1.569 0 .094.014.19.014.285 0a15.6 15.6 0 0 0 1.703-.285c.261-.07.529-.122.79-.186a9.38 9.38 0 0 0 1.64-.424c.144-.064.295-.11.447-.168.1-.04.196-.09.284-.151.202-.138.397-.288.582-.448.15-.143.29-.296.418-.46a.43.43 0 0 0 .087-.214 2.906 2.906 0 0 0 0-.378v-.709l-.075.012zM108.969 64.077a2.418 2.418 0 0 1 .116-.895 5.963 5.963 0 0 0 .238-1.645v-1.86c0-.238.035-.476.058-.709v-.192c.035-.534.082-1.075.093-1.615a8.05 8.05 0 0 1 .215-1.604c0-.093.047-.186.064-.285a.151.151 0 0 0-.11-.186 5.321 5.321 0 0 0-.512-.105 2.94 2.94 0 0 0-.476 0 5.405 5.405 0 0 1-1.232-.11 1.837 1.837 0 0 0-.582-.035 1.813 1.813 0 0 1-.75-.087 1.505 1.505 0 0 0-.703-.058c-.347.063-.704.03-1.034-.093a3.383 3.383 0 0 0-.942-.152 28.43 28.43 0 0 1-1.987-.255c-.204-.035-.401-.099-.582-.151a2.028 2.028 0 0 0-.58-.105 1.552 1.552 0 0 1-.541-.18.105.105 0 0 0-.14.052c.012.207.012.415 0 .622 0 .21-.04.477-.081.71a.39.39 0 0 1-.343.284.262.262 0 0 1-.198-.116.54.54 0 0 1-.052-.18 2.453 2.453 0 0 1 0-.384c.052-.442.08-.886.081-1.331a.511.511 0 0 1 0-.14.169.169 0 0 1 .134-.116.54.54 0 0 1 .192 0l1.034.186c.454.087.901.198 1.36.256.582.076 1.099.192 1.657.215.143.007.283.034.418.081.273.095.561.135.849.117.333-.023.668.003.994.075.203.035.41.046.616.035.254.001.509.019.761.052.282.03.565.043.849.041.303-.005.606.014.906.058.204.032.41.044.616.035.29-.01.576.063.826.21.11.063.226.115.337.18a.285.285 0 0 1 .145.366.668.668 0 0 1-.035.14c-.052.214-.116.43-.157.644a37.05 37.05 0 0 0-.285 1.784c0 .157 0 .32-.034.477.006.127-.004.254-.03.378a13.722 13.722 0 0 0-.302 1.586 1.412 1.412 0 0 0 0 .617c.05.298.05.602 0 .9 0 .175-.04.35-.046.523.003.191-.043.38-.134.547-.123.205-.188.44-.186.68 0 .093 0 .192-.035.285-.07.458.017.927.244 1.33a.448.448 0 0 1 .035.088.203.203 0 0 1-.087.203h-.093a4.65 4.65 0 0 0-1.075.192c-.278.075-.57.075-.849 0-.602-.15-1.214-.26-1.83-.331a5.986 5.986 0 0 0-1.378-.1c-.096.001-.192-.01-.285-.034a3.336 3.336 0 0 0-.33-.058 4.307 4.307 0 0 1-.658-.105 2.5 2.5 0 0 0-.709-.081.982.982 0 0 1-.47-.064.831.831 0 0 0-.582 0c-.36.08-.736.024-1.057-.157a.645.645 0 0 1-.192-.21.087.087 0 0 1 .035-.115c.284-.047.58-.105.889-.146.319-.037.64.03.918.192.17.088.361.126.552.11h.581c.195.004.39.023.582.059.203.038.412.038.616 0a1.93 1.93 0 0 1 .802.052c.124.03.25.049.378.058.65.051 1.294.162 1.923.331a.854.854 0 0 0 .471 0 3.36 3.36 0 0 1 .89-.162.192.192 0 0 0 .191-.18c.023-.134.018-.262.018-.42zM37.865 83.692h.494a.169.169 0 0 0 .093-.093.093.093 0 0 0 0-.087l-.517-.418-.256-.21a.076.076 0 0 0-.11 0 1.314 1.314 0 0 1-.401.524.697.697 0 0 1-.343.156.285.285 0 0 1-.256-.093l-.058-.075c-.198-.349-.244-.436.081-.738.047-.04.093-.087.14-.128.32-.272.492-.68.465-1.099a.453.453 0 0 0-.215-.4 2.057 2.057 0 0 0-.384-.187.407.407 0 0 1-.25-.267 1.744 1.744 0 0 1-.076-.285.907.907 0 0 1 .175-.808c.072-.088.137-.184.192-.284a.384.384 0 0 0 .127-.285.39.39 0 0 0-.226-.163.907.907 0 0 1-.366-.535c-.035-.14-.053-.284-.082-.424 0-.127.024-.253.07-.372a.128.128 0 0 0-.128-.122h-.378a.54.54 0 0 1-.441-.238 1.697 1.697 0 0 1-.285-.796.134.134 0 0 1 .081-.105c.377-.081.77-.032 1.116.14a.5.5 0 0 1 .122.075c.432.314.689.815.692 1.348a.343.343 0 0 0 .104.256c.117.134.221.285.326.413.19.261.248.596.157.906-.05.173-.112.342-.186.506-.064.145-.14.285-.21.43a.186.186 0 0 0 0 .221.163.163 0 0 0 .175.04c.064 0 .122-.04.186-.052.157-.026.318-.016.47.03.367.104.727.22 1.1.313.246.059.497.102.749.128.2.011.396.054.581.128a.761.761 0 0 0 .18.058c.337.058.465-.052.35-.39a3.958 3.958 0 0 0-.181-.44c-.105-.216-.221-.425-.32-.64a1.505 1.505 0 0 0-.5-.628 3.638 3.638 0 0 1-.82-.976.128.128 0 0 1 0-.169.151.151 0 0 1 .181 0c.04.025.076.056.105.093.24.298.51.569.808.808.15.117.278.261.377.424.146.244.285.488.436.738.151.25.308.582.465.884.127.238.208.499.238.767a.482.482 0 0 1-.58.581 3.319 3.319 0 0 1-.913-.285 2.842 2.842 0 0 0-.686-.191 3.749 3.749 0 0 1-.883-.308c-.262-.11-.535-.204-.802-.303a1.563 1.563 0 0 0-.285-.058.087.087 0 0 0-.047.058c.135.362.182.75.14 1.134v.238a.169.169 0 0 0 .093.157c.07.04.144.072.22.099.199.056.383.153.541.284.151.117.308.227.453.355.096.085.182.18.256.285a.285.285 0 0 1-.07.383.581.581 0 0 1-.348.146c-.175.01-.351-.002-.523-.035a5.463 5.463 0 0 0-.797-.146.657.657 0 0 1-.215-.087.099.099 0 0 1-.046-.075.169.169 0 0 1 .075-.105c.186 0 .378-.035.582-.052l-.012.046zM111.235 68.581c.008-.079.008-.159 0-.238a4.975 4.975 0 0 1 0-1.465v-.192c.04-.58.064-1.203.116-1.807.053-.604.07-1.238.152-1.848a1.29 1.29 0 0 0 0-.192c.026-.523.078-1.045.156-1.563 0-.21.047-.413.053-.617.024-.634.08-1.266.168-1.894.047-.331.076-.663.093-.994a4.068 4.068 0 0 0 0-.616 5.23 5.23 0 0 1 0-1.046c.086-.677.128-1.358.128-2.04 0-.686.076-1.366.11-2.046 0-.302.053-.581.1-.9.044-.381.187-.743.412-1.053a.244.244 0 0 1 .256-.081.523.523 0 0 1 .285.174.25.25 0 0 1 .046.308 4.12 4.12 0 0 0-.407 1.65c-.087.663-.087 1.332-.122 1.994-.029.581-.07 1.134-.081 1.715a.581.581 0 0 1 0 .099 8.584 8.584 0 0 0-.07 1.697c0 .284-.024.568-.07.848-.07.471-.098.948-.145 1.412-.066.729-.095 1.46-.087 2.192.01.094.01.19 0 .284a4.068 4.068 0 0 0-.064.994c.014.285-.007.57-.064.849a.831.831 0 0 0 0 .14c-.035.65-.076 1.295-.105 1.946 0 .32-.021.638-.064.953a3.79 3.79 0 0 0 0 .901v.192a.285.285 0 0 1-.145.285l-.424.215a.157.157 0 0 1-.204-.14v-.116h-.023zM40.213 86.302l-1.47-.116a2.534 2.534 0 0 1-.692-.169 1.046 1.046 0 0 0-.233-.04.046.046 0 0 0 0 .028.314.314 0 0 0 0 .093c.047.117.1.233.14.355a.936.936 0 0 1 0 .581c-.02.077-.033.154-.04.233-.017.1.008.203.069.284l.116.152c.27.345.365.796.256 1.22a1.058 1.058 0 0 1-.203.477.325.325 0 0 0 0 .465l.04.034a.982.982 0 0 1 .157.239.93.93 0 0 1 .116.314 1.744 1.744 0 0 1-.58 1.627.314.314 0 0 1-.437 0 3.33 3.33 0 0 1-.308-.302.169.169 0 0 1 0-.215l.372-.366c.21-.198.363-.45.442-.727a.203.203 0 0 0-.22-.285 3.162 3.162 0 0 0-.332.041h-.238a.302.302 0 0 1-.25-.122.825.825 0 0 1-.134-.767.448.448 0 0 1 .238-.285l.262-.116a.953.953 0 0 0 .534-.797.285.285 0 0 0-.156-.32l-.233-.057a.436.436 0 0 1-.232-.285.75.75 0 0 1 .046-.581c.082-.138.13-.294.14-.454a.232.232 0 0 0-.07-.168 1.029 1.029 0 0 0-.517-.233.668.668 0 0 0-.413.088c-.116.058-.215.133-.326.197a.215.215 0 0 1-.255-.052.808.808 0 0 1-.134-.244 3.61 3.61 0 0 1-.093-.518.32.32 0 0 1 .058-.174c.037-.051.078-.1.122-.145.053-.06.1-.124.14-.192a.482.482 0 0 0-.303-.75 1.122 1.122 0 0 0-.61-.04c-.378.061-.74.204-1.058.418a1.418 1.418 0 0 1-.58.244.331.331 0 0 1-.187 0 .22.22 0 0 1-.116-.378 2.22 2.22 0 0 1 1.104-.79 2.174 2.174 0 0 1 1.523.215c.348.168.608.477.715.849.021.06.039.123.052.186a.453.453 0 0 0 .355.4c.193.077.371.185.529.32a.36.36 0 0 0 .313.076.756.756 0 0 1 .239 0c.732.064 1.464.04 2.197.035.286.005.57.044.848.116a4.26 4.26 0 0 1 1.163.4c.125.07.22.184.261.32a.285.285 0 0 1-.064.309.692.692 0 0 1-.32.197c-.284.082-.546.169-.825.233-.279.064-.47.075-.709.104a.099.099 0 0 1-.081 0 .192.192 0 0 1 0-.128c.137-.217.305-.413.5-.58l.18-.158a.076.076 0 0 0 0-.104l-.18-.058h-.634l.006-.134zM27.316 95.217c.447-.005.89.066 1.314.21.539.157.913.647.924 1.209-.007.11-.007.22 0 .33.018.111.051.219.099.32a.22.22 0 0 0 .14.11c.425.076.863.025 1.26-.144a.994.994 0 0 0 .256-.21.238.238 0 0 1 .302-.034l.285.156a.64.64 0 0 1 .32.338.238.238 0 0 0 .29.174h.058c.154-.042.303-.097.448-.163.187-.085.37-.18.546-.285.304-.184.623-.341.953-.47a.61.61 0 0 1 .465-.035.883.883 0 0 0 .651-.047c.343-.128.663-.31.948-.54.241-.186.4-.46.441-.762a.82.82 0 0 0 0-.325 1.877 1.877 0 0 1-.052-.285.192.192 0 0 1 .21-.174c.164.096.323.2.476.314a.227.227 0 0 1 .035.302.581.581 0 0 0-.128.395c.007.143.007.287 0 .43-.01.289-.136.56-.349.756a5.08 5.08 0 0 1-.93.662l-.255.122a.581.581 0 0 1-.547-.035l-.081-.046a.424.424 0 0 0-.238-.14.494.494 0 0 0-.326.186 9.103 9.103 0 0 0-.476.471c-.22.207-.45.4-.692.581a1.255 1.255 0 0 1-1.5-.104c-.342-.384-.33-.285-.68-.116-.437.21-.942.23-1.394.052a.668.668 0 0 1-.204-.116 2.127 2.127 0 0 1-.546-.582c-.047-.081-.093-.168-.145-.244a1.848 1.848 0 0 1-.355-1.11c.008-.079.008-.159 0-.238a.25.25 0 0 0-.18-.204 2.383 2.383 0 0 0-.581-.104c-.303 0-.582-.058-.901-.105a.994.994 0 0 0-.581 0 .198.198 0 0 1-.239-.116.157.157 0 0 1 .04-.21c.152-.087.32-.14.495-.156.145-.03.267-.018.424-.018zM47.408 70.575a1.354 1.354 0 0 0 0-.14.796.796 0 0 0-.064-.459 2.453 2.453 0 0 0-.43-.366c-.128-.093-.267-.163-.4-.25a.093.093 0 0 1 0-.081.105.105 0 0 1 .063-.058.267.267 0 0 1 .14 0c.337.088.667.2.988.337.413.164.681.566.674 1.01a1.052 1.052 0 0 0 0 .14c.058.498-.166.987-.581 1.267a.61.61 0 0 1-.535.117l-.18-.058a1.04 1.04 0 0 0-.919.104.407.407 0 0 0-.25.372.61.61 0 0 1-.15.39c-.123.162-.256.32-.39.482a7.643 7.643 0 0 1-.581.65 4.068 4.068 0 0 1-1.296.942c-.453.2-.924.354-1.407.46a4.266 4.266 0 0 1-.58.063 2.325 2.325 0 0 1-.338 0 2.94 2.94 0 0 0-1.842.547 3.4 3.4 0 0 0-.628.511c-.116.128-.256.239-.384.355a.407.407 0 0 1-.523.058c-.093-.058-.197-.105-.285-.151-.087-.047-.174-.157-.07-.302a3.778 3.778 0 0 1 2.355-1.581c.218-.042.44-.056.662-.041.414.02.828-.037 1.22-.169.303-.098.61-.18.907-.302a4.72 4.72 0 0 0 1.744-1.278c.093-.105.197-.21.285-.32.191-.193.338-.425.43-.68.26-.611.942-.924 1.575-.72l.18.057a.418.418 0 0 0 .581-.389v-.523l.03.006zM96.973 90.277a1.395 1.395 0 0 1-.268-.04 8.433 8.433 0 0 1-1.418-.442 2.325 2.325 0 0 1-.581-.331c-.122-.1-.256-.186-.39-.285a2.906 2.906 0 0 1-.267-.204 1.436 1.436 0 0 1-.581-1.11 12.786 12.786 0 0 0-.256-1.412 34.528 34.528 0 0 1-.436-2.29c-.089-.628-.184-1.255-.284-1.883-.07-.436-.163-.872-.233-1.314-.07-.441-.104-.72-.14-1.086-.046-.477-.063-.954-.116-1.413-.07-.616-.075-1.238-.191-1.842-.03-.169-.093-.337-.128-.506a.825.825 0 0 1 0-.186.099.099 0 0 1 .046-.075.11.11 0 0 1 .093 0c.055.03.104.07.146.116.232.284.41.61.523.959.121.367.197.748.226 1.133 0 .366.058.727.11 1.087.129.977.233 1.953.396 2.906.14.814.277 1.627.413 2.441.157.942.354 1.872.58 2.796.082.337.14.68.24 1.017.054.217.19.406.377.529.083.045.161.1.232.162.194.19.435.324.698.39.197.064.395.122.581.18.309.079.61.184.9.314.063.022.106.08.111.145a.22.22 0 0 1-.168.21l-.215.034zM63.606 67.384l-.668-.052a2.76 2.76 0 0 0-.762 0 2.58 2.58 0 0 1-.848 0l-2.075-.308c-.349-.047-.697-.076-1.046-.122a24.875 24.875 0 0 1-1.32-.198 4.068 4.068 0 0 1-.58-.186c-.105-.035-.204-.087-.309-.128a3.162 3.162 0 0 0-1.255-.261 1.662 1.662 0 0 1-1.343-.78 1.54 1.54 0 0 1-.15-1.016.744.744 0 0 1 .197-.372c.14-.152.305-.278.488-.372a7.556 7.556 0 0 1 1.744-.692 10.91 10.91 0 0 0 1.319-.418c.223-.087.455-.148.692-.18.235-.038.467-.088.697-.152.6-.16 1.207-.29 1.82-.39.11-.006.22-.006.33 0a.081.081 0 0 1 .093.088.169.169 0 0 1-.046.076c-.14.077-.285.141-.436.191a7.7 7.7 0 0 1-1.261.256 3.266 3.266 0 0 0-1.285.337.814.814 0 0 1-.459.122c-.305-.01-.608.06-.877.204-.3.146-.622.242-.954.285a1.505 1.505 0 0 0-.447.156c-.285.123-.546.262-.82.396-.306.174-.5.496-.511.848a.477.477 0 0 0 .215.407c.13.09.273.16.424.21.32.098.646.17.977.214a4.83 4.83 0 0 1 1.203.285c.449.166.918.27 1.395.308.43.035.848.116 1.273.192.674.116 1.348.22 2.028.285.523.052 1.052.058 1.575.075.523.018 1.017.047 1.528.064h1.163c.063.006.126.02.186.04a.058.058 0 0 1 0 .042.058.058 0 0 1 0 .04 1.47 1.47 0 0 1-.552.285.84.84 0 0 0-.285.064 2.685 2.685 0 0 1-1.058.157zM26.81 66.326c-.2.055-.41.055-.61 0a2.075 2.075 0 0 0-.808 0 .424.424 0 0 1-.232 0 .448.448 0 0 0-.523.105.668.668 0 0 0-.122.145.285.285 0 0 0 0 .314l.163.285c.067.126.097.27.087.412 0 .081-.045.155-.116.192a.238.238 0 0 1-.227 0 .46.46 0 0 1-.11-.104 2.343 2.343 0 0 1-.152-.186.302.302 0 0 0-.284-.123c-.428.044-.85.128-1.262.25a1.011 1.011 0 0 0-.645.53.761.761 0 0 1-.099.162.523.523 0 0 0-.087.616.285.285 0 0 1-.058.314.186.186 0 0 1-.261 0 .988.988 0 0 1-.128-1.035c.17-.4.477-.725.866-.918.172-.085.35-.155.534-.21a8.718 8.718 0 0 1 1.203-.307.285.285 0 0 0 .268-.227 1.22 1.22 0 0 1 .581-.761c.145-.093.308-.163.465-.238a.232.232 0 0 0 .157-.291 1.691 1.691 0 0 1 0-.657 1.203 1.203 0 0 1 1.052-.965c.27-.02.543-.02.814 0 .11.015.216.05.313.105.1.047.186.116.285.18.099.064.238.099.262.047a.232.232 0 0 0-.11-.215c-.053-.1-.117-.192-.158-.285a.761.761 0 0 1 .169-.872c.353-.33.826-.498 1.308-.465.238 0 .476.047.709.081a.756.756 0 0 1 .598.564.262.262 0 0 1 0 .093.11.11 0 0 1-.122.04.581.581 0 0 1-.14-.121.581.581 0 0 0-.668-.256c-.122 0-.25.052-.372.064a2.639 2.639 0 0 1-.337 0c-.29.01-.567.12-.784.314l-.035.035a.232.232 0 0 0-.035.302c.076.099.163.192.244.285.16.18.265.401.302.64a.54.54 0 0 1-.314.58.39.39 0 0 1-.232 0 2.162 2.162 0 0 1-.401-.15 2.796 2.796 0 0 0-1.046-.309 2.104 2.104 0 0 1-.326-.081.581.581 0 0 0-.685.494 1.953 1.953 0 0 0 0 .378.22.22 0 0 0 .18.203c.311.067.599.217.83.436.13.093.266.177.408.25a.215.215 0 0 1 .098.157.122.122 0 0 1-.087.145h-.337l.018.058zM20.342 78.351h-.285a.546.546 0 0 1-.354-.11l-.122-.076a.959.959 0 0 0-1.163.122 1.348 1.348 0 0 0-.407.523.9.9 0 0 0-.081.285c0 .122.128.122.198.174l.075.059c.223.213.418.453.581.714a.244.244 0 0 1-.174.367.511.511 0 0 1-.233 0 2.01 2.01 0 0 1-.395-.157.349.349 0 0 0-.36 0 .924.924 0 0 0-.483.726c-.075.329-.036.673.11.977.02.042.031.087.036.133a.128.128 0 0 1-.128.11l-.18-.057a1.075 1.075 0 0 0-.657-.064c-.379.07-.728.25-1.005.517a.645.645 0 0 0-.204.366.285.285 0 0 0 .064.267c.122.123.252.237.39.343.203.151.418.285.627.43a.401.401 0 0 1 .122.14.145.145 0 0 1 0 .134.442.442 0 0 1-.47.156 1.79 1.79 0 0 1-1.314-1.604 1.162 1.162 0 0 1 .5-1.11c.37-.308.827-.491 1.307-.523.062.01.125.01.186 0a.18.18 0 0 0 .093-.099.849.849 0 0 0 .03-.186c0-.191.046-.377.07-.58.037-.303.189-.58.423-.774.06-.053.125-.102.192-.145.1-.061.16-.168.163-.285a.616.616 0 0 1 0-.192c.064-.429.286-.818.622-1.092a1 1 0 0 1 .936-.227h.046a3.72 3.72 0 0 0 1.505.157h.285c.354-.02.679-.2.884-.488a.703.703 0 0 1 .174-.157.122.122 0 0 1 .081 0 .046.046 0 0 1 0 .04c-.087.285-.168.582-.267.849a.372.372 0 0 1-.163.163.581.581 0 0 1-.226.075l-1.04.128.01-.029zM22.742 94.77c.154-.011.307-.03.46-.058.284-.058.58-.14.877-.215a.134.134 0 0 1 .169.087c.046.535.122.581-.43.79h-.041c-.28.156-.606.203-.919.134-.374-.07-.735-.2-1.069-.384-.3-.18-.547-.436-.715-.743-.093-.152-.163-.309-.244-.465a.395.395 0 0 0-.25-.21l-.232-.064c-.351-.122-.67-.32-.936-.58a3.173 3.173 0 0 1-1.017-1.843.227.227 0 0 0-.186-.192l-.285-.058c-.444-.08-.84-.33-1.104-.698a3.574 3.574 0 0 1-.465-.83 7.759 7.759 0 0 1-.448-1.744c-.029-.204-.052-.407-.07-.616a.134.134 0 0 1 .146-.128c.145.02.268.115.325.25.136.286.232.589.285.9.042.428.132.849.268 1.256.034.105.063.215.11.314.203.488.238.476.686.535.386.04.776.04 1.162 0a.546.546 0 0 1 .326.046c.122.07.25.134.372.21.114.07.157.215.098.336-.093.221-.191.436-.284.651l-.117.262a.418.418 0 0 0 0 .325c.104.25.258.476.454.663.119.106.263.18.418.215.262.07.523.134.79.192.266.051.517.158.739.314a.21.21 0 0 1 .087.25c-.03.104-.07.214-.099.32a.448.448 0 0 0 .285.58c.273.108.561.175.854.198zM45.78 64.513c-.057.459-.051.39.379.535l.447.168c.159.073.301.178.419.308.17.156.231.398.157.616a.994.994 0 0 1-.064.18 6.556 6.556 0 0 1-.68 1.198.994.994 0 0 1-.128.14.244.244 0 0 1-.268.04.517.517 0 0 1-.302-.738c.099-.198.227-.384.331-.582.105-.197.204-.43.303-.645a.128.128 0 0 0-.07-.157 1.877 1.877 0 0 0-.686-.197.697.697 0 0 1-.581-.314.785.785 0 0 1-.128-.634c.04-.218.061-.44.064-.662 0-.36-.128-.488-.488-.488a1.656 1.656 0 0 0-.703.098l-.134.047a.581.581 0 0 1-.744-.349.285.285 0 0 1 .064-.395h.029l.157-.105a.448.448 0 0 0 .116-.145 1.058 1.058 0 0 0 0-.831.285.285 0 0 0-.25-.192 1.988 1.988 0 0 0-1.366.314c-.13.09-.265.172-.406.244-.16.075-.308.171-.442.285a1.064 1.064 0 0 1-.244.14.134.134 0 0 1-.175-.035.285.285 0 0 1-.07-.169.715.715 0 0 1 .105-.262c.335-.533.88-.9 1.5-1.01a2.272 2.272 0 0 1 1.488.191c.143.071.273.168.383.285a.849.849 0 0 1 .262.64c.001.157.019.315.052.47a.285.285 0 0 0 .21.238c.208.076.418.157.621.238.178.073.338.182.47.32.221.21.35.498.361.802.018.134.012.262.012.413z"/>
        <path fill="#1A1A1A" d="M17.163 72.97c-.001-.183.03-.364.093-.535.126-.36.324-.69.58-.971a1 1 0 0 1 .739-.384h.093a.215.215 0 0 0 .198-.226 1.563 1.563 0 0 1 0-.285c.045-.364.2-.705.447-.977a.657.657 0 0 1 .105-.098.39.39 0 0 1 .488 0c.075.058.145.122.21.191.057.059.104.123.156.18.066.089.184.12.285.076.325-.122.65-.25.982-.366.162-.069.332-.115.506-.14a.5.5 0 0 0 .523-.389c.202-.334.552-.55.941-.581a2.51 2.51 0 0 1 .523 0c.25.029.5.081.75.134.346.076.657.262.89.529.174.186.33.389.488.58.023.023.039.051.046.082.013.06.013.12 0 .18a.174.174 0 0 1-.21.076.732.732 0 0 1-.168-.087c-.226-.175-.459-.343-.674-.53a1.162 1.162 0 0 0-.581-.284 1.662 1.662 0 0 1-.453-.134.668.668 0 0 0-.582 0 .517.517 0 0 0-.244.215.424.424 0 0 1-.098.163c-.285.186-.239.407-.093.651.052.1.086.208.098.32a.325.325 0 0 1-.052.174.128.128 0 0 1-.163.064.674.674 0 0 1-.174-.081.72.72 0 0 1-.099-.105c-.122-.122-.116-.349-.308-.407a1.32 1.32 0 0 0-.511.087l-.582.041a1.052 1.052 0 0 0-.726.302l-.035.03a.203.203 0 0 1-.285 0c-.052-.059-.098-.129-.15-.187a.215.215 0 0 0-.303 0c-.223.208-.37.484-.418.785a.895.895 0 0 0 .07.581.715.715 0 0 1 .092.366.831.831 0 0 1 0 .14.116.116 0 0 1-.145.064 1.232 1.232 0 0 1-.233-.146.442.442 0 0 0-.441-.116c-.175.03-.338.105-.477.215l-.47.302a.715.715 0 0 0-.285.384c-.067.23-.067.474 0 .703.052.198.128.39.186.581a.087.087 0 0 1-.03.082.11.11 0 0 1-.087 0 .366.366 0 0 1-.104-.099 2 2 0 0 1-.308-1.15zM17.703 77.06c.003-.433.1-.862.285-1.255a2.854 2.854 0 0 1 1.593-1.36c.305-.1.638-.08.93.059.04.024.082.044.127.058a.169.169 0 0 0 .128-.035c.061-.072.118-.148.169-.227a2.18 2.18 0 0 1 1.563-.895c.222-.028.447-.002.657.076a.448.448 0 0 0 .407-.035c.188-.1.382-.19.58-.268.385-.16.801-.225 1.216-.191.255.015.504.082.732.197a.802.802 0 0 1 .366.39.5.5 0 0 1 0 .226.087.087 0 0 1-.07.047.285.285 0 0 1-.122-.058.97.97 0 0 0-.616-.215h-1.063c-.204.02-.401.079-.582.174a.215.215 0 0 0-.162.262v.034a.314.314 0 0 1-.07.308.18.18 0 0 1-.22.03 2.017 2.017 0 0 1-.204-.198.331.331 0 0 0-.25-.116h-1.052a.482.482 0 0 0-.227.07.895.895 0 0 0-.535.83.965.965 0 0 1-.064.32.174.174 0 0 1-.302.064l-.15-.186-.262-.285a.482.482 0 0 0-.582-.104c-.173.078-.339.173-.494.285-.301.238-.58.504-.83.796a.994.994 0 0 0-.21.372c-.072.21-.119.429-.14.65-.02.173-.05.344-.092.512a.581.581 0 0 1-.093.163.134.134 0 0 1-.186 0 .628.628 0 0 1-.088-.169 2.028 2.028 0 0 1-.087-.325zM83.111 61.938c.095-.007.19-.007.285 0 .36.052.726.064 1.093.105.616.07 1.226.168 1.842.261l.657.11a5.76 5.76 0 0 1 1.703.617c.297.158.529.415.656.726.217.455.184.988-.087 1.413a1.964 1.964 0 0 1-1.162 1.063c-.213.105-.43.206-.651.302a.65.65 0 0 1-.419.047c-.168-.04-.348-.04-.517-.076-.081 0-.192.058-.238-.07a.401.401 0 0 1 .232-.15c.285-.123.581-.239.878-.372.296-.134.65-.326.97-.506.352-.195.625-.505.773-.878a.477.477 0 0 0-.034-.453.988.988 0 0 0-.407-.39l-.767-.377a3.005 3.005 0 0 0-.785-.198l-2.209-.378a1.453 1.453 0 0 1-.453-.14 1.47 1.47 0 0 0-.785-.162 4.992 4.992 0 0 1-1.162-.157l-.081-.046a.116.116 0 0 1 0-.163.581.581 0 0 1 .209-.105c.174 0 .349-.029.523-.046l-.064.023zM33.628 60.212v-.157a.093.093 0 0 0-.087-.099.581.581 0 0 0-.192 0 2.871 2.871 0 0 0-.511.116c-.467.15-.817.538-.919 1.018-.05.217-.07.44-.058.662a.418.418 0 0 1-.285.407.128.128 0 0 1-.116-.047.895.895 0 0 1-.122-.639c.04-.197.094-.392.163-.581a1.645 1.645 0 0 1 1.104-1.04 3.272 3.272 0 0 1 1.075-.186.378.378 0 0 0 .303-.122c.432-.41.992-.659 1.586-.704a.872.872 0 0 1 .831.25c.05.046.126.046.175 0 .093-.058.18-.128.284-.186.318-.19.694-.259 1.058-.192.58.12 1.108.42 1.506.86.043.048.08.1.11.158a.442.442 0 0 1 .03.453c-.041.085-.086.169-.135.25a.285.285 0 0 1-.389.087l-.052-.046a1.563 1.563 0 0 1-.227-.245c-.099-.14-.186-.284-.285-.441a.413.413 0 0 1-.029-.285.232.232 0 0 0-.18-.25.5.5 0 0 0-.18-.047c-.405-.03-.8.135-1.064.442a4.342 4.342 0 0 1-.366.436.285.285 0 0 1-.46 0 .65.65 0 0 1-.202-.47c.006-.111.006-.222 0-.332a.174.174 0 0 0-.14-.11c-.45-.028-.894.12-1.238.412a1.081 1.081 0 0 1-.285.18.581.581 0 0 0-.285.314c-.052.134-.098.268-.145.401a.145.145 0 0 1-.15.093.163.163 0 0 1-.129-.122c-.005-.08-.003-.159.006-.238zM50.36 80.507a3.592 3.592 0 0 1-.47-.098 7.085 7.085 0 0 0-.732-.198 2.389 2.389 0 0 1-.407-.134 1.197 1.197 0 0 0-.581-.099h-.285a.715.715 0 0 1-.442-.156l-.227-.18a.65.65 0 0 0-.337-.163 1.86 1.86 0 0 1-.964-.494 4.615 4.615 0 0 1-.866-.942.831.831 0 0 0-.204-.198 2.458 2.458 0 0 1-.494-.511 7.44 7.44 0 0 1-.761-1.343.448.448 0 0 1 0-.186.105.105 0 0 1 .145-.07c.116.108.224.222.326.344.127.162.238.337.354.511.147.222.33.418.54.581.155.137.297.286.425.448l.343.395c.25.293.578.507.947.616.167.054.324.135.465.238.156.11.335.183.523.215.64.122 1.279.245 1.906.419.17.045.343.067.518.064h.953a.942.942 0 0 1 .232.04c.027.014.044.04.047.07a.436.436 0 0 1-.04.18 2.197 2.197 0 0 1-.472.535.645.645 0 0 1-.441.116zM31.71 68.477c0 .116-.058.209-.075.302a.331.331 0 0 0 .116.343c.05.038.097.08.14.128a.198.198 0 0 1 0 .255c-.052.038-.107.07-.163.1l-.518.249-.162.099a.343.343 0 0 0-.117.459c.05.08.105.158.163.232a.203.203 0 0 1-.058.256 1.058 1.058 0 0 1-.163.093c-.087.035-.18.064-.267.105a.337.337 0 0 0-.163.441c.03.075.068.147.11.216l.372.61c.064.104.128.215.192.331a.285.285 0 0 1 0 .314 1.744 1.744 0 0 1-.15.186.366.366 0 0 0-.111.343.099.099 0 0 1-.082.11h-.035c-.15-.046-.302-.093-.453-.15a.145.145 0 0 1-.046-.262l.07-.064c.197-.169.168-.244.046-.448-.21-.354-.413-.715-.616-1.075a2.383 2.383 0 0 1-.122-.256.46.46 0 0 1 .064-.447c.087-.134.284-.192.284-.36a4.068 4.068 0 0 0 0-.43.71.71 0 0 1 .32-.582c.14-.105.285-.192.442-.285a.244.244 0 0 0 .122-.285.849.849 0 0 1 .378-.866.32.32 0 0 1 .284-.058.349.349 0 0 1 .198.396zM82.53 94.572a.581.581 0 0 1 0 .14.163.163 0 0 1-.07.11.849.849 0 0 0-.511.326.959.959 0 0 1-.192.14l-.198.133a.68.68 0 0 0-.331.773c.04.23-.109.45-.337.5l-.186.035h-.192a1.22 1.22 0 0 0-1.017.691c-.06.13-.129.256-.203.378a.232.232 0 0 1-.396 0c-.04-.052-.07-.105-.11-.157a.325.325 0 0 1-.035-.32c.093-.271.234-.524.419-.744.123-.148.287-.26.47-.32.237-.094.482-.164.733-.208a.215.215 0 0 0 .215-.262.581.581 0 0 0 0-.099.72.72 0 0 1 .261-.633c.104-.1.212-.196.326-.285.118-.078.224-.174.314-.285a.477.477 0 0 1 .133-.134c.113-.057.222-.123.326-.197.09-.108.176-.22.255-.337a.767.767 0 0 1 .489-.262c.35-.04.68-.186.947-.418.111-.11.29-.11.401 0l.04.058c.049.081.084.17.105.261a.145.145 0 0 1-.046.122c-.256.21-.542.378-.849.5a.581.581 0 0 1-.5-.035.21.21 0 0 0-.284.157c-.018.108-.03.217-.035.326l.058.046zM114.839 66.344c-.02.555.021 1.11.122 1.656.04.267.098.529.145.796.009.077.009.155 0 .233a.25.25 0 0 1-.14.232 1.32 1.32 0 0 1-.267.087.192.192 0 0 1-.21-.157 7.131 7.131 0 0 0-.203-1.133 14.42 14.42 0 0 1-.203-1.796 22.767 22.767 0 0 0-.227-2.173c-.07-.471-.104-.948-.145-1.413-.01-.094-.01-.19 0-.285.01-.03.031-.054.058-.07a.093.093 0 0 1 .128 0c.075.087.137.183.186.285.133.288.239.588.314.896.134.65.244 1.307.331 1.981.087.291.093.582.11.86zM50.64 87.68l.168.028a.099.099 0 0 1 .053.064.099.099 0 0 1 0 .087 1.22 1.22 0 0 1-.64.303l-.662.104-.895.128c-.5.076-1.006.14-1.506.25-.11 0-.22.035-.325.07-.276.08-.562.122-.849.122a1.97 1.97 0 0 0-1.04.32 1.9 1.9 0 0 1-.616.25 6.15 6.15 0 0 0-1.302.453c-.67.298-1.333.6-1.988.906-.483.208-.94.47-1.366.78-.09.065-.185.123-.284.174a.523.523 0 0 1-.18.064.157.157 0 0 1-.123-.041.134.134 0 0 1 0-.128.982.982 0 0 1 .163-.174 4.47 4.47 0 0 1 .948-.616 33.53 33.53 0 0 1 3.103-1.47c.25-.1.512-.175.767-.257.378-.116.768-.22 1.163-.337a20.69 20.69 0 0 1 2.08-.523c.582-.11 1.163-.22 1.703-.314.454-.075.919-.116 1.366-.215.087-.014.174-.024.262-.029zM25.195 90.26a1.226 1.226 0 0 1-.256-.058 1.418 1.418 0 0 1-.75-.634 2.999 2.999 0 0 1-.284-.75 1.011 1.011 0 0 1 0-.232.546.546 0 0 1 .284-.511c.122-.07.256-.128.378-.21a.145.145 0 0 0 .052-.116.163.163 0 0 0-.087-.105.64.64 0 0 0-.186-.04.872.872 0 0 1-.645-.448 1.383 1.383 0 0 1-.192-.581.72.72 0 0 1 .1-.46c.087-.152.208-.283.354-.383.157-.104.325-.203.488-.302l.087-.035a.262.262 0 0 1 .227 0c.069.069.09.172.052.262a.54.54 0 0 1-.32.39 1.209 1.209 0 0 0-.5.354.424.424 0 0 0-.098.261.32.32 0 0 0 .133.285c.155.114.33.196.518.238a.581.581 0 0 1 .43.343c.11.227.22.46.314.692a.308.308 0 0 1-.163.407c-.14.075-.285.128-.436.197a.407.407 0 0 0-.151.105.308.308 0 0 0-.047.174.18.18 0 0 0 .163.151.192.192 0 0 0 .186-.11.145.145 0 0 1 .192-.07l.046.035c.201.167.376.362.518.581a.325.325 0 0 1 0 .36.401.401 0 0 1-.407.21zM33.483 90.446a.942.942 0 0 1-.035.232c-.03.14-.069.278-.116.413a.965.965 0 0 1-.169.285.308.308 0 0 1-.535-.105.163.163 0 0 1 0-.134c.066-.107.14-.21.221-.308.13-.141.228-.31.285-.494a.256.256 0 0 0-.145-.313l-.093-.03a.145.145 0 0 0-.221.105c-.022.06-.047.118-.076.174a.232.232 0 0 1-.325.059 1.058 1.058 0 0 1-.32-.524.355.355 0 0 1 .064-.354.21.21 0 0 0 .04-.22l-.046-.135c-.104-.313-.145-.33-.441-.226a.744.744 0 0 0-.32.203.883.883 0 0 1-.18.151.308.308 0 0 1-.419-.099v-.04a2.028 2.028 0 0 1-.081-.215c0-.076-.04-.151-.07-.227a.163.163 0 0 0-.197-.116h-.03c-.19.089-.373.184-.552.285-.14.081-.267.174-.406.25a.302.302 0 0 1-.401-.146.169.169 0 0 1 0-.133.448.448 0 0 1 .116-.146 3.586 3.586 0 0 1 1.743-.779h.047a.285.285 0 0 1 .354.186v.041a.18.18 0 0 0 .21.145.9.9 0 0 1 .93.669c.04.122.063.244.098.366a.401.401 0 0 0 .239.285c.103.04.204.087.302.14.085.043.164.096.238.156a.773.773 0 0 1 .29.599zM96.072 58.01c-.008.09-.024.179-.047.267l-.104.511c-.025.14-.025.284 0 .424a2.43 2.43 0 0 1 0 .425c0 .238-.035.47-.041.709v1.26a.883.883 0 0 1 0 .193 5.812 5.812 0 0 0-.087 1.162v.047c0 .337-.116.406-.465.348a1.238 1.238 0 0 1-.285-.075.145.145 0 0 1-.093-.151c.01-.097.027-.192.052-.285.038-.137.062-.277.07-.419a10.16 10.16 0 0 1 .14-1.51l.162-1.512c.035-.36.058-.726.11-1.087.053-.36.065-.726.082-1.087v-.191a.174.174 0 0 1 .14-.163c.08.01.146.064.174.14.02.042.037.087.046.133.04.202.074.395.105.581.035.14.035.204.04.28zM31.03 81.286a.796.796 0 0 1 .035-.145.215.215 0 0 0-.14-.273h-.034a1.017 1.017 0 0 0-.332 0c-.212.026-.413.11-.58.244a1.61 1.61 0 0 1-.402.25.413.413 0 0 0-.285.354.116.116 0 0 1 0 .04.157.157 0 0 1-.058-.046.692.692 0 0 1 .18-.744c.228-.241.524-.408.849-.476.22-.036.446-.008.65.081.092.03.178.073.257.128.103.083.25.083.354 0 .168-.09.348-.155.535-.192a.953.953 0 0 1 .691.082.529.529 0 0 1 .122.07c.158.155.407.17.582.034a.883.883 0 0 1 .174-.081.785.785 0 0 1 .773.058c.094.056.182.122.262.198.048.063.08.137.093.215a.11.11 0 0 1-.1.128H34.6l-.128-.064a.581.581 0 0 0-.634 0 .366.366 0 0 0-.203.244c-.04.153-.09.302-.151.447a.21.21 0 0 1-.355 0 1.465 1.465 0 0 1-.203-.482.581.581 0 0 0-.378-.395.907.907 0 0 0-.942.14.215.215 0 0 0-.063.214.517.517 0 0 1-.14.436.151.151 0 0 1-.215 0v-.035a1.325 1.325 0 0 1-.157-.43zM26.09 78.543a.448.448 0 0 0-.465.116c-.074.061-.142.13-.203.204a.256.256 0 0 0 .063.43.947.947 0 0 1 .152.116.122.122 0 0 1 0 .168l-.163.093c-.07.036-.139.077-.204.122a.488.488 0 0 0-.191.32 3.365 3.365 0 0 0 0 .849.947.947 0 0 0 .284.58c.122.123.256.24.378.361a.331.331 0 0 1 .053.122.046.046 0 0 1 0 .041l-.082.04a.058.058 0 0 1-.046 0c-.186-.116-.384-.226-.582-.366a1.959 1.959 0 0 1-.674-.953.715.715 0 0 1 0-.424c.058-.21.155-.407.285-.581.076-.105.163-.198.233-.302a.232.232 0 0 0 .04-.175.697.697 0 0 1 0-.58 1.244 1.244 0 0 1 .727-.588l.226-.07a.895.895 0 0 0 .675-.58.198.198 0 0 1 .226-.135c.261.018.473.218.506.477a.413.413 0 0 1-.151.384 1.447 1.447 0 0 1-.332.186 4.737 4.737 0 0 1-.494.174 1.656 1.656 0 0 1-.261-.03zM108.132 72.79a.93.93 0 0 0 0-.152.093.093 0 0 0-.058-.064.854.854 0 0 0-.239 0c-.11.02-.22.05-.325.087a.854.854 0 0 1-.332 0 .395.395 0 0 1-.308-.197.128.128 0 0 1 0-.18h.03c.238-.082.482-.163.726-.233.094-.021.189-.035.285-.04a.802.802 0 0 1 .686.284.477.477 0 0 1 .093.163c.034.087.058.18.087.285.026.077.09.136.168.156l.366.093c.22.058.42.172.582.332a.645.645 0 0 1 .232.407.401.401 0 0 0 .285.354l.21.116c.211.139.373.343.458.582a.163.163 0 0 1-.11.203.25.25 0 0 1-.355-.203.238.238 0 0 0-.191-.18 3.551 3.551 0 0 1-.46-.128.581.581 0 0 1-.395-.494v-.14c0-.285-.064-.32-.349-.325h-.58a.407.407 0 0 1-.413-.262.581.581 0 0 1-.093-.465zM34.918 63.868c.14 0 .32.035.488.07.195.049.4.03.582-.053.304-.146.65-.181.976-.099.194.051.398.035.581-.046l.134-.047c.192-.058.285 0 .238.204-.017.075-.04.15-.07.22a.343.343 0 0 1-.377.227 1.162 1.162 0 0 1-.552-.128.453.453 0 0 0-.413 0 5.062 5.062 0 0 1-.628.215c-.204.03-.41.047-.616.053a2.668 2.668 0 0 0-.331.058.581.581 0 0 0-.494.395c-.03.076-.058.145-.093.215a.349.349 0 0 1-.215.18.581.581 0 0 1-.68-.186 2.47 2.47 0 0 1-.21-.32.192.192 0 0 1 .076-.25.9.9 0 0 0 .378-.284c.182-.204.436-.328.709-.349l.517-.075zM38.737 66.553a.302.302 0 0 1-.477.215.482.482 0 0 0-.192-.128.442.442 0 0 0-.36.064 3.342 3.342 0 0 0-.354.314.442.442 0 0 1-.332.163h-.14a.581.581 0 0 0-.51.284c-.1.163-.171.342-.21.53-.099.348-.215.394-.494.191a2.61 2.61 0 0 0-.267-.198.203.203 0 0 0-.18 0 5.812 5.812 0 0 0-.582.465.918.918 0 0 0-.203.477 2.825 2.825 0 0 1-.105.314.128.128 0 0 1-.162.064.198.198 0 0 1-.163-.151c.005-.175.044-.347.116-.506a2.04 2.04 0 0 1 .645-.814.854.854 0 0 1 .39-.168c.094-.006.19-.006.284 0a.32.32 0 0 0 .285-.157c.052-.082.099-.163.151-.238.077-.1.158-.195.244-.285a.628.628 0 0 1 .372-.192c.082 0 .157-.03.239-.035a.645.645 0 0 0 .459-.22 1.11 1.11 0 0 1 .668-.338.918.918 0 0 1 .872.285.302.302 0 0 1 .006.064zM38.097 69.674c.28-.028.558.063.768.25.08.077.19.117.302.11h.285c.223.004.443.055.645.151.246.115.475.264.68.442.073.06.132.136.174.22.02.075.02.153 0 .228a.21.21 0 0 1-.244.162.401.401 0 0 1-.244-.133 1.244 1.244 0 0 1-.157-.233.785.785 0 0 0-.703-.418.47.47 0 0 0-.268.075.738.738 0 0 0-.343.384.878.878 0 0 1-.08.168.227.227 0 0 1-.32.047.9.9 0 0 1-.25-.448.285.285 0 0 1 0-.14c0-.075.04-.15.052-.226a.157.157 0 0 0-.134-.18h-.035c-.27.033-.53.13-.755.285a3.01 3.01 0 0 1-.326.197.39.39 0 0 1-.407-.034.169.169 0 0 1-.07-.233c.13-.183.304-.33.506-.424.283-.16.6-.245.924-.25zM44.066 80.159c.004.185-.03.369-.098.54a.22.22 0 0 1-.285.11c-.072-.03-.14-.07-.204-.116a5.736 5.736 0 0 1-.848-.83l-.03-.036-.546-.947a.145.145 0 0 1 0-.093.134.134 0 0 1 .047-.081.11.11 0 0 1 .087 0 .337.337 0 0 1 .122.07c.146.123.269.273.36.441.111.21.266.395.454.54.04.021.088.021.128 0a.157.157 0 0 0 .046-.127 2.098 2.098 0 0 0-.32-.982 6.451 6.451 0 0 1-.494-.866 1.308 1.308 0 0 0-.284-.384.75.75 0 0 1-.14-.192.145.145 0 0 1 0-.128.21.21 0 0 1 .122-.052.134.134 0 0 1 .087 0c.198.138.36.319.477.529l.285.552c.063.149.16.28.285.384.115.087.199.21.238.348.08.258.193.504.337.733.11.176.17.379.174.587zM102.076 72.318c.33-.033.66.06.924.262.143.103.257.24.33.4.072.195.219.353.408.437.168.09.324.202.465.331a.883.883 0 0 1 .18.215c.083.121.1.276.046.413a1.744 1.744 0 0 1-.145.296.372.372 0 0 0-.052.32.14.14 0 0 1-.076.157.244.244 0 0 1-.285 0 .581.581 0 0 1-.215-.756c.031-.055.066-.107.105-.157.163-.22.099-.325-.145-.43-.18-.09-.38-.14-.581-.145a.634.634 0 0 1-.186 0 .477.477 0 0 1-.35-.355.244.244 0 0 1 .082-.215c.05-.05.05-.13 0-.18h-.035a.46.46 0 0 0-.284-.035c-.196.02-.39.048-.582.087a.285.285 0 0 1-.348-.174.192.192 0 0 1 .064-.25c.193-.15.434-.229.68-.22zM50.303 83.495c-.192 0-.338-.041-.477-.064-.424-.082-.849-.157-1.261-.244a1.866 1.866 0 0 1-.448-.169c-.343-.174-.668-.372-1.005-.54a2.267 2.267 0 0 1-.849-.872 1.244 1.244 0 0 1-.099-.215c0-.058 0-.175.041-.169.045.008.086.03.116.064.177.268.42.486.704.634.385.224.787.419 1.203.58.145.072.3.123.459.152.269.029.535.08.796.151.14.03.282.051.424.064l.71.11a.46.46 0 0 1 .168.088c.023.02.036.05.035.081a.355.355 0 0 1-.233.325c-.094.016-.189.023-.284.024zM96.624 74.335c.176.003.35.04.511.11.09.038.194.017.262-.052a1 1 0 0 1 .517-.314 3.673 3.673 0 0 1 1 0 .145.145 0 0 1 .093.18.581.581 0 0 1-.145.18.616.616 0 0 1-.36.105.581.581 0 0 0-.617.43.65.65 0 0 1-.07.122.145.145 0 0 1-.168.047l-.331-.186a.895.895 0 0 0-.913 0 .616.616 0 0 0-.25.285c-.075.14-.15.284-.232.412a.163.163 0 0 1-.227.041.994.994 0 0 1-.308-.47.314.314 0 0 1 .151-.402l.227-.174a1.57 1.57 0 0 1 .86-.314zM48.21 85.436c-.443.061-.895.02-1.32-.122-.494-.12-.997-.208-1.504-.262a.883.883 0 0 1-.552-.25.11.11 0 0 1 0-.087.122.122 0 0 1 .07-.046.07.07 0 0 1 .046 0c.214.064.439.087.662.07.477-.01.952.034 1.418.133.252.043.508.053.762.03l.808-.059a3.61 3.61 0 0 0 .523-.046c.237-.02.476-.004.709.046.112.031.184.14.168.256a.22.22 0 0 1-.203.226 7.23 7.23 0 0 1-1.087.105c-.168.006-.308.006-.5.006zM105.603 70.737a.256.256 0 0 0-.33.134c-.065.105-.14.21-.21.32a.529.529 0 0 1-.215.186.203.203 0 0 1-.262 0 1.837 1.837 0 0 1-.395-.581.238.238 0 0 0-.285-.14c-.189.011-.372.074-.529.18-.063.046-.129.09-.197.128a.116.116 0 0 1-.145-.064c0-.511.197-.709.58-.796.203-.035.41.009.582.122.092.061.18.13.261.203a.163.163 0 0 0 .227 0c.407-.313.407-.313.895-.15l.134.046a.25.25 0 0 1 .099.343l-.041.058a.192.192 0 0 1-.081.046l-.088-.035zM73.928 97.06c.54.019 1.08-.004 1.616-.07a4.47 4.47 0 0 1 .668 0c.03.009.053.03.064.058a.105.105 0 0 1 0 .087 2.528 2.528 0 0 1-.255.285.349.349 0 0 1-.175.064c-.235.04-.471.067-.709.081h-1.621a1.83 1.83 0 0 1-.948-.284.081.081 0 0 1-.035-.035.18.18 0 0 1 0-.087.099.099 0 0 1 .047-.07c.109-.024.22-.037.331-.04.32-.03.68-.024 1.017.01zM100.954 74.922c-.011.254.05.505.174.727a.18.18 0 0 0 .25.058.581.581 0 0 0 .11-.088.238.238 0 0 1 .204-.098.39.39 0 0 1 .285.162c.02.025.035.052.046.082.105.267.16.55.163.837a.174.174 0 0 1 0 .087.14.14 0 0 1-.076.052.134.134 0 0 1-.093 0 3.37 3.37 0 0 0-.75-.302.581.581 0 0 1-.342-.32c-.109-.228-.21-.46-.302-.697a.982.982 0 0 1 0-.581.285.285 0 0 1 .226-.221.14.14 0 0 1 .192.14c-.026.055-.055.11-.087.162zM84.75 96.06a.163.163 0 0 1-.163.157h-.046l-.215-.105c-.238-.116-.244-.11-.413.123-.093.133-.145.15-.285.087h-.04a.232.232 0 0 0-.268-.035l-.22.093a.465.465 0 0 1-.518-.14.244.244 0 0 1-.046-.081.145.145 0 0 1 0-.174.912.912 0 0 1 .947-.285c.105.037.22.037.326 0a.692.692 0 0 1 .627.116c.081.047.16.1.233.157a.232.232 0 0 1 .081.087zM84.855 97.972l-.303-.128c-.087-.04-.116-.04-.15.047a.343.343 0 0 1-.268.238.43.43 0 0 1-.355-.081l-.22-.18a.145.145 0 0 1 0-.25c.229-.065.445-.17.639-.308a.22.22 0 0 1 .18 0 .942.942 0 0 0 .738.035.337.337 0 0 1 .32.046.14.14 0 0 1 .04.169.093.093 0 0 1-.11.058.11.11 0 0 0-.128 0l-.261.285a.488.488 0 0 1-.122.07zM118.256 77.183a3.063 3.063 0 0 1-.89-.204 1.209 1.209 0 0 1-.743-.616.087.087 0 0 1 0-.08.099.099 0 0 1 .087 0c.419.197.884.243 1.302.423.222.084.41.24.535.442.01.028.01.06 0 .087a.046.046 0 0 1-.041 0h-.093l-.157-.052zM49.843 93.218a.203.203 0 0 1-.226-.256c.042-.119.098-.232.168-.337.142-.192.322-.352.53-.47a.174.174 0 0 1 .243.034c.04.05.074.102.105.157a.395.395 0 0 1-.134.54c-.178.13-.374.23-.581.303l-.105.03zM43.165 95.944c.006-.334.134-.655.36-.9a.418.418 0 0 1 .117-.076.198.198 0 0 1 .215.04c.106.12.159.277.145.436-.02.255-.134.493-.32.668a.436.436 0 0 1-.116.076.285.285 0 0 1-.4-.25v.006zM55.923 91.73a.703.703 0 0 1-.053.198c-.116.186-.244.36-.377.535a.186.186 0 0 1-.262 0 1.395 1.395 0 0 1-.157-.338 2.057 2.057 0 0 1-.046-.371.215.215 0 0 1 .162-.204.883.883 0 0 1 .64.064.529.529 0 0 1 .093.116zM46.182 96.31c0-.122.035-.25.058-.372a.372.372 0 0 1 .07-.116.11.11 0 0 1 .15 0c.041.09.067.186.076.285a.936.936 0 0 0 .262.685.21.21 0 0 1-.04.297.285.285 0 0 1-.489-.122 2.371 2.371 0 0 1-.087-.657zM43.16 101.768a2.214 2.214 0 0 1 0-.285.14.14 0 0 1 .081-.1.14.14 0 0 1 .116.047c.067.088.124.184.169.285.049.133.13.251.238.343.09.073.115.2.058.302a1.035 1.035 0 0 1-.145.239.203.203 0 0 1-.285 0l-.04-.047c-.131-.179-.2-.395-.198-.616v-.192l.006.024zM41.37 98.867l.08.035c.107.1.154.247.123.39a.256.256 0 0 1-.058.127l-.581.582a.105.105 0 0 1-.088 0 .11.11 0 0 1-.07-.058.285.285 0 0 1 0-.14 4.8 4.8 0 0 1 .123-.506.785.785 0 0 1 .412-.435l.059.005zM46.7 92.991a.46.46 0 0 1-.193.378.256.256 0 0 1-.36-.052.465.465 0 0 1 .174-.72.157.157 0 0 1 .134 0 .581.581 0 0 1 .244.394zM46.833 99.245h.064c.29.175.466.492.459.831a.134.134 0 0 1-.122.128.581.581 0 0 1-.18-.035.087.087 0 0 1-.03-.035v-.04a19.513 19.513 0 0 1-.232-.773.21.21 0 0 1 .04-.076zM87.22 97.17a.825.825 0 0 1-.04.134.18.18 0 0 1-.14.11.169.169 0 0 1-.163-.064.93.93 0 0 1-.162-.482.169.169 0 0 1 .168-.163h.064c.122.04.213.142.238.268l.035.197zM50.855 95.177a.47.47 0 0 1-.14-.07.628.628 0 0 1-.15-.43.14.14 0 0 1 .075-.105.343.343 0 0 1 .372.117.349.349 0 0 1 0 .395.477.477 0 0 1-.157.093zM69.052 103.703a.912.912 0 0 1-.622.848.285.285 0 0 1-.14 0l-.5-.133a.099.099 0 0 1-.063-.064.25.25 0 0 1 .035-.122.192.192 0 0 1 .07-.058c.335-.209.648-.45.935-.721a.151.151 0 0 1 .256.093v.046s.023.082.029.11zM55.9 98.466a.517.517 0 0 1-.303.582.343.343 0 0 1-.325 0c-.122-.07-.238-.152-.36-.233a.145.145 0 0 1 0-.174c.159-.252.387-.454.656-.582a.163.163 0 0 1 .134 0 .355.355 0 0 1 .174.216c.011.063.019.127.023.191zM64.35 103.15a.436.436 0 0 1-.14-.034.151.151 0 0 1-.07-.105.581.581 0 0 1 .07-.22 4.65 4.65 0 0 1 .61-.774.145.145 0 0 1 .21 0c.066.107.124.218.174.332a.325.325 0 0 1-.04.32c-.14.21-.344.369-.581.453a.883.883 0 0 1-.233.029zM50.419 104.11c.017-.375.17-.73.43-1a.169.169 0 0 1 .238 0 .581.581 0 0 1 .07.581c-.11.227-.227.448-.343.674a.39.39 0 0 1-.058.076.145.145 0 0 1-.169.052.25.25 0 0 1-.128-.122 1.796 1.796 0 0 1-.04-.261zM55.307 101.71a.349.349 0 0 1 .104.034c.05.038.092.083.128.134.164.284.359.55.581.79a.349.349 0 0 1 0 .436.18.18 0 0 1-.209.07.535.535 0 0 1-.197-.122 2.778 2.778 0 0 1-.314-.47 2.458 2.458 0 0 1-.198-.774.227.227 0 0 1 .105-.099zM59.282 101.5c.01-.27.063-.537.157-.79a.18.18 0 0 1 .14-.163c.08.015.149.066.185.14a.814.814 0 0 1 .122.453 1.697 1.697 0 0 1-.215.773.203.203 0 0 1-.203.093.215.215 0 0 1-.151-.169 3.278 3.278 0 0 1-.035-.337zM63.2 97.24c0 .134 0 .244-.041.349a.262.262 0 0 1-.227.209.285.285 0 0 1-.174-.047.761.761 0 0 1-.146-.18c-.203-.302-.197-.377.047-.65.065-.07.135-.137.209-.198a.174.174 0 0 1 .285.11c.017.145.029.29.046.407zM67.384 98.513v-.378a.093.093 0 0 1 .087-.099.22.22 0 0 1 .128.04c.049.04.088.09.116.146.11.213.156.453.134.692a.75.75 0 0 1-.052.18.18.18 0 0 1-.245.076.285.285 0 0 1-.15-.227v-.43h-.018zM55.824 106.359a.308.308 0 0 1 0 .105.256.256 0 0 1-.093.093.128.128 0 0 1-.169-.053.744.744 0 0 1-.104-.261c-.035-.25-.053-.506-.076-.756a.116.116 0 0 1 .035-.087.099.099 0 0 1 .081 0 .622.622 0 0 1 .192.203c.087.243.132.498.134.756zM94.735 71.563c.27.006.538.037.802.093.03.006.062.006.093 0 .238-.027.467-.102.674-.221.227-.145.477-.256.715-.378A.68.68 0 0 1 97.2 71a.14.14 0 0 1 .082.035.087.087 0 0 1 0 .122l-.21.11c-.075.03-.149.062-.22.1a.285.285 0 0 0-.175.348v.046a.244.244 0 0 1-.099.25c-.062.05-.128.094-.197.134a2.58 2.58 0 0 0-.581.517.145.145 0 0 0 0 .134c.04.087.093.167.157.238.232.238.482.268.685 0a2.04 2.04 0 0 1 .582-.552c.159-.085.259-.25.261-.43a.285.285 0 0 1 .18-.256c.122-.058.239-.126.349-.203a.285.285 0 0 0 .116-.285 2.54 2.54 0 0 1-.058-.372.244.244 0 0 1 .169-.261h.035c.191-.436.482-.541.61-.803.128-.261-.285-.348.232-.709v-.058c.035-.053.074-.103.117-.15.261-.28.563-.519.895-.71a.65.65 0 0 1 .267-.093c.198 0 .198-.029.22-.227v-.098a.18.18 0 0 1 .17-.198c.285-.034.563-.119.819-.25a.285.285 0 0 1 .349.064.145.145 0 0 0 .209-.029.256.256 0 0 0 0-.343.384.384 0 0 0-.244-.128 2.057 2.057 0 0 0-.808.047l-.733.22a.477.477 0 0 0-.302.216.668.668 0 0 1-.325.267 5.69 5.69 0 0 0-.982.668 1.07 1.07 0 0 0-.39.582 1.523 1.523 0 0 1-.134.447 2.685 2.685 0 0 1-.366.302c-.14.133-.309.23-.494.285-.228.067-.452.15-.668.25-.668.337-1.325.697-1.988 1.052a.686.686 0 0 0-.14.122.122.122 0 0 0 .036.169l.11-.006z"/>
        <path fill="#1A1A1A" d="M119.866 77.747a1.511 1.511 0 0 1-.052-.471 1.633 1.633 0 0 0-.1-.581 8.38 8.38 0 0 1-.476-1.203 22.225 22.225 0 0 0-.488-2.18 12.77 12.77 0 0 1-.163-.744c-.075-.372-.14-.75-.209-1.133-.087-.517-.163-1.035-.256-1.552-.122-.686-.284-1.372-.348-2.069-.03-.32-.088-.628-.14-.942-.075-.47-.15-.941-.244-1.412-.052-.285-.668-2.981-.773-3.243-.105-.261-.227-1.133-.331-1.412a.68.68 0 0 0-.134-.192.11.11 0 0 0-.145.04c-.017.142-.017.284 0 .425.087.47.703 3.94.755 4.411.082.645.175 1.29.262 1.936.07.47.134.941.21 1.412.11.657.237 1.313.336 1.982.122.883.308 1.743.506 2.621.093.401.238.697.308 1.104.04.233.21.71.25.948.096.394.216.782.36 1.162.031.123.045.25.04.378a.25.25 0 0 0 .164.261h.04a.285.285 0 0 1 0 .489l-.366.226c-.136.08-.268.167-.395.262-.211.168-.44.314-.68.436-.171.084-.33.191-.47.32a3.638 3.638 0 0 1-.896.627c-.14.07-.285.163-.413.238-.069.04-.14.075-.215.105a.122.122 0 0 1-.168-.11c.029-.582.116-1.105.192-1.657.035-.25.07-.506.116-.75a5.08 5.08 0 0 0 .122-.802c.01-.109.025-.218.046-.325.087-.452.13-.912.128-1.372a.64.64 0 0 1 .221-.581 1.32 1.32 0 0 0 .36-1.168 1.941 1.941 0 0 0-.366-.802 5.44 5.44 0 0 0-1.546-1.47c-.07-.041-.122-.1-.191-.14a1.162 1.162 0 0 0-.163-.099c-.215-.105-.436-.192-.651-.302a9.584 9.584 0 0 0-2.575-.86 3.755 3.755 0 0 1-.645-.175c-.273-.099-.559-.16-.848-.18h-.285a.285.285 0 0 1-.262-.174 3.29 3.29 0 0 0-.715-.948 2.098 2.098 0 0 0-.639-.494.581.581 0 0 0-.46-.075.5.5 0 0 1-.447-.099 5.178 5.178 0 0 0-.622-.349 1.703 1.703 0 0 0-1.476 0l-.215.11a.378.378 0 0 1-.32.03 1.424 1.424 0 0 0-.58-.087 3.26 3.26 0 0 0-.971.244l-.128.064a.395.395 0 0 0-.14.383.32.32 0 0 0 .285.233c.239.026.48.016.715-.03l.581-.116a.692.692 0 0 1 .71.157c.023.022.05.04.08.053.074.037.16.037.233 0 .087-.041.163-.1.25-.14.153-.084.312-.156.477-.215a.93.93 0 0 1 1.075.296l.122.146c.148.201.419.27.645.163.093-.035.18-.064.285-.093a.285.285 0 0 1 .267.058c.154.115.279.264.366.436v.034c.248.13.451.333.582.582.16.364.504.615.9.656h.332c.127.002.254.018.377.047.18.03.32.173.343.354.037.236.123.462.25.663a.93.93 0 0 0 .686.47c.11.018.218.041.326.07.079.017.143.075.168.152.07.245.18.477.326.685.059.083.086.184.075.285.007.095.007.19 0 .285v.395c.002.195.084.38.227.512.049.045.125.045.174 0a.506.506 0 0 0 .145-.18c.096-.304.151-.618.163-.936a.581.581 0 0 0-.14-.395l-.098-.105a.703.703 0 0 1-.21-.419 1.534 1.534 0 0 0 0-.191.477.477 0 0 0-.18-.326 2.412 2.412 0 0 0-.958-.581.355.355 0 0 1-.123-.076.337.337 0 0 1-.127-.244c-.001-.064.046-.119.11-.128.08-.008.16-.008.238 0 .291.069.575.164.849.285.546.258 1.107.483 1.68.674.06.021.119.048.174.082.453.233.85.562 1.162.965.053.075.128.14.192.215.216.26.307.602.25.935a.686.686 0 0 1-.285.483c-.13.088-.257.183-.378.285a6.463 6.463 0 0 1-1.342.906c-.325.169-.663.31-1.011.424a68.28 68.28 0 0 0-1.512.582 6.817 6.817 0 0 1-1.633.523l-1.65.261c-.44.068-.886.1-1.331.1a4.55 4.55 0 0 0-.622.028 7.108 7.108 0 0 1-.953.052c-.622 0-1.244 0-1.866.041-.511.035-1.017.04-1.528.052-.75 0-1.494-.104-2.244-.116h-.046l-.669-.064-1.476-.099-.238-.029c-.438-.083-.88-.137-1.325-.162a2.685 2.685 0 0 1-.965-.244 6.562 6.562 0 0 0-1.564-.582h-.046a.256.256 0 0 1-.221-.215.267.267 0 0 0-.267-.162c-.337-.035-.448.122-.308.424a.953.953 0 0 0 .691.581c.186.035.366.099.581.14.235.05.463.126.68.226.285.128.547.256.832.372.16.069.328.12.5.151.267.047.534.064.807.093l.616.07c.112.004.223.017.332.04.313.053.633 0 .953.036.346.058.7.058 1.046 0a.47.47 0 0 1 .14 0c.366 0 .732.029 1.092.075.73.067 1.464.086 2.197.058.227 0 .448 0 .668-.035a16.093 16.093 0 0 1 2.72 0c.064.01.129.01.192 0a4.987 4.987 0 0 1 1.163-.034 7.01 7.01 0 0 0 1.888-.262c.354-.143.72-.253 1.093-.331.264-.067.513-.179.738-.332.148-.093.303-.173.465-.238.265-.11.52-.238.767-.383.177-.12.374-.204.582-.25a4.865 4.865 0 0 0 1.447-.61l.215-.163.128-.064a.099.099 0 0 1 .127 0c.01.028.01.059 0 .087l-.325 1.587c-.087.406-.18.807-.256 1.208-.052.268-.087.535-.122.803-.052.412-.087.819-.14 1.232-.052.412-.08.976-.156 1.47a11.432 11.432 0 0 0-.215 2.08.75.75 0 0 1 0 .14c-.093.581-.157 1.134-.285 1.697-.128.564-.343 1.134-.418 1.697a.773.773 0 0 1-.1.268c-.116.209-.238.412-.365.616a.39.39 0 0 1-.221.174 5.23 5.23 0 0 0-1.017.523c-.15.09-.308.166-.471.227-.495.18-1.01.3-1.534.354a.732.732 0 0 0-.186.041.21.21 0 0 0-.14.18.413.413 0 0 0 .285.442c.169.047.348.047.517 0 .285-.076.581-.169.872-.256a.43.43 0 0 0 .174-.07c.229-.171.474-.32.733-.441.185-.124.392-.21.61-.256.125-.027.247-.063.366-.11a.622.622 0 0 0 .424-.425.331.331 0 0 1 .239-.261.9.9 0 0 0 .58-.738c.044-.234.102-.465.175-.692.04-.134.087-.285.116-.412.221-.93.358-1.877.407-2.83a2.732 2.732 0 0 1 0-.286c.058-.41.116-.82.175-1.226 0-.174.07-.343.08-.517 0-.53.082-.477.466-.674.084-.046.171-.084.261-.117.36-.134.692-.33.983-.58.203-.158.412-.286.621-.437.21-.15.477-.32.698-.5.384-.308.715-.674 1.104-.976a.988.988 0 0 0 .157-.174.378.378 0 0 0 .035-.25z"/>
        <path fill="#1A1A1A" d="M116.478 62.537a1.645 1.645 0 0 1-.041-.425c.02-.252.007-.506-.04-.755-.053-.413-.117-.82-.158-1.226-.081-.727-.14-.616-.191-1.343-.041-.506 0-.087-.064-.581v-.849a17.773 17.773 0 0 0-.285-1.883c0-.174-.047-.343-.064-.523a4.516 4.516 0 0 0-.198-1.133 2.842 2.842 0 0 1-.07-.471.715.715 0 0 1 .105-.453 2.36 2.36 0 0 0-.046-.366 1.098 1.098 0 0 0 0-.524 10.462 10.462 0 0 1-.239-1.888.849.849 0 0 0-.226-.582 1.796 1.796 0 0 1-.332-.523l-.116-.261a.849.849 0 0 0-.302-.36 2.034 2.034 0 0 0-.918-.384c-.337-.04-.657-.11-.988-.175-.11-.02-.22-.029-.332-.029h-1.813c-.159.01-.318.01-.477 0a14.861 14.861 0 0 0-1.801-.174.97.97 0 0 1-.239 0c-.54-.046-1.075-.11-1.615-.145-.413 0-.826-.087-1.232-.146a12.966 12.966 0 0 0-1.523-.139 18.325 18.325 0 0 1-1.83-.116 4.22 4.22 0 0 0-.524 0h-.767a4.992 4.992 0 0 1-.948-.076c-.49-.068-.992 0-1.447.198-.18.07-.343.18-.476.32l-.303.307a.907.907 0 0 0-.226.413 37.847 37.847 0 0 0-.413 1.744c0 .122-.046.25-.064.377-.017.128 0 .285-.046.43-.117.721-.235 1.442-.355 2.163 0 .157-.058.313-.087.465a.186.186 0 0 0 .157.203.285.285 0 0 0 .36-.174.82.82 0 0 0 0-.11c.087-.663.262-1.308.332-1.983.034-.33.11-.656.174-.982a.918.918 0 0 1 .093-.267c.094-.183.161-.379.198-.581l.191-.884a.756.756 0 0 1 .151-.39 1.988 1.988 0 0 1 1.785-.685 4.11 4.11 0 0 0 1.278.122h.715c.32 0 .634 0 .953.035.32.035.54.046.808.058.268.012.581 0 .849 0 .237.007.474.026.709.058.65.07 1.29.21 1.941.256.651.046 1.418.168 2.139.174.127.009.253.024.378.047a8.422 8.422 0 0 0 1.551.14 6.16 6.16 0 0 1 1.256.051c.125.014.252.014.378 0 .445.017.887.08 1.319.192a.39.39 0 0 1 .285.221c.112.246.252.478.418.692a.54.54 0 0 1 .122.354c-.001.365.034.73.105 1.087a.756.756 0 0 1 0 .192v.151c.096.178.14.38.128.581a.93.93 0 0 1 .035.14.081.081 0 0 1-.041.081c0 .43.215 1.58.145 1.918.04.198.093.39.128.581a1.43 1.43 0 0 1 0 .192c.022.263.06.525.11.785.056.408.086.82.088 1.232 0 .128.145.581.157.697.052.506.04.087.087.581a8.8 8.8 0 0 0 .18 1.064c.087.546.157 1.098.238 1.65l.233 1.605.796 2.993c0-.169.116.157.168.134a.285.285 0 0 1 .122-.07c.343-.012-.5-2.9-.528-3.028z"/>
    </g>
</svg>
