<svg xmlns="http://www.w3.org/2000/svg" width="136" height="128" viewBox="0 0 136 128">
    <g fill="none" fill-rule="evenodd">
        <path fill="#FFF" d="M0 0h136v127.863H0z" opacity=".01"/>
        <path fill="#E0D5C0" d="M26.474 43.119c3.94.982 6.892.494 2.458 3.197-4.69 2.87-5.684 6.154-5.684 6.154l.244 24.608s-.581 3.232 5.66 5.411c6.243 2.18 28.55 8.37 28.55 8.37 7.63.982 9.589-.739 16.238-6.15 0 0 19.69-12.548 22.887-14.53 3.197-1.981 3.69-2.214 4.185-5.904.494-3.691.023-10.805 5.928-11.799 5.905-.994 24.852-.738 22.667 8.863-.779 3.33-8.137 8.137-14.774 12.549-6.637 4.41-3.487 6.09.982 10.09 9.119 8.136-17.436 8.659-26.072 12.547-12.06 5.411-.105 9.851-10.828 13.042-10.247 3.051-24.248 1.848-33.71.244-36.423-6.149-29.292-11.566-21.16-19.44 3.184-3.087-11.567-4.923-16.978-10.828-5.41-5.905 11.566-10.334 11.072-14.53-.238-2.029-7.387-9.852-4.65-14.275 2.82-4.69 10.921-8.136 12.985-7.619z"/>
        <path fill="#91C020" d="M47.251 23.283c-.58 1.162-.779.383-.645 1.674.134 1.29-.192.9.262 1.993.453 1.093.261 1.93 1.296 2.25 1.034.319 2.185.644 3.342-.192a15.89 15.89 0 0 0 2.638-2.959s-.837-2.766-.965-3.54c-.127-.772-.453-.708-.9-1.092-.448-.383-2.377.32-2.377.32s-2.064.39-2.65 1.546zM65.013 23.858c-1.035-.261-1.232-.418-1.814.297-.58.714-.476.418-1.296 1.01-.82.594-.58.611-1.063.925l-.494.308c-.367.17-.705.398-1 .674-.418.419 0 .779-.418.837a2.127 2.127 0 0 0-.78.296l-.714.477.65.959 1.669-.238 1.075.232 2.418-.372 1.988-.686c.615-.302 1.213-.64 1.79-1.01.484-.453.924-.952 1.313-1.489l.657-.779a2.174 2.174 0 0 0-1.575-.668 2.685 2.685 0 0 1-1.372-.296l-1.034-.477z"/>
        <path fill="#F49849" d="M62.34 27.183c-.277-.005-.544.1-.745.29l.058.86c.293-.215.624-.371.977-.459.627-.168.918.517 1.034-.343.117-.86-1.325-.348-1.325-.348zM65.786 26.956c-.744-.233-.582-.517-.86 0-.28.517-.233.692-.059.86.175.169-.4-.116.169.169.57.284.581.343.86.168.279-.174.343-.691.343-.691l-.453-.506zM66.646 24.718c-.744.117-.744.058-.86.343-.117.285.116.343.4.517.26.222.634.245.919.059.123-.064.238-.142.343-.233.29-.232.4-.4 0-.517a6.87 6.87 0 0 0-.802-.169zM64.64 23.451a1.07 1.07 0 0 0-.4.692c.16.182.39.288.633.29.401 0 .581 0 .692-.168a.349.349 0 0 0 0-.46 1.087 1.087 0 0 0-.46-.29l-.691-.058M60.619 26.84c-.517.116-.581.116-.634.633-.052.517-.168.802.29.517.46-.284.518-.58.693-.691.174-.11-.35-.46-.35-.46z"/>
        <path fill="#C6C6C6" d="M57.289 26.607c.488 0-.059-.581-.059-.581s1.163-.058 1.378-.46a2.69 2.69 0 0 0 .232-1.092s-.459-1.162-.168-1.377c.29-.215.29-.518.633-.169.326.218.52.585.518.977.116.691.168.744.232 1.26.064.518.116.46-.343.92-.349.319-.74.588-1.162.801 0 0-1.43-.279-1.261-.279z"/>
        <path fill="#FFD571" d="M52.064 35.68c.29-.29.29-.46.802-.46a10.41 10.41 0 0 0 1.26-.116s.634.117 1.378-1.162c.744-1.279.518-1.32 1.093-1.436.575-.116 3.446-.168 3.446-.168s5.743-1.378 6.975-1.837c1.232-.459 2.87-1.836 1.61.744-.36.727-.634 1.558.29 1.436a2.528 2.528 0 0 0 1.494-.802l1.558-1.837 1.203-1.494.517-.343 1.32.343s.86.401.801 1.895c-.058 1.494 1.035 1.436-.058 2.412-1.092.976-.802 1.093-3.388 2.185-2.587 1.093-16.884 5.231-17.86 4.993a2.406 2.406 0 0 1-1.837-1.837c-.145-.79-.604-2.516-.604-2.516z"/>
        <path fill="#C6C6C6" d="M73.138 25.462c.581-.168 1.32-.168 1.203.343-.116.512.744 0-.692 1.163-1.435 1.162-1.557 1.203-2.127 2.324-.57 1.122-1.953 3.11-2.325 2.988-.372-.122-.633-.634.233-1.494a21.673 21.673 0 0 0 2.906-3.214c.622-1.023.558-2.034.802-2.11z"/>
        <path fill="#F49849" d="M78.246 48.024c-.743-.116-.86-.168-1.26.169-.258.228-.472.5-.634.802 0 0-.634.86.232.918.866.058.919.29 1.378-.116.459-.407.802-.744.802-.744l-.518-1.029z"/>
        <path fill="#91C020" d="M73.65 50.727c-.745-.401-1.163-.29-1.32-.116-.157.174-.401.29-.29.744.11.453 0 1.162.633.918a4.37 4.37 0 0 0 1.092-.46c.2-.186.375-.4.518-.633l-.634-.453zM37.197 51.238c.29-.633.633-1.034 1.203-1.034a2.43 2.43 0 0 1 1.557.232c.518.343 1.035.233 1.093.977.058.744.976 1.319-.29 1.26a10.16 10.16 0 0 1-2.814-.365c-.575-.21-.75-1.07-.75-1.07zM39.434 47.269c.31-.495.852-.798 1.436-.802.802-.058 1.162-.233 1.435.4.198.448.37.906.518 1.372 0 0-1.163-.058-1.953-.168a2.784 2.784 0 0 1-1.436-.802zM41.73 44.415c.232-.169.29-.581 1.034-.581s.802-.233 1.436.116c.634.349 1.203.634.86 1.093-.343.459-.517.4-1.557.232a3.848 3.848 0 0 1-1.773-.86z"/>
        <path fill="#91C020" d="M98.28 41.997c-.058-2.528-1.034-2.696-1.034-2.696s-1.163-.803-1.895-.582c-.732.221.169.977.744 1.663.575.685.918.58.517 1.034-.4.453-31.216 17.692-33.843 19.302-2.627 1.61-2.325 1.092-3.731 1.034-1.407-.058-16.564-4.132-19.26-4.795-2.698-.662-12.003-4.068-12.404-5.167-.4-1.098 1.436-1.092 2.639-1.894 1.203-.802 2.813-1.744 4.068-2.697 1.256-.953.802-1.377.343-1.895-.459-.517-7.98 5.341-8.38 5.812l.29 7.236s-.337 19.528.401 20.51c.738.983 28.479 7.864 29.682 8.44 1.203.575 4.202 1.621 4.202 1.621s35.714-21.475 37.377-22.736c1.662-1.262.342-21.662.284-24.19zM54.592 74.143a14.065 14.065 0 0 1-3.33 1.61 4.94 4.94 0 0 1-4.54-.779c-1.493-.976-4.306-1.377-5.812-.633-1.505.744-.517.4-1.557-.744-1.04-1.145-4.127-1.709-5.4-1.953-1.272-.244-1.203 0-1.952-1.836-.518-1.28.058-1.163-.46-2.593-.517-1.43-1.778-1.319-1.778-1.836 0-.517.29 0 1.162-.169.872-.168 1.262-1.034 2.47-2.127 1.21-1.093 1.558-.744 2.814-.633 1.255.11 2.185.58 3.847.4l1.558-.58c-.005.34.075.675.232.976.29.744 2.47.918 2.871.976.401.058 2.011.517 3.33.86 1.32.343 2.325 1.61 2.988 2.186.662.575 1.866 1.395 1.976 2.824.11 1.43 2.203 3.139 2.203 3.139l-.622.912z"/>
        <path fill="#C6C6C6" d="M44.711 69.674c-1.836-.581-8.264-3.11-9.014-2.871-.75.238-1.494.29-1.377.918.116.628-.117 1.261 1.836 1.662s4.766.46 5.859.744c1.092.285 2.075.116 2.528.918.453.803.058 1.663 1.034 2.011.977.35 4.017 1.262 4.365.977.349-.285.343-.581-.116-.634-.46-.052-2.412-.232-2.325-.633.087-.401-.116-.86.581-.802.698.058 2.872.691 3.046.581.174-.11-.634-.744-.634-.744s-1.894-.517-2.185-.86a.546.546 0 0 1 0-.692 8.555 8.555 0 0 0 1.779.343c.39 0 .78.04 1.162.116 0 0 .116-.459-.86-.744-.977-.284-1.895-.633-1.895-.633s.233-.169-.976-.058c-.638.054-1.27.15-1.895.29l-.913.11z"/>
        <path fill="#E0D5C0" d="M70.801 16.436c-1.557.523-13.263 3.633-13.263 3.633s-3.028.436-2.754 1.342c.273.907 1.005 1 2.208.733 1.203-.268 2.755-1.343 3.278-.215.523 1.127-.39 3.109 1.162 2.138 1.552-.97 2.011-1.894 3.598-1.743 1.587.15 2.22 1.075 3.685 1.261 1.464.186 1.743 1.436 2.813.581 1.07-.854 1.889-1.778 1.743-3.144-.145-1.366-1.057-2.488-.947-3.18.186-1.226-1.523-1.406-1.523-1.406z"/>
        <path fill="#EF7E70" d="M52.186 71.115a3.696 3.696 0 0 0-1.04-2.237c-.68-.628-.745-1.093-1.436-1.494l-1.779-1.035a18.186 18.186 0 0 0-1.953-.744 11.77 11.77 0 0 1-2.237-.58c-.581-.286-1.32-.634-1.494-.745a5.23 5.23 0 0 1-.581-.58l-.46.232c-1.162.343-3.73-.86-5.23-.692-1.5.169-1.674 0-2.639 1.162-1.4 1.68-2.324.913-1.214 2.517.755 1.104.07 1.296.941 2.749.616 1.035.674.825 2.11 1.343.938.33 1.898.597 2.871.802 1.087.284 1.378.15 1.744 1.01a.75.75 0 0 0 .779.42 5.033 5.033 0 0 1 2.092.07c1.646.381 3.254.916 4.8 1.597.977.518 3.11.291 3.11.291s2.993-1.354 3.11-1.744c.116-.389-1.372-1.604-1.494-2.342zm-2.157 3.487c-.58.28-2.481-.534-2.481-.534a8.962 8.962 0 0 1-2.255-1.163c-.797-.674-.43-.86-.86-1.534s-1.297-.366-2.029-.674c-.732-.308-2.708-.122-4.37-.366-1.663-.245-2.157-.122-3.447-1.296s-.674-1.297-.064-2.279c.61-.982 1.534-.308 2.906-.064s4.127 1.843 6.649 2.639c2.522.796 2.156-.581 3.65-.581a4.958 4.958 0 0 1 3.79 1.366s.336.778 0 .982c-.338.203-1.39-.116-1.605-.14-.424-.046.192.448.581.581.39.134 1.105.617 1.163.617-.244-.041.104.668-.942.534-1.046-.133-2.115-.54-2.115-.261 0 .383 1.784.697 2.04.889a.953.953 0 0 1 .279.65c.064.076-.518.49-.843.646l-.047-.012z"/>
        <path fill="#1A1A1A" d="M60.654 86.93v-2.924c-.015-.41.009-.82.07-1.226.021-.135.035-.27.04-.407 0-.296 0-.581.04-.89a5.26 5.26 0 0 0 0-.627c-.028-.384-.028-.779-.063-1.162-.04-.483 0-.965-.064-1.448-.064-.482-.064-.865-.099-1.296v-.145c0-.517-.035-1.034-.07-1.557 0-.407-.034-.814-.052-1.227-.017-.412-.04-.813-.058-1.226v-.407c0-.657.046-1.313.058-1.97.012-.657 0-1.215-.029-1.814v-.145c0-.843 0-1.685.093-2.522.01-.123.025-.245.046-.366.042-.22.052-.446.03-.669a7.712 7.712 0 0 1 0-1.116.174.174 0 0 1 .029-.104.122.122 0 0 1 .093-.041.18.18 0 0 1 .157.14 2.5 2.5 0 0 1 .075.435c0 .407.03.814.035 1.227a6.66 6.66 0 0 1-.076.889 7.166 7.166 0 0 0-.052 1.558 1.93 1.93 0 0 1 0 .261c-.013.507.01 1.014.07 1.517.006.112.006.225 0 .337 0 .372 0 .744-.03 1.116a7.596 7.596 0 0 0 0 .814V73.196c.004.062.004.124 0 .186 0 .372.047.744.047 1.11.007.123.021.245.041.366.052.494.07.988.105 1.482.046.669.046 1.337.116 2 .035.33.052.668.058 1 .006.33.052.813.07 1.225.04.705.04 1.411 0 2.116 0 .337-.041.668-.064 1-.006.097-.02.195-.04.29-.043.191-.055.387-.036.581.025.388.025.776 0 1.163 0 .273 0 .546-.029.814 0 .387-.011.774-.035 1.162-.025.234-.025.47 0 .703a.076.076 0 0 0 .087.07l.192-.116c.581-.396 1.163-.78 1.744-1.198.387-.286.8-.56 1.238-.82.321-.19.653-.363.994-.516.36-.169.714-.343 1.057-.547l1.39-.778.284-.175c.188-.124.382-.239.581-.343.12-.064.233-.14.338-.226l1.917-1.407c.314-.227.617-.459.936-.674.32-.215.663-.43 1-.645l.192-.116c.369-.287.757-.547 1.162-.78.36-.22.727-.43 1.081-.65.355-.221.854-.552 1.273-.837 1.238-.849 2.482-1.68 3.749-2.482.517-.331 1.063-.64 1.592-.959.529-.32 1.017-.616 1.523-.93l1.098-.697 1.012-.634a.732.732 0 0 1 .162-.087c.206-.08.401-.186.582-.314l1.057-.622c.46-.261.919-.534 1.372-.813a33.796 33.796 0 0 1 2.243-1.244l.396-.21 1.22-.633 1.441-.779.396-.203.296-.029a5.94 5.94 0 0 1 .674-.384 4.55 4.55 0 0 0 .663-.406c.401-.27.825-.506 1.267-.704a7.59 7.59 0 0 0 .715-.395.36.36 0 0 0 .168-.232.883.883 0 0 0 0-.367 5.347 5.347 0 0 1 0-1.162v-1.227c0-.493.04-.987 0-1.487-.04-.5 0-1.064 0-1.598V58.48a2.854 2.854 0 0 0 0-.372.726.726 0 0 0 0-.186c0-.46 0-.912-.04-1.372-.041-.459-.041-.889-.059-1.336v-.076c0-.517 0-1.034-.046-1.557 0-.756 0-1.512-.122-2.261-.04-.297-.099-.582-.157-.878a8.137 8.137 0 0 1-.157-1.04v-.337a2.755 2.755 0 0 1 0-.297c0-.22.047-.442.058-.668.035-.546.058-1.087.093-1.633a2.674 2.674 0 0 1 0-.332c.048-.33.075-.665.082-1v-.26c0-.309 0-.623-.041-.93-.04-.309 0-.547 0-.814V41.98c0-.36 0-.72.04-1.081.013-.21.038-.42.076-.628a.262.262 0 0 0-.058-.21 5.812 5.812 0 0 0-.657-.702.622.622 0 0 0-.43-.192h-.11a.808.808 0 0 1-.518-.262c-.058-.064-.122-.128-.168-.191l-.262-.36a.064.064 0 0 1 0-.053.285.285 0 0 1 .308.081c.113.136.284.21.46.198h.22a.715.715 0 0 1 .372.163c.338.27.658.561.96.871.1.11.187.231.26.36a.976.976 0 0 1 .111.75c-.04.192-.061.386-.064.582 0 .36 0 .72-.035 1.08v.187c0 .47.035.941.047 1.412v.372c-.016.26-.016.52 0 .779a4.15 4.15 0 0 1 0 .627c-.04.907-.087 1.814-.128 2.715v.261a8.09 8.09 0 0 0 .192 2.325c.085.362.132.732.14 1.104.017.242.05.483.098.72.03.262 0 .518.03.78 0 .36 0 .72.046 1.075l.029.628c0 .36.04.72.058 1.075v.407a6.01 6.01 0 0 0 0 .778c.005.1.005.198 0 .297v2.296c0 1.162.04 2.278 0 3.417a1.377 1.377 0 0 0 0 .22c.024.336.024.672 0 1.006a5.527 5.527 0 0 0 0 .965.29.29 0 0 1-.122.29.75.75 0 0 0-.221.291c-.1.202-.256.37-.448.489a3.22 3.22 0 0 1-.662.337.22.22 0 0 0-.14.11.546.546 0 0 1-.406.29 4.55 4.55 0 0 1-.582.18.349.349 0 0 0-.133.059c-.18.105-.366.21-.54.325-.152.086-.286.198-.396.332-.092.1-.202.18-.325.238l-.948.517c-.383.192-.779.378-1.162.581-.384.204-.884.454-1.32.68l-.459.239c-.521.26-1.028.548-1.517.866-.47.301-.958.571-1.464.808a13.31 13.31 0 0 0-1.453.83l-.581.384-2.035 1.296c-.424.262-.854.5-1.284.75-.169.099-.337.21-.506.314l-.284.18a63.163 63.163 0 0 0-3.197 2.034L75.8 80.205c-.442.29-.901.581-1.349.854a1.691 1.691 0 0 0-.372.303c-.191.215-.407.4-.58.58a.54.54 0 0 1-.228.123c-.107.03-.21.074-.308.128a1.395 1.395 0 0 1-.337.145c-.176.06-.34.148-.488.262l-.581.383-.89.547-.127.07a4.11 4.11 0 0 0-.93.58 6.765 6.765 0 0 1-1.029.675l-2.034 1.162c-.163.093-.331.174-.5.262a18.42 18.42 0 0 0-1.395.703c-.314.174-.639.325-.947.517-.45.285-.87.614-1.255.982a3.87 3.87 0 0 1-.582.465 1.07 1.07 0 0 1-.517.198.238.238 0 0 0-.232.151.262.262 0 0 1-.163.145 1.162 1.162 0 0 1-.657 0 .738.738 0 0 1-.227-.122.517.517 0 0 0-.342-.11.779.779 0 0 1-.489-.145c-.261-.157-.54-.297-.813-.448a1.296 1.296 0 0 0-.454-.163 1.273 1.273 0 0 1-.488-.168 5.702 5.702 0 0 0-.848-.366c-.46-.18-.936-.337-1.395-.518a13.234 13.234 0 0 0-1.779-.529c-.72-.168-1.453-.32-2.18-.47a6.196 6.196 0 0 1-1.103-.332 9.59 9.59 0 0 0-1.297-.418 14.33 14.33 0 0 1-1.319-.384 21.818 21.818 0 0 0-1.743-.5c-1.035-.261-2.075-.534-3.075-.871a18.22 18.22 0 0 1-.942-.343 11.287 11.287 0 0 0-1.86-.517 25.428 25.428 0 0 1-1.627-.378 11.217 11.217 0 0 1-1.336-.454 1.412 1.412 0 0 0-.175-.07 16.151 16.151 0 0 0-1.865-.5 11.763 11.763 0 0 1-1.657-.412c-.45-.142-.908-.257-1.371-.343-.28-.058-.582-.075-.843-.122a3.749 3.749 0 0 1-.401-.093c-.442-.122-.884-.238-1.32-.383a2.906 2.906 0 0 0-.796-.163 2.325 2.325 0 0 1-.755-.169l-.808-.325a1.953 1.953 0 0 1-.483-.262 1.372 1.372 0 0 0-.529-.261.465.465 0 0 1-.337-.262c-.04-.075-.087-.15-.122-.226a.61.61 0 0 1-.046-.489c.068-.303.101-.613.099-.924v-.668c.019-.296.019-.593 0-.89-.035-.33-.047-.668-.064-.999-.018-.331 0-.581-.053-.854a9.113 9.113 0 0 1 0-.965V66.96c0-.582.035-1.163.03-1.744-.01-.495.016-.99.075-1.482 0-.21.03-.418.04-.628 0-.447.047-.889.065-1.336v-2.04c-.011-.52.016-1.041.081-1.558a4.55 4.55 0 0 0 .035-.924 9.462 9.462 0 0 1 0-1.116c0-.395-.035-.79-.04-1.162a.872.872 0 0 0 0-.186c-.082-.36-.111-.733-.164-1.105a2.906 2.906 0 0 1 0-.447c0-.221 0-.448.03-.669.023-.208.023-.419 0-.627a1.697 1.697 0 0 1-.035-.843.581.581 0 0 1 .261-.349 6.027 6.027 0 0 0 1.035-.848c.21-.218.445-.413.697-.581.297-.186 3.842-2.325 4.11-2.517l.662-.535c.212-.171.435-.328.668-.47.233-.14.465-.291.686-.448a7.602 7.602 0 0 1 1.075-.581h.134c.01.022.01.047 0 .07a1.47 1.47 0 0 1-.535.441l-.203.093c-.15.063-.287.152-.407.262-.176.16-.37.296-.581.407-.167.084-.31.208-.419.36a2.267 2.267 0 0 1-.476.465c-.175.14-3.61 2.185-3.772 2.325-.176.175-.37.329-.582.459-.139.087-.261.186-.4.261a5.12 5.12 0 0 0-.814.698.314.314 0 0 0-.07.081 1.162 1.162 0 0 1-.477.453l-.093.064a.581.581 0 0 0-.261.471 2.023 2.023 0 0 0 0 .407c0 .169.07.337.11.517.121.455.168.926.14 1.395a8.422 8.422 0 0 0 .046 1.558c.011.193.011.387 0 .581v.633a2.104 2.104 0 0 0 0 .297c.046.52.027 1.043-.058 1.557a3.016 3.016 0 0 0 0 .582v.482c-.026.344-.026.69 0 1.035a10.717 10.717 0 0 0 .076 1.337c.028.258.028.52 0 .778-.053.386-.086.774-.099 1.163-.03.58-.047 1.162-.07 1.743 0 .349 0 .692-.046 1.035a8.38 8.38 0 0 0 0 1.075c.01.193.01.387 0 .581v1.162c0 .32 0 .646.029.965.008.124.008.248 0 .372v.889c0 .494-.035.988-.058 1.488a7.596 7.596 0 0 0 0 1.227c.012.149.012.298 0 .447a6.742 6.742 0 0 0 0 .814v.814c0 .173.015.346.046.517.123.434.16.888.11 1.337a.68.68 0 0 0 0 .07.192.192 0 0 0 .094.191c.145.097.296.185.453.262.425.205.884.333 1.354.377.408.04.81.127 1.197.262.53.17 1.072.299 1.622.384.788.109 1.565.282 2.325.517.236.075.476.133.72.174.891.154 1.767.388 2.616.698.22.08.441.168.662.238.32.099.64.192.965.261.483.11.97.21 1.453.314.582.12 1.153.285 1.709.494.735.297 1.488.548 2.255.75.65.169 1.296.32 1.947.477.581.133 1.104.284 1.645.465.41.141.827.261 1.25.36a8.95 8.95 0 0 1 1.295.413c.391.159.799.274 1.215.342.21.03.413.082.622.123.581.116 1.203.29 1.813.441.563.146 1.116.326 1.657.54.482.193.976.355 1.47.518a7.84 7.84 0 0 1 1.616.744c.085.05.165.108.238.174.118.11.254.198.401.262.198.099.395.21.581.314a.517.517 0 0 0 .239.081c.235-.01.469.046.674.163h.035a.093.093 0 0 0 .11-.064c.067-.327.154-.65.262-.965.025-.095.04-.192.04-.29v-.634l.082.012z"/>
        <path fill="#1A1A1A" d="M35.889 45.072a4.127 4.127 0 0 1-.087.813.895.895 0 0 0 0 .186 3.76 3.76 0 0 1-.169.948.262.262 0 0 0 0 .11c.004.037.02.072.047.099a.36.36 0 0 0 .128.07 14.6 14.6 0 0 0 1.743.47c.453.082.895.198 1.343.291.447.093.848.163 1.272.244.425.082.803.146 1.204.239.82.18 1.639.377 2.464.58.589.117 1.17.264 1.743.442.378.117.78.198 1.163.28.726.145 1.453.313 2.174.493.72.18 1.51.372 2.284.518.4.081.796.174 1.203.261.279.053.58.087.842.14.18.035.36.075.54.128l1.035.296c.131.022.263.038.396.046l.959.128 1.162.175h.22c.236.011.469.054.693.128l.534.145.18.046c.442.157.89.314 1.326.483.207.084.392.215.54.383a.308.308 0 0 1 .093.308 4.51 4.51 0 0 0-.116 1.25c0 .866-.064 1.744-.093 2.592V59.044c-.009.099-.03.197-.064.29a.477.477 0 0 1-.285.32l-.308.14a.134.134 0 0 1-.169-.14v-.035c.06-.29.09-.587.093-.883.005-.41.032-.82.082-1.227a.68.68 0 0 0 0-.145 6.254 6.254 0 0 1 .058-1.162c.018-.124.03-.248.035-.372 0-.285.029-.581.04-.855a5.73 5.73 0 0 1 .233-1.424l.017-.08a.192.192 0 0 0-.104-.216.413.413 0 0 0-.134-.058 12.786 12.786 0 0 1-1.58-.407c-.55-.15-1.107-.273-1.669-.366l-1.034-.169a3.586 3.586 0 0 0-.407-.04 3.801 3.801 0 0 1-.843-.146c-.337-.093-.662-.197-1.005-.261-.233-.04-.46-.099-.698-.128a15.96 15.96 0 0 1-1.278-.238.895.895 0 0 0-.18-.035 4.44 4.44 0 0 1-1.023-.18 189.36 189.36 0 0 0-3.691-.86c-.448-.1-.883-.239-1.325-.355-.262-.07-.5-.14-.756-.186-.378-.07-.738-.203-1.11-.29-.662-.152-1.325-.32-1.993-.46-.436-.093-.878-.162-1.314-.238a31.751 31.751 0 0 1-1.813-.39l-.948-.209a7.038 7.038 0 0 1-.924-.29 3.9 3.9 0 0 0-1.296-.29 1.68 1.68 0 0 1-.517-.105.674.674 0 0 0-.18-.041.105.105 0 0 0-.081.058c-.012.11-.012.221 0 .331.034.581.08 1.163.11 1.779v1.853a.262.262 0 0 0 .174.262c.454.163.895.366 1.36.494.357.097.713.202 1.07.314.535.158 1.078.288 1.627.39l.622.116.145.035c.38.134.769.247 1.163.337.457.112.906.257 1.342.436.384.157.779.261 1.163.389a20.62 20.62 0 0 0 2.01.517c.458.113.915.22 1.372.32.204.046.413.075.622.11.651.11 1.279.285 1.924.43.168.041.337.07.517.1.474.092.944.208 1.407.348.32.093.65.163.97.262.32.098.581.139.82.232a9.7 9.7 0 0 0 1.296.349c.546.11 1.087.244 1.621.395.349.099.698.168 1.035.238l.947.186h.186c.186.018.37.047.552.087a.883.883 0 0 1 .581.401.68.68 0 0 1 .128.454c-.013.39-.056.778-.128 1.162 0 .063-.04.118-.098.14a.314.314 0 0 1-.303-.093.546.546 0 0 1-.145-.337v-.442c.009-.06.02-.12.035-.18.046-.337 0-.355-.262-.413a23.708 23.708 0 0 0-.836-.169 9.05 9.05 0 0 1-.983-.203c-.779-.232-1.557-.407-2.324-.581a7.131 7.131 0 0 1-.79-.215c-.397-.14-.8-.258-1.21-.355-.407-.099-.837-.22-1.255-.337a6.974 6.974 0 0 0-.796-.168c-.21-.03-.413-.088-.616-.134l-1.558-.36c-.18-.041-.366-.064-.552-.1-.79-.145-1.57-.36-2.325-.534-.756-.174-1.436-.383-2.145-.581-.14-.047-.279-.099-.418-.151a14.728 14.728 0 0 0-1.773-.581c-.697-.186-1.395-.326-2.104-.471-.376-.078-.749-.175-1.116-.29a25.82 25.82 0 0 0-1-.297 6.068 6.068 0 0 1-.918-.314 3.406 3.406 0 0 0-1.255-.314 1.918 1.918 0 0 1-.848-.238 1.273 1.273 0 0 0-.239-.105 6.027 6.027 0 0 1-.935-.349h-.105a.122.122 0 0 0-.116.076.761.761 0 0 0 0 .11v.297a.907.907 0 0 1-.122.424.151.151 0 0 1-.262 0 1.064 1.064 0 0 1-.128-.5c.002-.194.014-.388.035-.58 0-.146.047-.291.07-.437.023-.145.081-.168.21-.116.365.151.743.262 1.12.39.117.04.227.098.338.145.133.067.276.112.424.133a.128.128 0 0 0 .163-.145 2.522 2.522 0 0 1 .029-.738 7.26 7.26 0 0 0 .046-1.633c0-.198-.046-.395-.058-.581a2.371 2.371 0 0 1 0-.337 2.278 2.278 0 0 0 0-.582.296.296 0 0 1 .134-.354.14.14 0 0 0 .046-.128c0-.163.064-.198.204-.145l.168.081c.053.032.11.057.169.076.47.093.517.145.535-.372 0-.262 0-.494.04-.744.009-.137.024-.272.047-.407.066-.33.082-.666.046-1a1.314 1.314 0 0 1 .088-.581.262.262 0 0 1 .308-.198l.08.035c.08.032.157.073.228.122.195.133.421.215.656.239.262.034.518.04.78.058h.11a.122.122 0 0 0 .093-.105.436.436 0 0 0 0-.145 2.854 2.854 0 0 1 0-.669 2.575 2.575 0 0 1 .168-.982.105.105 0 0 1 .122-.064c.145.047.285.087.419.146a.854.854 0 0 0 .517.063c.11-.018.222-.018.331 0 .32.047.64.064.953.134.427.096.86.16 1.296.192.396 0 .79.035 1.163.087.372.052.645.035.965.058.148.01.296.029.441.058.1 0 .198 0 .29.035.224.008.447.039.663.093l1.163.302 1.743.425 2.192.58c.321.086.64.181.959.286.494.16.999.286 1.51.377.963.173 1.916.399 2.854.675.518.145 1.035.261 1.558.4a41.93 41.93 0 0 0 1.924.43c.29.059.58.1.871.17.465.121.936.26 1.407.354.64.143 1.28.279 1.924.407.314.064.633.098.953.14l1.36.18h.186l1.07.133c.073.01.145.03.214.058.146.058.297.128.442.198a.192.192 0 0 1 .128.244v.035a1.895 1.895 0 0 0-.174.715c-.041.296-.1.58-.146.877-.02.121-.033.244-.04.366 0 .407-.035.814-.047 1.227a1.162 1.162 0 0 0 0 .22c.025.26.025.52 0 .78l-.07 1.853c.004.187-.022.373-.075.552a.262.262 0 0 1-.169.18l-.36.1a.134.134 0 0 1-.151-.111.744.744 0 0 1 .035-.215c.063-.165.097-.34.098-.517 0-1.128.128-2.25.14-3.371-.03-.344-.03-.69 0-1.035.047-.331.076-.665.087-1v-.371a.163.163 0 0 0-.122-.169 3.319 3.319 0 0 0-.401-.087c-.384-.047-.767-.076-1.162-.14a19.354 19.354 0 0 1-2.075-.366c-.395-.104-.796-.174-1.197-.261-.402-.087-.78-.18-1.163-.285a27.498 27.498 0 0 0-1.662-.384 17.686 17.686 0 0 1-1.947-.47c-.32-.1-.645-.175-.965-.262a38.93 38.93 0 0 0-2.075-.54l-1.017-.216c-.337-.07-.697-.156-1.034-.261-.496-.151-.992-.31-1.488-.477l-.349-.209a86.12 86.12 0 0 0-3.197-.843 23.99 23.99 0 0 1-1.11-.296 8.323 8.323 0 0 0-1.418-.285c-.395-.046-.779-.07-1.162-.093l-1.226-.064c-.163 0-.32-.04-.483-.052-.451-.043-.9-.115-1.342-.215a2.156 2.156 0 0 0-.442-.04c-.44 0-.877-.057-1.302-.17a.122.122 0 0 0-.163.111c-.01.11-.01.221 0 .331 0 .285.047.582.047.855a.866.866 0 0 0 0 .186c.015.101.096.18.197.192.343.058.686.11 1.023.18.337.07.849.18 1.267.285.938.232 1.874.472 2.807.72.372.099.739.21 1.11.308.274.076.582.14.826.215.244.076.5.146.744.233.441.159.89.296 1.348.412.68.18 1.36.378 2.04.582.521.155 1.051.28 1.587.372.552.093 1.092.215 1.639.313.331.059.662.11.994.14.391.038.78.102 1.162.192l.36.098c.4.129.81.224 1.227.285.538.085 1.07.207 1.592.366.423.131.857.227 1.296.285.419.053.831.134 1.244.221.413.087.9.157 1.354.238.454.082.732.134 1.093.215.313.08.61.214.877.396.062.042.12.088.175.14.093.07.132.19.099.301-.035.134-.07.262-.1.396a4.87 4.87 0 0 0-.063.366.64.64 0 0 1 0 .22 4.29 4.29 0 0 0-.07 1.256c.021.248.01.499-.035.744a3.37 3.37 0 0 0-.046.442 6.265 6.265 0 0 1-.105.993c-.058.262-.087.535-.122.808-.023.203-.082.4-.174.581a1.035 1.035 0 0 0-.087.204.308.308 0 0 1-.163.192l-.163.093c-.14.104-.21.035-.244-.087a1.017 1.017 0 0 1-.035-.221v-.407a1.47 1.47 0 0 1 0-.29c.069-.329.115-.66.14-.995 0-.244.08-.488.122-.732 0-.145.046-.29.058-.442.03-.294.06-.59.087-.889a1.813 1.813 0 0 0 0-.261 4.127 4.127 0 0 1 .046-.849c.049-.381.117-.76.204-1.133a.169.169 0 0 0-.099-.221h-.035a2.203 2.203 0 0 0-.325-.07c-.32-.046-.64-.075-.953-.134-.518-.098-1.035-.215-1.558-.313-.279-.053-.581-.082-.843-.134a5.23 5.23 0 0 1-.581-.122c-.5-.145-.994-.308-1.494-.448a5.376 5.376 0 0 0-.709-.174 6.434 6.434 0 0 1-1.325-.343 3.731 3.731 0 0 0-.755-.192l-1.581-.226c-.28-.047-.581-.117-.837-.169l-1.203-.227c-.581-.109-1.156-.25-1.72-.424-.721-.215-1.448-.43-2.186-.581-.29-.07-.581-.174-.848-.262a8.84 8.84 0 0 0-1.163-.33c-.4-.082-.79-.199-1.162-.309l-.901-.261c-.395-.11-.779-.239-1.162-.338-.744-.191-1.488-.395-2.238-.517-.39-.07-.779-.145-1.162-.192-.384-.046-.692-.064-1.035-.104a4.44 4.44 0 0 1-.982-.198 4.818 4.818 0 0 0-.581-.134.122.122 0 0 0-.14.093v.186a1.592 1.592 0 0 0-.087.36z"/>
        <path fill="#1A1A1A" d="M94.997 40.83l-.082.476v.11a.099.099 0 0 0 .087.105h.03l.139-.058c.261-.163.5-.326.744-.489a.076.076 0 0 0 0-.104 3.273 3.273 0 0 0-.262-.221 1.372 1.372 0 0 1-.354-.424.378.378 0 0 1-.047-.14.296.296 0 0 1 0-.14.105.105 0 0 1 .134 0l.174.134c.206.18.428.342.663.483.15.088.288.198.407.325a.337.337 0 0 1 .093.198.198.198 0 0 1-.07.197 8.089 8.089 0 0 1-.581.35.314.314 0 0 1-.14.046 1.383 1.383 0 0 0-.58.197l-.198.105-1.442.848-.453.262-1.058.552-.186.122c-.21.155-.434.291-.668.407l-.163.093-1.162.709c-.15.089-.303.17-.46.244-.34.154-.66.35-.953.581a.506.506 0 0 1-.122.082c-.383.168-.744.395-1.133.58l-.175.036-.209.075a4.824 4.824 0 0 1-.86.355.634.634 0 0 0-.168.081c-.386.22-.786.415-1.198.581-.261.117-.494.239-.744.337-.32.136-.622.31-.9.518a5.23 5.23 0 0 1-.907.517c-.744.343-1.465.732-2.185 1.116l-1.384.726c-.122.064-.238.122-.36.198-.849.517-1.744.97-2.604 1.43-.11.058-.215.122-.32.186l-.54.325-.64.378-.296.157a7.556 7.556 0 0 1-1.162.43c-.215.064-.407.169-.628.215a.89.89 0 0 0-.261.128c-.308.186-.616.366-.913.581-.91.62-1.838 1.213-2.784 1.779-.331.197-.668.377-1.005.58-.337.204-.779.489-1.163.733a.581.581 0 0 0-.191.22.779.779 0 0 1-.28.292c-.081.056-.159.118-.232.185l-.488.402a3.01 3.01 0 0 0-.285.238 2.139 2.139 0 0 1-.674.453 6.07 6.07 0 0 1-.343.145c-.36.137-.706.306-1.034.506-.64.388-1.27.775-1.89 1.162-.453.303-.406.28-.894.146-.408-.105-.821-.185-1.238-.239a11.665 11.665 0 0 1-2.11-.43 6.817 6.817 0 0 0-1.011-.232c-.378-.076-.75-.173-1.116-.29-.5-.146-.994-.309-1.494-.454-.5-.145-.947-.29-1.424-.413-.68-.18-1.366-.366-2.052-.517-.813-.18-1.598-.453-2.4-.668-.36-.1-.709-.221-1.058-.343-.348-.122-.58-.169-.895-.262l-1.743-.453a23.829 23.829 0 0 1-2.366-.779 4.772 4.772 0 0 0-.97-.261 8.91 8.91 0 0 1-1.052-.239c-.698-.186-1.384-.383-2.075-.58a10.212 10.212 0 0 1-.779-.262 14.292 14.292 0 0 0-1.563-.489c-.326-.081-.646-.18-.965-.261l-.97-.244a5.98 5.98 0 0 1-1.128-.366 6.59 6.59 0 0 0-1.192-.407c-.196-.05-.39-.11-.581-.18a2.743 2.743 0 0 1-.692-.36 3.37 3.37 0 0 0-1.447-.524l-.261-.035a.227.227 0 0 1-.215-.238v-.21a.43.43 0 0 1 .157-.319c.417-.37.866-.703 1.342-.994.238-.15.477-.314.715-.47l.866-.582c.169-.11.337-.215.494-.325.37-.26.758-.491 1.162-.692.102-.046.201-.099.297-.157a9.3 9.3 0 0 1 .89-.465.081.081 0 0 1 .11.035.273.273 0 0 1-.07.366 3.005 3.005 0 0 1-.36.262c-.46.261-.913.546-1.395.779a2.11 2.11 0 0 0-.698.54 1.104 1.104 0 0 1-.215.204c-.354.261-.68.534-1.052.76-.232.14-.46.292-.692.437l-.517.349a.232.232 0 0 0-.07.08.076.076 0 0 0 0 .07c.024.03.054.051.088.065.293.101.569.246.82.43.258.17.543.3.842.383l.36.1a5.9 5.9 0 0 1 1.087.371c.467.2.952.358 1.447.47.253.058.501.132.744.222.153.053.308.097.465.133.668.192 1.331.384 1.982.622.418.151.843.28 1.273.401l1.395.39c.407.104.813.203 1.226.296.495.115.982.26 1.459.436.395.145.802.262 1.203.372l1.296.349c.436.122.936.261 1.406.354.134 0 .262.07.396.11.79.239 1.586.483 2.383.721.383.11.778.198 1.162.297l.86.238 1.226.308c.518.122 1 .29 1.494.448l.89.279c.26.08.517.162.778.261.365.12.738.218 1.116.29.465.088.918.204 1.372.338.417.118.842.206 1.272.261.442.058.89.087 1.32.192l.54.14a.29.29 0 0 0 .215 0c.169-.073.33-.16.483-.262.114-.075.232-.143.354-.203.262-.151.518-.297.78-.46a10.496 10.496 0 0 1 1.557-.796l.308-.133c.173-.07.33-.173.465-.303a.936.936 0 0 1 .372-.238.82.82 0 0 0 .197-.099l.657-.476a21.929 21.929 0 0 1 2.011-1.267c.308-.163.622-.314.912-.494a79.018 79.018 0 0 0 3.034-1.947c.285-.198.581-.384.884-.582.302-.197.779-.441 1.162-.691a17.89 17.89 0 0 1 1.575-.831c.581-.314 1.163-.616 1.779-.936.993-.535 1.976-1.081 2.987-1.587.29-.145.581-.302.854-.453a49.811 49.811 0 0 1 2.244-1.081c.58-.279 1.162-.581 1.772-.854l.977-.454a2.47 2.47 0 0 0 .412-.244c.314-.227.622-.453.948-.65.325-.198.581-.32.883-.472.076-.04.163-.063.238-.098l1.796-.895c.146-.07.291-.14.436-.198a8.055 8.055 0 0 0 1.006-.477l1.342-.79c.54-.325 1.076-.668 1.645-.942l.134-.07c.106-.04.17-.149.15-.26-.034-.297-.057-.582-.086-.89-.03-.308-.058-.64-.1-.96a3.627 3.627 0 0 0-.069-.435 19.83 19.83 0 0 1-.32-1.982c-.046-.354.204-1.813.192-2.18 0-.22-.035-.441-.052-.668a.198.198 0 0 0-.122-.168h-.07c-.517-.198-1.017-.384-1.523-.581-.505-.198-.906-.401-1.348-.617a6.021 6.021 0 0 0-.79-.313l-.64-.192a4.946 4.946 0 0 1-1.406-.657c-.093-.058-.192-.11-.29-.168a3.123 3.123 0 0 1-.309-.204.122.122 0 0 1 0-.099.07.07 0 0 1 .064 0c.293.044.577.138.837.28.368.178.746.333 1.133.464.601.19 1.184.432 1.744.72.134.065.262.129.407.193l1.435.61c.169.07.35.134.518.198.151.053.31.082.47.087.53.035.698.18.832.726.07.303-.18 1.814-.163 2.122 0 .406.035.813.075 1.226.058.581.14 1.203.227 1.813 0 .186.047.366.058.582.005.087.005.174 0 .261l.018-.186z"/>
        <path fill="#1A1A1A" d="M74.15 10.27h-.07a2.842 2.842 0 0 1-.315.122 41.92 41.92 0 0 0-2.022.622 5.882 5.882 0 0 1-1.035.244 6.55 6.55 0 0 0-.796.186l-1 .285-.645.168c-.313.087-.622.169-.93.262-.691.232-1.394.436-2.092.645-1.034.302-2.075.627-3.098.935-1.023.309-2.185.646-3.283.96-.78.22-1.581.43-2.366.645-.581.162-1.162.325-1.743.5-.582.174-1.134.36-1.703.517-.57.157-1.163.343-1.744.517-1.034.29-2.063.633-3.086.953-.581.186-1.215.355-1.813.529l-.146.03a4.83 4.83 0 0 0-.79.19c-.223.074-.45.135-.68.181-.293.053-.58.131-.86.233a4.65 4.65 0 0 1-.465.133c-.11.02-.22.034-.332.04a2.383 2.383 0 0 0-.29.036c-.204.046-.215.087-.128.285.087.197.192.377.261.58.067.161.121.326.163.495.116.47.28.924.36 1.4a.372.372 0 0 0 0 .07c.227.581.384 1.203.582 1.796.058.151.122.302.168.453.069.159.12.325.151.494.023.123.06.242.11.355.237.624.46 1.255.67 1.895.191.58.406 1.162.621 1.708.07.198.169.384.262.582.063.134.111.274.145.418.126.542.29 1.074.494 1.592.11.291.192.582.273.89.081.308.215.709.355 1.058.058.15.11.302.15.459.17.58.338 1.191.506 1.79.134.465.262.93.396 1.395.093.308.197.61.296.918l.488 1.482c.163.494.337 1.064.517 1.592.11.325.25.638.419.936.03.054.058.11.081.169a.482.482 0 0 1-.064.517 2.174 2.174 0 0 1-.145.163.07.07 0 0 1-.07 0 .227.227 0 0 1-.07-.082c-.18-.395-.366-.778-.534-1.162a13.9 13.9 0 0 1-.28-.779c-.115-.354-.226-.709-.33-1.063-.186-.646-.407-1.273-.616-1.907-.18-.54-.343-1.087-.5-1.633-.21-.715-.395-1.435-.581-2.145-.1-.33-.215-.656-.326-.988-.052-.15-.116-.302-.157-.453-.157-.61-.383-1.203-.581-1.802-.087-.261-.169-.517-.262-.778l-.261-.739c-.064-.186-.134-.372-.192-.58a98.407 98.407 0 0 1-.506-1.744 7.69 7.69 0 0 0-.424-1.163c-.188-.421-.349-.854-.482-1.296-.157-.494-.337-.982-.506-1.476-.046-.14-.099-.279-.14-.424-.243-.845-.488-1.69-.732-2.534-.058-.204-.11-.407-.162-.61a.418.418 0 0 1 .22-.43c.221-.082.442-.158.675-.216.232-.058.406-.11.58-.18.175-.07.43-.128.64-.192l.744-.238.581-.169.494-.168c.282-.097.569-.174.86-.233.328-.065.65-.152.965-.261.982-.337 1.982-.64 2.982-.93.674-.198 1.348-.418 2.028-.616l2.714-.779 2.006-.552 2.353-.674c.407-.116.814-.215 1.22-.337l1.634-.5c.913-.273 1.813-.581 2.743-.814.581-.163 1.163-.372 1.773-.581.61-.21 1.034-.314 1.558-.465.418-.116.836-.215 1.26-.325.121-.032.243-.055.367-.07.454-.065.9-.176 1.33-.331.582-.18 1.105-.372 1.675-.5l.18-.041a.372.372 0 0 1 .145 0c.035 0 .058.047.093.058.279.135.492.376.593.669.04.075.076.156.11.238l.401.877c.129.276.234.562.314.855a.825.825 0 0 0 .047.14c.306.663.578 1.342.813 2.033.169.454.285.925.419 1.39.075.261.151.517.227.778.122.43.261.855.372 1.296.137.515.31 1.02.517 1.512.14.33.261.668.395 1.005l.21.517.58 1.418c.198.518.39 1.017.582 1.523.16.403.298.814.412 1.232.151.581.343 1.163.46 1.744.098.476.185.947.29 1.418.238 1.052.43 2.11.697 3.156a12.7 12.7 0 0 1 .262 1.61c.052.43.134.86.21 1.284.148.816.342 1.623.58 2.418.105.343.186.697.285 1.035.099.337.186.645.262.964.378 1.39.755 2.773 1.162 4.15.186.581.366 1.162.581 1.744.047.15.117.302.175.447.058.145.122.273.18.407a.325.325 0 0 1-.035.407.732.732 0 0 0-.116.261.163.163 0 0 1-.076.07.105.105 0 0 1-.11-.075 1.494 1.494 0 0 1-.082-.245 3.19 3.19 0 0 0-.261-.778 7.776 7.776 0 0 1-.366-.97c-.308-.995-.628-1.983-.93-2.977-.151-.5-.28-1-.419-1.505l-.343-1.255c-.11-.407-.215-.814-.33-1.22-.076-.262-.164-.518-.24-.78a22.812 22.812 0 0 1-.697-3.068c-.098-.686-.197-1.372-.36-2.046l-.238-1.011c-.07-.314-.146-.628-.21-.942-.214-1.035-.43-2.063-.65-3.092-.041-.18-.088-.36-.134-.54-.087-.338-.186-.669-.262-1.006a7.02 7.02 0 0 0-.308-.912l-.778-2.168c-.117-.326-.239-.651-.36-.977-.076-.197-.164-.39-.222-.58-.098-.309-.238-.582-.36-.896a9.235 9.235 0 0 1-.378-1.075c-.244-.872-.482-1.744-.744-2.61a34.087 34.087 0 0 0-.778-2.325c-.169-.43-.309-.866-.46-1.296a2.493 2.493 0 0 0-.11-.273c-.192-.39-.36-.779-.517-1.162a1.825 1.825 0 0 0-.122-.233.14.14 0 0 0-.076-.104zM41.846 74.132a4.708 4.708 0 0 0-.802.029.616.616 0 0 0-.506.383c0 .047-.034.093-.058.134a.203.203 0 0 1-.284.04 1.035 1.035 0 0 1-.11-.145c-.065-.104-.123-.215-.193-.32a1.744 1.744 0 0 0-.226-.29 6.393 6.393 0 0 0-1.081-.848 3.26 3.26 0 0 0-1.163-.43c-.354-.059-.715-.082-1.07-.117a4.202 4.202 0 0 1-.69-.128c-.518-.145-1.018-.308-1.54-.418a2.976 2.976 0 0 1-1.39-.82 4.126 4.126 0 0 1-.674-.877 2.046 2.046 0 0 1-.302-1.023c0-.298-.016-.595-.047-.89a2.36 2.36 0 0 0-.046-.29c-.053-.261-.11-.535-.157-.802a1.61 1.61 0 0 0-.849-1.128 1.035 1.035 0 0 0-.244-.087.732.732 0 0 1-.46-.348 1.627 1.627 0 0 0-.29-.378.076.076 0 0 1 0-.07.076.076 0 0 1 .053-.035.325.325 0 0 1 .11 0l.262.07c.405.144.857.042 1.162-.262.366-.278.696-.6.982-.959.254-.305.556-.566.895-.773.314-.22.64-.43.97-.621.298-.18.621-.31.96-.384.243-.049.494-.049.738 0 .279.052.581.046.843.122.18.047.36.087.534.145.582.21 1.21.36 1.814.518.095.023.192.038.29.046.36.023.72-.007 1.07-.087.17-.035.335-.096.488-.18.267-.123.527-.261.779-.413a.21.21 0 0 1 .284.058v.04c.034.069.057.141.07.216.068.325.283.6.581.744.14.079.286.147.436.203.262.105.518.192.762.297.399.138.809.24 1.226.308 1.011.203 2 .465 2.987.75.578.189 1.115.487 1.581.877.145.116.297.22.454.326.379.258.733.552 1.057.877l.32.314.11.099c.221.261.448.494.669.744.412.544.688 1.18.802 1.854.068.397.177.787.325 1.162.11.25.263.479.454.674.348.387.725.746 1.127 1.076.099.08.192.156.285.238.053.05.095.112.122.18a.262.262 0 0 0 .145.151.314.314 0 0 1 .18.407.192.192 0 0 1-.22.151h-.372a1.064 1.064 0 0 0-.582.14c-.215.116-.441.22-.656.342-.109.062-.214.13-.314.204a3.86 3.86 0 0 1-.756.47 1 1 0 0 0-.285.175 1.314 1.314 0 0 1-.418.238l-.517.186c-.169.064-.372.14-.581.192-.33.108-.676.165-1.023.169a8.265 8.265 0 0 1-1.837-.262 7.602 7.602 0 0 1-1.709-.616c-.408-.206-.83-.387-1.26-.54a25.615 25.615 0 0 1-.832-.314c-.472-.151-.954-.271-1.441-.36-.146-.03-.29-.07-.436-.088-.146-.017-.285-.035-.506-.046zm7.474 1.487H50.192c.098-.004.195-.016.29-.034.326-.07.652-.146.977-.233.338-.084.66-.223.953-.413l.645-.435c.271-.201.561-.375.866-.518.168-.078.33-.166.489-.261a.11.11 0 0 0 0-.186l-.053-.053c-.238-.261-.494-.488-.72-.743a3.487 3.487 0 0 1-.71-1.163 8.776 8.776 0 0 1-.371-1.36 2.284 2.284 0 0 0-.239-.738 4.464 4.464 0 0 0-.534-.756 23.11 23.11 0 0 0-.977-1.017c-.229-.219-.48-.414-.75-.58a5.893 5.893 0 0 1-.58-.448 3.37 3.37 0 0 0-.878-.552c-.308-.123-.628-.227-.942-.343a9.38 9.38 0 0 0-1.32-.378.953.953 0 0 1-.18-.052 4.987 4.987 0 0 0-.97-.262 7.997 7.997 0 0 1-1.744-.517l-.139-.053a3.022 3.022 0 0 1-1.035-.65 3.057 3.057 0 0 1-.54-.663c-.081-.122-.145-.14-.238-.047-.093.093-.303.215-.448.332-.137.106-.3.176-.47.203l-.733.134a.726.726 0 0 1-.22 0 4.37 4.37 0 0 1-.809-.116l-.58-.192a9.392 9.392 0 0 1-.989-.326 2.767 2.767 0 0 0-.39-.116c-.348-.06-.693-.137-1.034-.232a.401.401 0 0 0-.186 0 3.836 3.836 0 0 0-.517.087 4.376 4.376 0 0 0-1.447.744c-.29.215-.581.453-.837.68a1.837 1.837 0 0 0-.204.215l-.209.261c-.14.186-.316.342-.517.46-.15.086-.291.19-.419.307-.1.094-.216.168-.342.221a.296.296 0 0 0-.093.058.064.064 0 0 0 0 .064c.086.07.167.146.244.227.256.295.453.636.58 1.006.246.75.372 1.535.373 2.324-.01.35.125.688.372.936.343.395.793.681 1.296.825l.215.064c.285.082.581.146.86.244a5.87 5.87 0 0 0 1.529.285 5.23 5.23 0 0 1 1.51.372c.165.075.323.165.471.267a6.01 6.01 0 0 1 1.587 1.331l.128.134a.157.157 0 0 0 .174 0 .622.622 0 0 0 .117-.093.883.883 0 0 1 .662-.29c.221 0 .448-.03.669-.03.193-.015.387-.015.58 0 .379.059.756.128 1.128.221.816.187 1.61.456 2.372.802a13.74 13.74 0 0 0 2.185.826c.424.116.83.127 1.215.22h.005z"/>
        <path fill="#1A1A1A" d="M76.38 33.895a.18.18 0 0 1 0 .07c-.05.1-.109.194-.174.285a.43.43 0 0 1-.168.14 5.08 5.08 0 0 0-.517.26c-.113.055-.23.1-.349.135a3.97 3.97 0 0 0-.581.261c-.29.17-.606.287-.936.349-.562.088-1.118.216-1.662.383a3.423 3.423 0 0 1-.547.117c-.379.052-.755.123-1.127.215h-.07a7.26 7.26 0 0 0-1.464.412c-.266.1-.54.176-.82.227a1.575 1.575 0 0 0-.662.22 1.162 1.162 0 0 1-.314.117l-1.529.465c-.261.07-.5.14-.755.192-.337.08-.669.18-.994.296-.884.297-1.773.582-2.668.814l-.39.122c-.483.158-.976.284-1.476.378l-.47.099c-.28.048-.55.144-.797.284-.193.113-.4.201-.616.262-.82.261-1.615.552-2.417.843a5.266 5.266 0 0 1-.965.261c-.262.047-.535.099-.802.128a.128.128 0 0 1-.128-.046 1.395 1.395 0 0 1-.221-.419 2.737 2.737 0 0 0-.215-.517 5.097 5.097 0 0 1-.314-.79 94.622 94.622 0 0 1-.674-2.261c-.122-.43-.262-.855-.366-1.296-.053-.192-.105-.384-.151-.582a8.387 8.387 0 0 0-.314-1.028 7.12 7.12 0 0 1-.308-1.07c-.07-.325-.142-.653-.215-.982-.1-.435-.227-.864-.378-1.284a5.656 5.656 0 0 1-.174-.582.105.105 0 0 1 .034-.093.122.122 0 0 1 .105 0 .866.866 0 0 1 .39.384c.041.076.076.156.104.238.157.43.32.86.436 1.296.035.134.081.262.116.39.105.383.21.767.32 1.162.052.192.105.384.174.581.172.478.318.965.436 1.46.049.198.113.392.192.58.12.267.217.543.29.826.095.423.237.834.425 1.226.115.233.208.476.279.726.122.416.275.822.459 1.215a.174.174 0 0 0 .21.14 3.981 3.981 0 0 0 1.01-.233c1.012-.407 2.058-.715 3.092-1.07a8.555 8.555 0 0 1 1.081-.272c.413-.082.826-.157 1.233-.28l1.778-.546.535-.162 1.034-.332c.355-.104.756-.238 1.163-.343.837-.22 1.67-.46 2.499-.72.343-.11.691-.192 1.034-.291l.715-.203c.518-.146 1.023-.303 1.535-.43.72-.18 1.435-.384 2.138-.622a45.763 45.763 0 0 1 2.441-.78c.454-.127.901-.26 1.355-.4a.227.227 0 0 1 .11 0c.01.024.011.05.006.075z"/>
        <path fill="#1A1A1A" d="M57.201 31.222c.285.025.57.025.855 0a4.11 4.11 0 0 1 .58 0c.392.018.784-.023 1.163-.122l.936-.227c.581-.134 1.197-.325 1.79-.488l1.813-.506c.384-.104.768-.215 1.163-.325a17.023 17.023 0 0 0 3.005-1.273 9.7 9.7 0 0 0 1.348-.854c.387-.29.707-.661.936-1.087a.128.128 0 0 0-.07-.169 1.261 1.261 0 0 1-.442-.168 3.208 3.208 0 0 0-.377-.146.07.07 0 0 1-.035-.058.145.145 0 0 1 .046-.087.942.942 0 0 1 .395-.081c.099-.009.198-.009.297 0 .06.002.12.018.174.046.191.118.348.285.453.483a.726.726 0 0 1 .047.546c-.028.109-.07.214-.122.314a2.551 2.551 0 0 1-.72.837c-.594.412-1.213.785-1.855 1.116-.163.087-.32.186-.488.261-.169.076-.43.192-.64.29-.47.227-.958.402-1.44.582a2.034 2.034 0 0 1-.21.081c-.65.192-1.296.454-1.947.582-.47.11-.93.261-1.395.395-.382.116-.77.213-1.162.29-.18.03-.355.086-.517.169l-.1.046a5.638 5.638 0 0 1-1.61.262c-.308-.03-.62-.03-.93 0-.086.01-.174.01-.26 0l-.925.035a.953.953 0 0 1-.261-.064c-.221-.081-.436-.174-.657-.262a.895.895 0 0 1-.418-.29.517.517 0 0 1-.1-.157c-.069-.238-.15-.47-.197-.715-.047-.246-.023-.5.07-.732a.697.697 0 0 1 .203-.308c.176-.149.372-.272.581-.367a.134.134 0 0 1 .07 0 .163.163 0 0 1 .099.041.122.122 0 0 1 0 .099.331.331 0 0 1-.07.081 5.62 5.62 0 0 0-.5.582.5.5 0 0 0-.098.273v.58a.232.232 0 0 0 .157.228c.197.07.395.15.58.215.086.022.174.034.262.034.18-.005.349.012.523.018zM77.758 32.68a.279.279 0 0 1-.354.315.116.116 0 0 1-.099-.1 2.714 2.714 0 0 0-.203-.825 4.068 4.068 0 0 1-.123-.465 18.552 18.552 0 0 0-.453-1.743 32.382 32.382 0 0 1-.476-1.744c-.093-.372-.227-.732-.338-1.104-.145-.488-.278-.976-.412-1.465a7.613 7.613 0 0 0-.116-.389c-.086-.31-.173-.622-.262-.936l-.157-.61a86.802 86.802 0 0 0-.459-1.685c-.07-.262-.186-.518-.238-.78a14.13 14.13 0 0 0-.18-.795 2.075 2.075 0 0 0-.157-.413 3.958 3.958 0 0 1-.291-.802 8.346 8.346 0 0 1-.169-.988c0-.157-.04-.32-.075-.477-.128-.581-.227-1.162-.384-1.743-.052-.192-.081-.39-.122-.582v-.034a.18.18 0 0 1 .093-.146.163.163 0 0 1 .175.03c.049.055.09.118.122.185.081.21.157.419.226.628.134.401.262.802.396 1.203.04.117.086.231.139.343.122.27.21.556.262.848 0 .07.034.146.046.216.086.527.21 1.048.372 1.557.035.122.064.238.093.36.093.448.215.89.331 1.331.117.442.186.78.285 1.163.023.097.049.194.076.29.127.41.21.834.25 1.262.01.088.027.176.052.261.192.732.39 1.459.581 2.185.087.32.203.64.29.96.088.32.123.505.192.755l.262.93c0 .099.064.186.087.285.151.58.314 1.162.424 1.743.044.266.114.527.21.78.04.062.076.128.104.197zM74.393 36.9a.663.663 0 0 0-.145-.116.262.262 0 0 0-.145 0 .477.477 0 0 0-.14.052c-.391.188-.793.353-1.203.494-.581.21-1.162.43-1.744.645-.744.274-1.487.54-2.231.826l-3.534 1.36-.581.209c-.36.14-.715.29-1.075.413-.36.122-.896.29-1.337.453-.581.198-1.116.413-1.674.616a6.178 6.178 0 0 0-.89.378c-.076.04-.156.076-.238.104l-.842.303-1.058.36-1.023.337-.465.134a.581.581 0 0 0-.273.122.22.22 0 0 0-.058.238.169.169 0 0 0 .22.087l.838-.18a7.277 7.277 0 0 0 1.336-.447 6.26 6.26 0 0 1 .581-.233c.282-.09.558-.2.826-.325.238-.11.482-.198.72-.291.239-.093.413-.163.622-.262.297-.108.588-.232.872-.372.178-.098.378-.148.581-.145a.907.907 0 0 0 .262-.035c.192-.052.378-.116.581-.18.178-.054.348-.132.506-.232a.994.994 0 0 1 .308-.122 8.445 8.445 0 0 0 1.191-.407c.477-.21.965-.384 1.459-.581.417-.158.82-.353 1.203-.582.245-.146.5-.276.761-.389.338-.134.663-.273 1.006-.384.494-.162.994-.302 1.488-.453a.099.099 0 0 1 .14 0 .378.378 0 0 0 .15-.087.761.761 0 0 1 .18 0l.146-.047.39-.127c.26-.088 1.162-.32 1.47-.378a.837.837 0 0 0 .215-.064c.18-.087.354-.18.517-.28a.163.163 0 0 0 .07-.08.325.325 0 0 0 .017-.332zM47.013 25.608a.46.46 0 0 0 .232-.11c.205-.163.43-.298.669-.402.302-.145.581-.302.907-.424.361-.16.713-.343 1.051-.547.387-.22.746-.484 1.07-.79a2.36 2.36 0 0 0 .43-.517c.1-.155.218-.3.349-.43.218-.226.393-.49.517-.78l.058-.139a.442.442 0 0 1 .349-.302c.07 0 .145-.046.215-.052.036 0 .07.017.093.046.038.062.07.129.093.198.14.398.307.786.5 1.162.058.122.104.262.162.378a.413.413 0 0 1-.052.453l-.075.082a.07.07 0 0 1-.1 0 .657.657 0 0 1-.133-.175 6.16 6.16 0 0 0-.39-.674l-.26-.453a.087.087 0 0 0-.123 0 1.11 1.11 0 0 0-.122.14c-.134.209-.262.412-.39.627-.077.141-.175.27-.29.384-.37.382-.8.702-1.273.947a4.405 4.405 0 0 0-.447.262 2.557 2.557 0 0 1-.669.313c-.224.07-.441.157-.65.262-.233.116-.471.22-.698.343a5.37 5.37 0 0 0-.884.616 2.65 2.65 0 0 0-.395.488.145.145 0 0 0 0 .105c.011.111.036.22.076.325.172.436.322.88.447 1.331a.163.163 0 0 0 .035.064.07.07 0 0 0 .058 0 .308.308 0 0 0 .076-.075l.174-.239c.173-.23.386-.426.628-.58l.581-.396c.179-.124.37-.229.57-.314l1.366-.581c.42-.168.812-.4 1.162-.686.084-.07.17-.136.261-.198.5-.366.917-.836 1.221-1.377.087-.145.192-.29.29-.43a.134.134 0 0 1 .187 0l.034.035c.08.1.098.237.047.354a1.604 1.604 0 0 1-.14.262c-.226.314-.453.622-.691.924a1.813 1.813 0 0 1-.29.285c-.181.145-.373.285-.582.43-.32.234-.668.43-1.035.581l-1.505.64c-.24.098-.468.222-.68.371l-.494.332c-.131.091-.257.19-.378.296-.222.198-.39.45-.488.732-.04.105-.075.21-.122.314a.232.232 0 0 1-.261.145h-.035a.186.186 0 0 1-.192-.162c-.047-.169-.087-.337-.128-.506a3.184 3.184 0 0 0-.099-.354l-.517-1.465a.779.779 0 0 1 0-.331.215.215 0 0 1 .081-.157l.471-.419c.052-.053.1-.11.145-.168l-.017.006zM63.583 46.234a.238.238 0 0 1 .128-.273c.114-.047.23-.088.348-.122.338-.093.675-.169 1.006-.262.738-.215 1.465-.447 2.197-.68.447-.145.89-.308 1.348-.412.217-.057.43-.125.64-.204l1.01-.366c.161-.068.332-.107.506-.116.122-.107.268-.182.425-.22a.779.779 0 0 1 .215-.047c.149-.01.295-.048.43-.11.39-.152.779-.309 1.162-.454.535-.194 1.072-.388 1.61-.581.163-.053.337-.082.5-.134.163-.052.21-.081.308-.122a.581.581 0 0 1 .384-.192c.307-.093.622-.161.941-.203a.07.07 0 0 1 .07.064.325.325 0 0 1 0 .11c-.045.09-.095.178-.151.262a.262.262 0 0 1-.11.093c-.291.11-.582.261-.843.383-.262.122-.698.326-1.035.471a4.068 4.068 0 0 0-.75.395.36.36 0 0 1-.168.058c-.173.02-.343.06-.506.122-.116.041-.238.053-.36.088-.122.034-.331.104-.494.156a1.232 1.232 0 0 1-.262.07 3.156 3.156 0 0 0-.744.221c-.186.064-.377.11-.58.169l-.634.209-1.203.39c-.401.133-.808.238-1.21.354l-.5.15a3.37 3.37 0 0 1-.36.094c-.28.047-.55.14-.802.273l-.098.047-1.128.395c-.093.035-.18.075-.273.11l-.517.169a.692.692 0 0 1-.221 0 .262.262 0 0 1-.244-.198.988.988 0 0 1-.035-.157zM59.416 45.333l-.204-.04a.314.314 0 0 1-.191-.169.215.215 0 0 1 .058-.261l.162-.093c.25-.117.51-.205.78-.262.325-.07.65-.163.964-.262a41.195 41.195 0 0 1 1.57-.453c.726-.203 1.44-.459 2.15-.709.709-.25 1.33-.476 1.993-.703.506-.169 1.011-.326 1.517-.494l1.58-.552 2.326-.831.802-.291.32-.105a.36.36 0 0 1 .26 0c.108.048.233.011.297-.087a.378.378 0 0 1 .21-.145l1.36-.372h.034l.053.035a.04.04 0 0 1 0 .035c-.15.13-.31.248-.477.354a.151.151 0 0 0-.064.04c-.14.155-.31.277-.5.361a2.743 2.743 0 0 1-.389.215 7.19 7.19 0 0 1-1.122.39c-.339.075-.673.172-1 .29-.163.055-.33.1-.5.134a7.62 7.62 0 0 0-.848.273c-.668.238-1.325.483-1.993.71-.448.15-.901.278-1.343.43-.581.203-1.191.418-1.784.633-.426.138-.858.254-1.296.348l-.54.134c-.466.122-.936.262-1.401.372a3.999 3.999 0 0 0-1.093.453c-.173.098-.36.173-.552.221a1.377 1.377 0 0 0-.407.18 2.389 2.389 0 0 1-.663.239l-.07-.018zM48.361 18.348h-.11a.174.174 0 0 1-.163-.122.192.192 0 0 1 .134-.116c.296-.125.604-.223.918-.29.414-.106.821-.234 1.22-.384.297-.093.582-.174.896-.244.457-.106.907-.24 1.348-.401.21-.076.419-.146.634-.215.412-.134.825-.262 1.232-.413.407-.151.842-.29 1.273-.413.546-.156 1.08-.348 1.627-.517.802-.26 1.594-.542 2.377-.848.127-.048.257-.089.39-.122.697-.186 1.371-.43 2.04-.675.08-.029.162-.07.244-.093a23.556 23.556 0 0 1 2.29-.621 10.85 10.85 0 0 0 1.115-.274c.227-.062.458-.105.692-.128a.936.936 0 0 1 .22 0c.076.013.136.07.152.146a.18.18 0 0 1-.058.197.959.959 0 0 1-.262.134c-.674.157-1.33.384-2.016.506a8.776 8.776 0 0 0-1.076.29c-.697.215-1.389.448-2.075.674-.104.035-.209.07-.32.1-.54.145-1.063.319-1.586.517-.29.111-.589.193-.895.244a2.197 2.197 0 0 0-.39.11c-.796.28-1.61.488-2.417.72-.413.123-.825.262-1.232.408l-1.017.348-1.238.454h-.07a1.854 1.854 0 0 1-.779.261c-.18.035-.36.082-.54.134-.109.03-.214.072-.314.122-.408.202-.846.34-1.296.407-.332.07-.64.075-.948.104zM59.77 36.86l-.261.029c-.743.139-1.476.321-2.197.546-.107.03-.216.054-.326.07a.325.325 0 0 1-.261-.047 2.906 2.906 0 0 1-.349-.261.128.128 0 0 1-.052-.128.081.081 0 0 1 .04-.053c.035-.01.07-.01.105 0 .218.049.446.035.657-.04.12-.032.239-.07.354-.117.44-.166.888-.308 1.343-.424a44.175 44.175 0 0 0 1.505-.407c.5-.145 1.081-.261 1.628-.372.261-.046.517-.098.76-.168a44.942 44.942 0 0 0 3.151-.982c.175-.061.354-.111.535-.151.411-.09.817-.205 1.214-.343l.965-.303c.331-.104.651-.226.977-.36.226-.099.465-.168.697-.244l.18-.035a.11.11 0 0 1 .122.145 4.37 4.37 0 0 1-.18.401.29.29 0 0 1-.14.117c-.116.046-.232.075-.354.116l-.424.128-2.116.691-.18.053c-.527.123-1.047.274-1.558.453-.342.105-.68.227-1.022.337l-.988.314a3.278 3.278 0 0 1-.582.163c-.122 0-.238.075-.354.098-.35.084-.69.207-1.011.367a6.201 6.201 0 0 1-.919.284l-.395.11a.982.982 0 0 1-.564.012zM90.771 36.435V35.634a.186.186 0 0 0-.099-.152l-.133-.07a1.366 1.366 0 0 1-.233-.116 1.941 1.941 0 0 0-.58-.29 1.197 1.197 0 0 1-.222-.134 2.267 2.267 0 0 1-.261-.198.657.657 0 0 0-.337-.14 1.598 1.598 0 0 1-.75-.307 2.906 2.906 0 0 0-.825-.407c-.343-.11-2.854-.924-3.174-1.081a8.352 8.352 0 0 0-.889-.366l-.872-.32h-.035a.105.105 0 0 1-.052-.122.14.14 0 0 1 .081-.058.697.697 0 0 1 .262.029c.29.105.588.192.89.261.25.07.494.158.732.262.371.169 2.905.976 3.324 1.104.223.078.433.19.622.332.15.115.329.19.517.215.31.034.603.16.843.36.126.1.27.175.424.22.162.062.317.138.465.227a.72.72 0 0 0 .453.122.227.227 0 0 1 .227.157c.18.395.322.806.424 1.227a.837.837 0 0 1 0 .186c0 .517.035 1.034.053 1.557-.022.234-.022.47 0 .704 0 .58.07 1.208.116 1.813v.035c.018.505.062 1.01.134 1.51.02.186-.004.373-.07.547-.04.116-.076.238-.122.349a.645.645 0 0 1-.105.151.076.076 0 0 1-.064 0 .157.157 0 0 1-.081-.064.401.401 0 0 1-.04-.145 44.287 44.287 0 0 0-.361-2.575c-.087-.517-.145-1.058-.204-1.587v-.261c0-.163 0-.32-.029-.483v-.11l-.035-1.633.006.052zM85.75 39.289s-.581-.215-.547-.233a.076.076 0 0 0 0-.07.86.86 0 0 0-.406-.26c-.28-.1-.551-.219-.814-.355a.779.779 0 0 1-.22-.192.134.134 0 0 1 0-.099.122.122 0 0 1 .121-.064h.07c.106.063.222.106.343.128.09.01.179.036.261.075.165.085.338.151.518.198.207.043.397.146.546.297l.058.046c.03.022.063.038.099.046.203 0 .343.192.552.216.288.059.552.2.761.406.15.1.217.287.163.46 0 .11-.046.215-.076.325a7.34 7.34 0 0 0-.145 1.296c0 .262-.04.54-.064.814v1.04a1.895 1.895 0 0 0 0 .296c.054.468.054.94 0 1.407a.72.72 0 0 1-.308.517.192.192 0 0 1-.267 0v-.029a1.279 1.279 0 0 1-.157-.581v-.279a1.79 1.79 0 0 1 .035-.273c.06-.33.076-.666.046-1a2.766 2.766 0 0 1 0-.337c0-.755.053-1.511.087-2.267.012-.173.033-.346.064-.517 0-.174.041-.32.047-.482a.215.215 0 0 0-.18-.239.814.814 0 0 1-.518-.197"/>
        <path fill="#1A1A1A" d="M88.627 39.951c0 .41-.034.817-.1 1.221a1.866 1.866 0 0 0 0 .407v.407c0 .248.01.496.03.744v.982c-.007.211-.05.42-.128.616a1.238 1.238 0 0 1-.227.331.128.128 0 0 1-.215-.035 1.162 1.162 0 0 1-.145-.639c.035-.384 0-.779 0-1.162a1.58 1.58 0 0 0 0-.186c-.052-.465-.07-.936-.093-1.407 0-.337-.04-.668-.029-1v-.58a1.61 1.61 0 0 0 0-.262 2.22 2.22 0 0 1 0-.738.163.163 0 0 0-.052-.128 1.447 1.447 0 0 0-.28-.175 10.217 10.217 0 0 0-.58-.244 4.65 4.65 0 0 1-.89-.453 2.412 2.412 0 0 0-.58-.314.325.325 0 0 1-.117-.087.081.081 0 0 1 0-.07.07.07 0 0 1 .046-.046c.222-.02.445.011.651.093l.477.215.581.261c.358.139.704.306 1.035.5.105.063.216.115.33.157.215.08.352.29.338.517v.262a7.48 7.48 0 0 0-.052.813zM69.162 48.629a.343.343 0 0 1-.418-.25.128.128 0 0 1 .064-.157l.238-.099a15.25 15.25 0 0 1 1.691-.581l.89-.262c.419-.146.828-.319 1.226-.517.374-.17.763-.304 1.162-.4.593-.157 1.176-.352 1.744-.582l.732-.262c.306-.103.618-.183.936-.238a.372.372 0 0 1 .145 0 .07.07 0 0 1 0 .058c-.032.052-.07.1-.11.145a1.866 1.866 0 0 1-.802.518c-.366.122-.72.261-1.081.395-.36.134-.581.186-.849.273-.18.052-.354.127-.517.22a5.475 5.475 0 0 1-.581.274c-.099.047-.21.081-.308.134a3.319 3.319 0 0 1-1.012.343 4.65 4.65 0 0 0-.825.215c-.15.058-.308.093-.459.14-.096.023-.19.056-.279.098-.357.17-.726.312-1.104.424a1.25 1.25 0 0 1-.483.11zM47.019 25.602l-.262-.076a.976.976 0 0 1-.58-.831.831.831 0 0 1 .26-.715.517.517 0 0 0 .175-.581.47.47 0 0 1 .064-.355c.14-.241.34-.441.581-.58.251-.185.545-.3.854-.338a.238.238 0 0 0 .215-.174l.105-.28a.43.43 0 0 1 .419-.313h.517a.71.71 0 0 1 .32.093c.08.047.18.047.261 0l.064-.035a1.07 1.07 0 0 1 .674-.145h.145a.355.355 0 0 0 .245-.064c.197-.13.418-.219.65-.262a.203.203 0 0 1 .175.035c.02.013.035.034.04.058a.134.134 0 0 1-.04.093c-.087.041-.186.07-.28.105a1.83 1.83 0 0 0-.26.134.349.349 0 0 0-.18.343c.007.06.007.12 0 .18a.122.122 0 0 1-.152.075.959.959 0 0 1-.395-.261.105.105 0 0 0-.134-.035c-.19.065-.365.165-.517.296a.314.314 0 0 1-.343.053.616.616 0 0 1-.343-.262.273.273 0 0 0-.442 0 .878.878 0 0 0-.145.378 2.61 2.61 0 0 1-.052.29.21.21 0 0 1-.25.151l-.285-.093a.29.29 0 0 0-.215 0c-.276.12-.508.323-.663.582a.366.366 0 0 0-.052.284c0 .146.064.291.087.436a.122.122 0 0 1-.064.122.82.82 0 0 1-.168.076.401.401 0 0 0-.262.285 3.185 3.185 0 0 0-.081.436.296.296 0 0 0 0 .145c.056.192.16.366.302.506a.21.21 0 0 1 .04.209l-.028.035zM69.023 25.491a.465.465 0 0 0 0-.116.232.232 0 0 0-.064-.128 1.959 1.959 0 0 0-.442-.261.581.581 0 0 0-.732.191c-.057.085-.11.172-.157.262a.128.128 0 0 1-.232 0 1.087 1.087 0 0 1-.105-.238.366.366 0 0 0-.203-.262c-.088-.046-.175-.099-.262-.128a.285.285 0 0 0-.36.11c-.047.059-.088.123-.134.18a.65.65 0 0 1-.308.204c-.22.086-.462.102-.692.047a1.348 1.348 0 0 1-.453-.157.581.581 0 0 0-.384-.099c-.135.01-.27.033-.4.07a.331.331 0 0 0-.239.261 1.744 1.744 0 0 1-.046.215.46.46 0 0 1-.1.152.128.128 0 0 1-.098.034.366.366 0 0 1-.238-.162.076.076 0 0 1 0-.07.912.912 0 0 0 .145-.413.448.448 0 0 1 .262-.337c.135-.06.275-.11.418-.151.108-.03.22-.047.331-.052.148-.006.293-.044.425-.11a.238.238 0 0 1 .325.238c.003.048.003.096 0 .145a.064.064 0 0 0 .058.07c.11 0 .221-.035.326-.064a.645.645 0 0 0 .36-.244l.093-.122a.21.21 0 0 1 .192-.088c.284.021.562.094.82.215l.203.1a.192.192 0 0 0 .209 0l.337-.227.442.058c.236.028.458.125.639.279.07.052.145.093.215.145a.65.65 0 0 1 .29.64 2.592 2.592 0 0 1-.08.435c-.127.34-.359.63-.663.825a.296.296 0 0 1-.262.041.186.186 0 0 1-.14-.116.116.116 0 0 1 0-.14c.134-.127.262-.261.407-.377a.517.517 0 0 0 .128-.175c.117-.207.175-.442.169-.68zM57.323 26.601l.622-.081c.21-.03.343-.064.518-.081a.581.581 0 0 1 .174 0 .07.07 0 0 1 0 .098 1.883 1.883 0 0 1-.936.489.814.814 0 0 1-.581-.1l-.157-.098a.802.802 0 0 1-.447-.645 1.61 1.61 0 0 0-.308-.779 1.418 1.418 0 0 1-.216-.47c-.052-.18-.104-.361-.145-.535a1.395 1.395 0 0 0-.163-.454.866.866 0 0 1-.075-.209.546.546 0 0 1 .186-.488.97.97 0 0 1 .163-.151l.459-.314a.942.942 0 0 1 .459-.134.122.122 0 0 1 .081.018.11.11 0 0 1-.058.145l-.168.076a1.25 1.25 0 0 0-.634.494c0 .029-.046.052-.07.087-.023.035-.098.093-.052.157a.21.21 0 0 0 .163.07h.075c.31-.022.615-.077.913-.163.186-.07.378-.117.581-.175l.18-.052.93-.378c.081-.035.076-.035.07-.168a.11.11 0 0 1 .035-.093.372.372 0 0 1 .32 0 .436.436 0 0 1 .127.128.203.203 0 0 1-.046.261 1.162 1.162 0 0 1-.221.134c-.32.133-.645.261-.965.39-.07.023-.142.042-.215.057-.192.053-.384.1-.581.169a4.068 4.068 0 0 1-.901.215l-.215.046a.099.099 0 0 0-.07.117c.057.393.193.771.401 1.11.112.164.187.35.221.546 0 .087.035.169.058.262.014.06.034.118.058.174a.43.43 0 0 0 .43.325zM68.697 31.385c.01-.031.024-.06.041-.088.145-.242.319-.467.517-.668a.616.616 0 0 1 .326-.168.099.099 0 0 1 .11.11.279.279 0 0 1-.192.261.517.517 0 0 0-.261.192 8.27 8.27 0 0 0-.285.39.71.71 0 0 0-.07.209c.08.122.167.238.262.349a.076.076 0 0 0 .07 0c.06-.04.12-.086.174-.134.128-.116.262-.244.384-.349.352-.309.67-.656.947-1.034.273-.32.517-.71.779-1.035.261-.325.349-.65.581-.959.169-.215.465-.505.65-.703l.111-.099c.204-.18.146-.145.192.04a.157.157 0 0 1 0 .105c-.036.065-.079.125-.128.18-.331.367-.627.768-.935 1.163-.122.157-.117.343-.274.465-.157.122-.43.732-.58.907-.315.354-.309.412-.634.755-.05.041-.102.078-.157.11a7.463 7.463 0 0 0-.826.803.738.738 0 0 1-.174.14c-.18.104-.662-.297-.703-.5a.779.779 0 0 1 .075-.442zM48.658 29.606a1.343 1.343 0 0 1-.547-.21.837.837 0 0 1-.302-.54.122.122 0 0 1 .07-.122.756.756 0 0 1 .174-.064.279.279 0 0 1 .337.157c.035.076.059.163.093.239a.68.68 0 0 0 .064.133c.03.041.079.062.128.053a.663.663 0 0 0 .302-.128l.448-.337a.796.796 0 0 1 .372-.151.262.262 0 0 1 .296.168c.046.14.105.277.175.407a.337.337 0 0 0 .377.168h.07c.06-.016.11-.059.134-.116a.953.953 0 0 0 .035-.145c.023-.11.103-.2.209-.238l.14-.047c.1-.02.186-.08.238-.168a.273.273 0 0 1 .32-.122.97.97 0 0 1 .18.046c.094.035.2.012.273-.058a.581.581 0 0 0 .209-.384.384.384 0 0 1 .058-.168.355.355 0 0 1 .314-.169.314.314 0 0 1 .163.314.663.663 0 0 1 0 .186.988.988 0 0 1-.343.517.674.674 0 0 1-.581.122.535.535 0 0 0-.262-.052.581.581 0 0 0-.198.21.296.296 0 0 0-.098.191.535.535 0 0 1 0 .11.418.418 0 0 1-.32.326c-.213.07-.443.07-.657 0a.546.546 0 0 0-.145-.035.837.837 0 0 1-.581-.337l-.07-.087a.11.11 0 0 0-.134 0c-.098.058-.186.122-.279.186a1.162 1.162 0 0 1-.662.145zM64.617 28.583v.105a.262.262 0 0 1-.04.215.407.407 0 0 1-.29.151c-.136.01-.272.01-.408 0a.814.814 0 0 0-.58.163l-.24.168a1.58 1.58 0 0 1-.458.233.72.72 0 0 1-.582-.047.581.581 0 0 0-.656.035c-.105.07-.198.145-.302.215a3.563 3.563 0 0 1-.402.262.482.482 0 0 1-.656-.14 2.365 2.365 0 0 1-.378-.68.076.076 0 0 1 .081-.093.5.5 0 0 1 .337.21c.192.29.239.273.483.058a1.93 1.93 0 0 1 .755-.384.581.581 0 0 1 .401 0 .087.087 0 0 1 .07 0c.23.102.498.076.703-.07.169-.099.36-.168.53-.261a1.58 1.58 0 0 1 .68-.163h.185c.21.021.42-.044.581-.18l.1-.047a.099.099 0 0 1 .115.07l-.029.18z"/>
        <path fill="#1A1A1A" d="M61.444 25.259c.015-.186.065-.367.145-.535a.703.703 0 0 1 .634-.442h.186a.296.296 0 0 0 .343-.215.953.953 0 0 1 .04-.104.581.581 0 0 1 .384-.32.918.918 0 0 1 .477 0c.13.047.277.008.366-.099a.744.744 0 0 1 .459-.226.663.663 0 0 1 .22 0c.295.053.572.177.809.36a.314.314 0 0 1 .087.116.122.122 0 0 1 0 .099.145.145 0 0 1-.262 0 .401.401 0 0 0-.261-.238.692.692 0 0 0-.471 0 .372.372 0 0 0-.14.11c-.063.076-.11.163-.18.233a.279.279 0 0 1-.261.075 3.11 3.11 0 0 0-.442-.052.238.238 0 0 0-.261.21c-.035.104-.059.214-.088.319a.232.232 0 0 1-.215.174 2.825 2.825 0 0 1-.372 0 .436.436 0 0 0-.476.29c-.044.103-.073.21-.087.32a1.22 1.22 0 0 1-.21.471.14.14 0 0 1-.197 0 .779.779 0 0 1-.204-.308.756.756 0 0 1-.023-.238zM58.742 27.897v.064a.273.273 0 0 1-.204.332h-.058a1.25 1.25 0 0 1-.442.046.663.663 0 0 0-.517.186c-.135.111-.244.25-.32.407a.581.581 0 0 0 0 .581c.045.075.08.155.105.238a.105.105 0 0 1 0 .1.11.11 0 0 1-.099 0 1.511 1.511 0 0 1-.378-.454.366.366 0 0 1 0-.32c.124-.38.374-.706.71-.924a.517.517 0 0 1 .389-.075l.29.04a.134.134 0 0 0 .11-.087.686.686 0 0 0 0-.11c.018-.222.069-.44.152-.645a.82.82 0 0 1 .337-.43c.105-.07.204-.14.302-.216a.262.262 0 0 1 .204-.064.273.273 0 0 0 .29-.104c.168-.17.365-.31.582-.413a.302.302 0 0 1 .377.047c.052.052.098.108.14.168a.099.099 0 0 1 0 .134.128.128 0 0 1-.099 0 .262.262 0 0 0-.366.035.942.942 0 0 0-.349.372.18.18 0 0 1-.215.11l-.145-.04a.163.163 0 0 0-.146 0c-.057.047-.12.088-.186.122a.738.738 0 0 0-.441.674 1.82 1.82 0 0 0-.023.226zM53.883 24.991a.488.488 0 0 1 .465.308.401.401 0 0 1 0 .291c-.02.07-.048.139-.082.204a.43.43 0 0 0 0 .494c.078.327.041.672-.104.976a.75.75 0 0 1-.337.337c-.186.099-.384.174-.582.262a.163.163 0 0 1-.104 0 .744.744 0 0 1-.337-.221.151.151 0 0 1 0-.175.697.697 0 0 1 .145-.116l.395-.197a.715.715 0 0 0 .39-.704.337.337 0 0 0-.064-.168c-.03-.053-.087-.093-.122-.14a.18.18 0 0 1 0-.256c.052-.052.104-.104.15-.162a.43.43 0 0 0 .094-.239.14.14 0 0 0-.116-.156 1.029 1.029 0 0 1-.216 0 .099.099 0 0 1-.087-.105.14.14 0 0 1 .047-.087.79.79 0 0 1 .465-.146zM77.84 48.111a1.255 1.255 0 0 0-.983.338 1.627 1.627 0 0 0-.54 1.034.36.36 0 0 1 0 .07.105.105 0 0 1-.128.035.436.436 0 0 1-.186-.489 2.209 2.209 0 0 1 .976-1.389 1.162 1.162 0 0 1 1.018-.052.29.29 0 0 1 .122.39l-.035.052a.163.163 0 0 1-.099.046l-.145-.035zM72.911 49.983l.174.035c.17.05.343.087.518.11.227.032.419.186.5.401a.157.157 0 0 1-.041.169l-.21.157a.134.134 0 0 1-.139 0l-.424-.215a1.116 1.116 0 0 0-.727-.07.43.43 0 0 0-.279.47c.018.074.041.146.07.216.03.081.07.157.099.238a.145.145 0 0 1 0 .099.099.099 0 0 1-.128 0l-.052-.052a1.744 1.744 0 0 1-.262-.582.581.581 0 0 1 .035-.4c.035-.076.076-.158.122-.233.072-.134.2-.23.349-.262.099-.04.261-.081.395-.081zM55.696 32.059a.105.105 0 0 0-.099 0 1.587 1.587 0 0 0-.238.232c-.14.175-.262.36-.395.54a1.976 1.976 0 0 0-.332.623c-.084.244-.193.48-.325.703a.494.494 0 0 1-.11.145.285.285 0 0 1-.157.082h-.256c-1.093-.28.843-.198.046-.518l.1-.145c.174-.236.354-.465.54-.686a.796.796 0 0 0 .168-.238c.041-.141.072-.285.093-.43a.035.035 0 0 0 0-.03.099.099 0 0 0-.064 0 .866.866 0 0 0-.145.111c-.174.175-.337.36-.517.517l-.146.14c-.047.05-.091.102-.133.157-.384.308-.46 1.441-1.331 1.215-.07-.278-.1-.563-.087-.849-.01-.11-.01-.221 0-.331.044-.392 0-.79-.128-1.163-.052-.15-.11-.302-.157-.453a.29.29 0 0 1 .087-.337c.198-.169.39-.337.581-.494.401-.29.814-.581 1.22-.843l.146-.116a.134.134 0 0 0 .04-.064.087.087 0 0 0 0-.07.203.203 0 0 0-.092-.046.11.11 0 0 0-.07 0l-.215.145c-.436.302-.872.581-1.296.913a5.013 5.013 0 0 0-.378.296.581.581 0 0 0-.238.65c.035.152.064.303.093.454-.005.243.01.486.046.727v.099a1.122 1.122 0 0 0-.035.261.203.203 0 0 0 0 .238v.151l-.034.146c0 .058 0 .116-.035.174.01.09.033.179.07.262 0 .075.046.168.075.244a.5.5 0 0 0 .581.383.581.581 0 0 0 .18-.04c.326-.273.448-.146.942-.128h.331a.546.546 0 0 0 .401-.238.912.912 0 0 0 .1-.157c.143-.248.263-.51.36-.78a.779.779 0 0 1 .092-.203c.227-.354.413-.732.675-1.063a.203.203 0 0 0 .046-.099.128.128 0 0 0 0-.087zM65.373 26.351c.26-.023.49.166.517.425a.343.343 0 0 0 .262.36c.15.066.257.204.285.366a.337.337 0 0 1-.088.343c-.087.086-.18.165-.279.238a.296.296 0 0 1-.412-.075v-.047a.134.134 0 0 1 0-.14c.058-.08.122-.156.18-.232l.058-.098a.099.099 0 0 0-.046-.134l-.233-.04a.43.43 0 0 1-.261-.152.413.413 0 0 1-.093-.314.105.105 0 0 0 0-.07.087.087 0 0 0-.059-.034c-.123.014-.243.05-.354.104a.122.122 0 0 1-.128-.04.163.163 0 0 1 0-.105.744.744 0 0 1 .413-.296l.238-.059zM61.351 27.938c.036-.191.103-.376.198-.546a.087.087 0 0 1 .064 0 .273.273 0 0 1 .203.07c.06.066.06.166 0 .232l-.058.047a.198.198 0 0 0-.116.174 1.238 1.238 0 0 0 0 .145.157.157 0 0 0 .052.128c.058.023.124.01.169-.035l.133-.128c.035-.035.058-.081.093-.116a.401.401 0 0 1 .175-.22c.089 0 .177.016.261.046a.581.581 0 0 0 .29 0l.39-.122c.02-.01.044-.01.064 0 .01.022.01.047 0 .07a.273.273 0 0 1-.174.18 2.906 2.906 0 0 1-.465.127.482.482 0 0 0-.378.262c-.03.052-.058.11-.093.163a.448.448 0 0 1-.099.11.47.47 0 0 1-.657-.116.726.726 0 0 1-.052-.47zM59.863 27.711c.022-.069.047-.137.076-.203a.192.192 0 0 1 .145-.099.116.116 0 0 1 .128.14c0 .035-.04.064-.052.099-.058.133-.047.174.087.273.041.027.079.06.11.098a.116.116 0 0 1 0 .105.581.581 0 0 0-.116.419.093.093 0 0 1-.116.07.262.262 0 0 1-.215-.227 2.964 2.964 0 0 0-.07-.582.488.488 0 0 1 .023-.093zM71.272 38.359c-.075.052-.075.052-.151 0h.151zM39.975 70.185h-.628a3.888 3.888 0 0 1-1.064-.145.796.796 0 0 0-.33 0 1.57 1.57 0 0 1-.443 0 5.812 5.812 0 0 1-1.4-.337c-.262-.11-.518-.186-.762-.302a1.813 1.813 0 0 1-1.017-1.116 1.232 1.232 0 0 1-.058-.326v-.517a.61.61 0 0 1 .21-.424c.129-.134.291-.233.47-.285l.506-.122a.581.581 0 0 1 .465.04.68.68 0 0 0 .285.07c.597.08 1.182.23 1.743.448.093.036.188.067.285.093.265.062.519.162.755.296.174.097.36.17.553.215.488.128.976.285 1.464.425l.105.04c.378.17.766.318 1.162.442.465.169.93.349 1.383.546.378.159.783.24 1.192.239a2.534 2.534 0 0 0 1.064-.303c.226-.098.459-.174.697-.261a3.43 3.43 0 0 1 1.133-.169c.162.006.322.031.477.076.192.046.378.116.581.174.203.058.517.151.779.239.189.06.373.135.552.22.343.169.686.35 1.017.535.159.097.31.206.453.326.128.098.1.127.07.29.01.097.01.194 0 .29-.087.262-.197.262-.412.303a.192.192 0 0 1-.105 0 1.226 1.226 0 0 0-.506-.116 4.405 4.405 0 0 1-.732-.11 1.511 1.511 0 0 1-.314-.111 2.121 2.121 0 0 0-.424-.14 3.452 3.452 0 0 1-.355-.122 1.081 1.081 0 0 0-.47-.07.14.14 0 0 0 0 .07c.014.021.034.037.058.047.244.12.496.22.755.302.198.056.392.123.581.203.226.105.46.192.698.262a.924.924 0 0 1 .36.186l.407.325a.82.82 0 0 1 .105.105.343.343 0 0 1 .046.442c0 .029-.035.064-.052.099a.21.21 0 0 1-.215.116c-.233-.03-.465-.052-.698-.099a5.65 5.65 0 0 1-.58-.151 2.964 2.964 0 0 0-.518-.105c-.262-.029-.535-.087-.802-.14a1.994 1.994 0 0 0-.477-.052.122.122 0 0 0-.07 0 .215.215 0 0 0-.063.082.07.07 0 0 0 0 .064.918.918 0 0 0 .191.116c.337.128.669.262 1.012.378.292.105.593.181.9.226a.634.634 0 0 1 .43.262c.101.168.15.362.14.558a.517.517 0 0 1-.186.43.93.93 0 0 1-.285.169.488.488 0 0 1-.215 0 .959.959 0 0 1-.215-.047 8.317 8.317 0 0 0-.866-.192 5.492 5.492 0 0 1-.93-.261 1.354 1.354 0 0 0-.32-.093 4.464 4.464 0 0 1-1.063-.326c-.128-.046-.261-.116-.372-.168a2.766 2.766 0 0 1-.54-.326 2.11 2.11 0 0 0-.262-.168.779.779 0 0 1-.407-.628 2.325 2.325 0 0 0-.261-.808 1.93 1.93 0 0 0-.401-.482.616.616 0 0 0-.337-.146 2.668 2.668 0 0 1-.582-.18 2.441 2.441 0 0 0-.83-.174 6.8 6.8 0 0 1-1.163-.169 2.865 2.865 0 0 0-.442-.052l-.965-.04.053.034zm-.053-.47h.146a7.974 7.974 0 0 1 1.51.127h.146c.308.035.616.076.924.105.234.023.464.082.68.174l.779.332c.17.076.325.18.46.308.32.28.536.661.61 1.08 0 .123.046.245.075.361.01.049.034.094.07.128.19.177.405.324.639.436a8.98 8.98 0 0 0 1.447.465c.133.03.263.068.39.116.093.03.186.07.279.099l1.5.424c.167.05.343.066.516.047a.453.453 0 0 0 .14-.053.116.116 0 0 0 .035-.133 2.075 2.075 0 0 1-.14-.169.331.331 0 0 0-.273-.163 5.155 5.155 0 0 1-.936-.238c-.203-.058-.4-.134-.58-.198-.181-.064-.286-.093-.42-.15a.517.517 0 0 1-.36-.64v-.035a.418.418 0 0 1 .465-.372h.122l.837.18c.133.029.263.068.39.117a6.3 6.3 0 0 0 1.36.36c.087.008.174.008.261 0a.081.081 0 0 0 .058-.035.07.07 0 0 0 0-.064 1.064 1.064 0 0 0-.674-.424 2.97 2.97 0 0 1-.808-.273.849.849 0 0 0-.209-.082c-.366-.075-.692-.273-1.035-.372a.424.424 0 0 1-.302-.325 1.65 1.65 0 0 1 0-.517c.01-.143.131-.251.273-.245h.11c.231.047.459.11.68.186.265.074.525.161.78.262h.07c.382.08.771.128 1.162.145h.11a.116.116 0 0 0 .116-.075.174.174 0 0 0-.046-.093 1.54 1.54 0 0 0-.215-.146c-.285-.156-.581-.313-.849-.459a1.988 1.988 0 0 0-.802-.261.72.72 0 0 1-.18-.047c-.308-.099-.616-.186-.918-.29a1.604 1.604 0 0 0-.732-.076 4.743 4.743 0 0 0-1.529.43 2.11 2.11 0 0 1-.581.204 3.005 3.005 0 0 1-1.633-.204l-.622-.244-.314-.116c-.262-.099-.517-.21-.802-.297a5.47 5.47 0 0 1-.657-.261 2.726 2.726 0 0 0-.418-.151l-1.54-.424c-.17-.041-.327-.12-.46-.233a1.162 1.162 0 0 0-.517-.261l-.325-.088a3.563 3.563 0 0 1-.518-.191 3.551 3.551 0 0 0-1.07-.303 3.22 3.22 0 0 1-.656-.122 1.744 1.744 0 0 0-.517-.04.477.477 0 0 0-.244.075 3.72 3.72 0 0 0-.424.302.5.5 0 0 0-.128.634c.086.15.185.292.296.424a.86.86 0 0 0 .401.314c.28.11.581.22.825.337.187.081.382.144.582.186l.616.128c.337.07.68.122 1.017.198.24.056.485.09.732.098l.825.088zM43.05 41.172c-.21.262-.495.65.046.47a10.834 10.834 0 0 0 2.388-1.37c.21-.262 1.227-.617 1.233-.815.005-.197-.117-.406-.518-.156-.43.217-.841.468-1.232.75-.279.26-.343.185-.686.435s-.58.517-.755.581l-.477.105zM90.167 42.788a.401.401 0 0 1 0-.11c0-.396-.052-.78-.087-1.163a9.421 9.421 0 0 1-.053-1.337c0-.261 0-.546.03-.814.033-.507.033-1.015 0-1.522a3.208 3.208 0 0 0-.105-.733 1.162 1.162 0 0 1 0-.767.215.215 0 0 0-.07-.232.366.366 0 0 0-.261-.116 2.057 2.057 0 0 1-.436-.07 1.947 1.947 0 0 0-.332-.04c-1.209-.295-2.399-.663-3.562-1.105a.866.866 0 0 0-.262-.14 9.334 9.334 0 0 1-.936-.354 3.725 3.725 0 0 0-.383-.14 3.4 3.4 0 0 1-.622-.226.11.11 0 0 0-.07 0 .198.198 0 0 0-.087.052.07.07 0 0 0 0 .07c.146.198.349.348.581.43.304.107.601.233.89.378.121.058.26.098.377.15.116.053.163.059.238.1a.308.308 0 0 1 .076.058c.453.087 3.906 1.034 4.068 1.162a.39.39 0 0 1 .157.174c.063.007.116.05.134.11.05.154.07.316.058.477-.027.609-.052 1.213-.075 1.814 0 .482-.041.964-.059 1.447v.517c.03.47.07.936.093 1.407.024.47.064.866.1 1.296a.279.279 0 0 0 0 .104.128.128 0 0 0 .075.07c.087.011.174.011.261 0a.186.186 0 0 0 .146-.151 1.58 1.58 0 0 0 .116-.796zM44.578 42.143c0 .342.046.488.261.36.727-.402 1.42-.86 2.075-1.372.087-.203-.122-.348-.482-.087a3.801 3.801 0 0 1-.645.46c-.355.191-.5.325-.71.453-.156.086-.324.149-.5.186zM74.207 26.241l-.075.07v-.03a.581.581 0 0 1 0-.203c.022-.077.05-.153.081-.226.186-.169.134-.477-.058-.425h-.047a2.51 2.51 0 0 0-.505.384l-.047.04a.9.9 0 0 1-.302.239c-.064 0 .03-.28.262-.506.383-.395.226-.697-.1-.424l-.51.581-.07.076a.134.134 0 0 0-.07.035.581.581 0 0 0-.32.622c-.01.259-.056.515-.14.76a.36.36 0 0 1-.092.158c-.122.14-.239.285-.372.412-.337.343-.68.686-1.017 1.035l-.1.11-.534.616c-.097.093-.177.201-.238.32a.581.581 0 0 0 .29-.203c.111-.117.232-.224.36-.32.261-.19.496-.412.698-.663.149-.199.318-.382.506-.546.195-.172.369-.367.517-.581a.802.802 0 0 0 .163-.372c.056-.257.093-.517.11-.779a.314.314 0 0 1 .169-.273c.058-.093.124-.18.197-.262.128-.145.134-.034.059.105-.076.14.127.343.127.343h.215c.065-.055.127-.113.186-.174.088-.093.07-.064.134-.134.233-.238.186.046.186.046a3.423 3.423 0 0 0-.186.489c0 .104.145.145.262.07.383-.28.424-.262.424-.262-.064.07-.123.146-.174.227 0 0-.308.33-.35.366-.203.238.07.122.07.122a.453.453 0 0 0 .227-.204c.244-.29.192-.162.43-.465.239-.302.18-.261.204-.476.023-.215-.57.302-.57.302z"/>
    </g>
</svg>
